if (_typeface_js && _typeface_js.loadFace) _typeface_js.loadFace({"glyphs":{"S":{"x_min":0,"x_max":680.703125,"ha":694,"o":"m 0 154 b 2 146 1 151 1 147 b 8 139 5 143 6 143 b 9 132 9 137 9 135 b 12 129 11 132 11 130 b 19 125 15 129 16 126 b 102 62 44 101 72 80 b 119 58 108 62 113 61 b 120 55 119 57 120 57 b 170 36 137 50 154 43 b 198 25 180 32 190 29 b 606 122 338 -46 506 8 b 633 157 616 133 625 146 b 656 392 686 222 691 317 b 644 414 652 400 648 407 b 620 461 637 430 630 446 l 605 482 b 587 501 600 489 593 494 b 568 517 580 507 575 512 b 548 532 561 522 555 528 b 516 550 537 539 527 544 b 483 565 505 555 494 561 b 450 575 472 568 461 572 b 347 603 415 586 380 594 b 323 612 338 605 331 610 b 302 626 316 617 309 621 b 250 676 281 639 262 657 b 237 697 244 683 240 690 b 225 747 230 712 223 729 b 226 774 223 755 225 765 b 234 801 227 783 230 792 b 252 825 238 811 244 818 b 272 839 258 830 265 835 b 301 849 281 843 291 847 b 390 836 331 855 363 850 l 408 828 b 426 817 415 824 420 821 b 448 803 434 812 441 808 b 453 800 451 803 452 801 b 456 797 455 800 455 799 l 463 793 b 474 783 467 790 471 786 b 484 774 478 779 483 776 b 485 772 485 774 484 772 b 491 767 487 769 490 768 l 495 760 b 515 733 502 751 509 742 b 580 729 528 703 559 707 b 588 736 583 730 585 733 l 594 740 b 595 742 595 740 595 742 b 605 751 599 744 602 747 b 621 767 612 757 617 761 b 630 774 624 768 627 772 b 649 787 635 779 642 783 b 680 817 656 792 684 811 b 651 876 669 833 666 854 b 638 892 648 882 644 886 b 490 1010 595 939 544 976 b 469 1019 483 1014 476 1017 l 445 1028 b 423 1035 438 1030 430 1032 b 376 1049 408 1040 391 1044 b 354 1054 369 1050 360 1053 l 331 1058 b 285 1055 316 1060 301 1058 b 154 992 240 1043 194 1021 b 129 974 145 986 137 980 b 99 950 119 967 109 958 l 74 921 b 55 886 68 910 61 899 b 41 849 49 874 45 861 b 30 775 36 825 31 800 l 30 737 b 33 699 30 725 31 711 b 288 440 47 565 154 451 l 317 432 b 401 401 347 424 376 414 b 424 386 409 396 417 392 b 451 358 435 378 444 368 b 463 324 458 347 462 335 b 465 299 465 315 465 307 b 451 247 465 280 459 262 b 423 211 444 233 434 222 b 405 197 417 205 412 201 b 385 187 399 193 392 190 l 366 179 b 345 176 359 178 352 176 b 166 258 266 179 236 221 b 137 274 156 264 147 269 b 106 276 126 280 118 283 b 105 275 105 276 105 275 b 104 275 105 275 104 275 b 101 274 102 274 102 274 b 100 272 100 274 100 272 b 97 272 98 271 97 272 l 97 271 b 94 269 95 271 94 269 b 88 264 91 268 90 265 l 83 258 b 81 255 81 257 81 257 b 76 249 81 254 76 251 b 73 246 75 249 73 247 b 68 240 72 244 69 243 l 65 237 b 62 235 63 236 63 235 b 56 229 61 232 59 230 b 55 225 56 228 55 226 b 52 224 54 225 52 224 b 47 217 51 221 50 218 b 41 211 45 215 44 212 l 41 208 b 37 204 40 207 38 207 b 34 201 36 204 36 203 b 27 193 33 199 30 196 l 23 186 b 13 174 19 182 15 179 b 12 172 13 172 12 172 l 9 169 b 8 169 9 169 8 169 l 8 167 b 6 165 8 167 6 167 b 6 164 5 165 6 164 l 4 164 b 4 161 4 162 5 162 b 2 161 4 161 2 161 b 1 158 2 158 1 158 b 0 155 1 158 1 157 l 0 154 "},"/":{"x_min":-0.125,"x_max":757,"ha":757,"o":"m 261 129 l 279 155 b 466 413 340 243 397 333 l 487 441 b 623 629 533 504 575 567 l 643 654 b 725 756 670 688 697 722 b 744 781 730 766 737 774 b 757 805 750 788 755 795 b 732 835 747 815 744 828 b 722 847 732 842 725 845 b 723 852 722 848 723 851 l 719 851 b 713 859 716 853 716 858 b 704 867 709 863 704 863 b 697 870 704 870 698 869 b 694 877 695 873 698 877 b 690 883 691 877 691 881 b 677 884 684 881 683 884 b 670 891 680 891 665 887 b 668 894 672 894 669 894 b 666 894 669 894 666 890 b 665 895 666 896 665 894 b 657 901 662 898 658 899 b 652 905 655 902 654 903 l 648 906 b 643 910 647 908 644 910 b 641 912 640 910 641 912 b 633 916 637 915 637 915 b 631 920 630 916 631 920 b 620 922 629 920 625 920 b 604 919 612 923 609 920 b 594 920 600 919 598 923 l 594 916 b 590 913 593 913 590 915 b 588 906 588 912 590 909 l 584 902 b 583 891 583 898 584 894 b 575 883 581 888 577 885 b 572 872 572 880 575 874 b 544 844 562 863 554 853 b 519 815 536 834 527 824 l 494 784 b 472 753 487 774 480 763 l 448 722 b 229 415 373 619 298 519 l 209 384 b 159 315 193 359 177 337 b 140 287 154 306 147 297 l 102 230 b 80 195 95 219 87 206 l 66 176 b 25 118 54 156 40 137 b 19 102 23 112 22 106 b 8 93 16 99 12 95 b 0 59 8 79 -1 74 b 16 56 5 58 9 49 b 20 54 16 54 19 55 b 23 51 22 54 23 51 b 31 47 27 48 30 47 b 37 43 36 47 36 45 b 41 44 38 43 41 44 l 41 40 b 48 37 44 38 48 41 b 50 36 48 36 48 37 b 59 30 52 33 56 31 b 63 26 61 30 62 27 b 69 24 66 26 69 27 b 77 27 73 24 75 27 b 81 26 79 26 79 26 b 91 12 81 18 91 20 b 95 11 93 12 95 12 b 118 8 105 11 115 12 b 120 11 119 6 120 11 b 134 11 126 11 127 6 b 143 6 131 2 140 8 b 145 2 144 6 144 2 b 151 5 147 2 148 6 b 156 1 151 2 154 2 b 175 4 159 1 172 -2 b 179 18 170 5 181 9 b 190 40 186 23 183 34 b 208 62 195 48 202 55 l 226 84 b 259 130 237 98 251 112 l 261 129 "},"K":{"x_min":12.59375,"x_max":881.109375,"ha":882,"o":"m 597 973 b 596 972 597 972 597 972 b 578 966 589 972 583 970 b 561 949 572 961 567 955 l 545 933 b 528 916 539 927 533 922 l 511 899 b 495 881 506 894 500 887 l 481 866 b 450 834 471 855 463 843 b 322 700 401 793 367 741 b 307 686 317 695 311 691 b 256 651 290 673 274 661 b 253 648 253 650 253 650 b 247 648 251 648 249 648 l 245 651 b 241 659 243 652 242 655 b 240 673 241 663 241 668 l 240 693 b 240 845 237 743 240 794 b 237 884 240 859 238 872 b 235 901 237 890 235 895 l 235 912 b 235 934 235 920 238 927 b 223 937 233 937 228 937 l 195 937 b 181 938 191 937 187 937 l 130 943 b 124 940 126 943 126 940 b 72 943 109 943 90 941 l 66 943 b 44 943 59 944 51 943 b 19 943 34 943 23 944 l 19 940 b 18 940 19 940 18 941 b 12 937 16 940 15 937 l 12 923 b 13 920 13 923 13 922 l 13 898 b 15 873 15 891 15 881 b 18 843 16 863 16 854 b 16 743 18 809 18 776 l 16 709 b 13 604 15 675 13 640 b 12 569 12 593 12 581 l 12 487 b 13 459 13 477 13 469 b 13 430 13 450 13 440 l 13 402 b 15 340 12 380 15 361 l 16 341 b 23 163 12 281 19 223 b 22 115 25 147 23 131 b 20 90 22 106 20 98 b 18 63 19 80 19 72 b 18 45 18 58 16 51 b 19 29 18 40 18 33 b 22 26 20 27 20 26 b 23 23 22 23 22 23 b 30 16 25 19 27 18 b 34 15 32 16 32 15 b 39 13 36 15 37 13 b 50 11 41 12 45 12 l 51 9 b 52 9 51 9 52 11 b 61 8 55 9 58 8 b 68 6 63 6 65 6 b 73 5 69 6 70 5 b 116 -1 87 2 104 0 b 124 -1 119 -1 123 0 l 173 -1 b 176 -1 173 0 176 -1 b 191 0 183 0 187 0 b 212 1 198 0 205 0 l 215 1 b 223 2 219 1 221 2 b 245 8 232 2 239 5 b 244 61 244 25 244 45 b 243 79 243 66 243 72 b 245 272 241 143 245 208 b 244 301 245 281 244 291 l 244 329 b 243 341 243 333 241 337 l 244 341 b 244 343 244 341 243 343 b 245 344 244 343 245 344 l 245 347 b 246 348 245 347 246 347 b 247 350 246 348 246 350 l 249 350 b 250 351 249 351 250 351 b 251 352 251 351 251 352 b 254 354 253 352 254 352 l 256 354 b 332 423 283 373 304 401 b 335 423 333 423 335 423 l 338 426 b 343 430 340 427 342 429 b 346 431 345 430 345 431 b 351 436 347 433 349 434 b 361 436 354 437 360 436 b 363 434 363 436 363 436 b 365 433 365 434 365 433 l 372 420 b 381 413 375 419 378 416 l 389 405 b 465 316 414 376 443 350 b 472 305 468 313 470 309 b 488 283 478 298 482 290 b 615 113 531 226 571 169 b 629 97 620 108 624 102 l 643 80 b 657 51 649 72 651 61 b 668 50 658 47 664 50 b 717 52 683 51 700 51 b 722 52 720 54 721 52 b 729 54 725 52 728 54 b 746 55 738 54 740 54 b 764 56 753 55 757 55 b 811 61 779 58 796 58 b 835 63 818 61 829 62 b 836 63 835 63 836 63 l 842 63 b 867 66 850 65 858 66 b 868 68 867 66 868 68 l 870 69 b 871 72 870 70 871 70 b 874 75 872 73 872 75 l 874 77 b 875 79 874 77 875 77 b 876 83 875 80 876 81 b 879 90 878 86 878 90 b 881 94 881 91 879 94 b 854 141 874 111 864 126 b 821 186 843 156 832 172 b 788 229 810 201 799 215 b 757 270 778 243 768 256 b 743 291 753 277 747 284 l 728 312 b 674 384 710 336 692 361 l 660 402 b 646 419 656 408 651 413 b 528 576 604 469 565 522 b 525 587 528 580 525 584 b 531 602 525 593 528 598 b 699 784 586 666 650 716 b 710 798 703 788 707 793 b 714 802 711 801 713 801 b 717 806 715 805 717 805 b 715 813 717 809 717 811 b 715 818 715 815 715 816 b 714 820 714 818 714 820 l 714 822 b 713 827 713 825 713 826 l 711 829 b 710 831 710 830 711 831 l 710 833 b 708 836 708 834 708 836 b 707 837 708 837 707 837 b 706 840 707 838 707 838 l 706 841 b 704 843 706 843 704 843 l 703 848 b 701 850 701 848 701 850 b 699 855 701 851 699 854 b 697 858 699 855 697 856 b 695 863 697 859 695 862 b 692 869 693 866 693 868 b 689 873 692 870 689 872 l 689 875 b 688 877 688 876 689 876 b 686 881 686 879 686 881 b 683 884 685 883 683 883 b 682 888 682 886 683 887 l 679 891 b 678 894 679 893 679 893 b 676 895 678 894 678 895 l 676 897 b 671 905 674 901 672 904 l 668 908 b 668 909 668 908 668 909 l 664 913 b 657 922 661 916 660 919 l 645 934 b 638 940 643 936 639 940 b 628 949 633 943 631 947 l 620 958 b 613 963 618 959 615 962 b 611 966 611 965 611 965 b 604 973 608 969 606 970 l 597 973 "},"7":{"x_min":0,"x_max":608.28125,"ha":608,"o":"m 590 801 b 499 530 556 712 528 620 b 458 413 487 491 472 452 l 447 384 b 370 130 416 301 397 215 l 360 106 b 340 52 353 88 345 72 b 335 29 335 45 341 37 b 338 15 341 23 333 15 b 313 9 337 9 316 4 b 201 4 276 5 240 -6 b 144 4 183 9 163 5 b 141 37 138 18 145 24 b 148 65 147 45 151 55 b 198 238 169 122 181 180 b 224 320 206 266 216 292 b 249 409 234 349 241 380 b 362 765 283 529 322 647 b 233 763 319 763 276 765 b 199 763 222 763 211 763 l 188 762 b 55 762 144 763 99 760 b 43 770 51 763 47 766 b 37 778 40 773 38 776 b 34 791 36 783 34 787 l 30 805 b 9 898 20 835 9 866 b 6 912 8 902 5 908 b 6 920 6 913 5 919 b 0 935 -2 921 2 930 b 30 948 11 945 19 941 b 59 951 40 945 49 945 l 81 949 b 176 952 113 951 145 951 l 208 953 b 466 963 294 958 380 958 l 490 963 b 608 965 528 965 567 965 b 601 851 609 931 601 884 l 594 816 l 590 801 "},"d":{"x_min":0,"x_max":761.578125,"ha":833,"o":"m 183 932 b 267 922 211 930 239 926 l 287 918 b 308 915 294 918 301 916 l 331 909 b 354 902 339 908 346 905 b 379 895 362 900 371 898 b 403 886 386 891 394 888 b 460 862 422 879 442 870 b 511 834 478 854 494 845 b 560 798 528 825 543 812 b 615 744 579 782 599 763 b 633 725 622 739 628 732 b 665 683 644 711 656 697 b 681 661 671 675 676 668 b 694 637 686 652 690 645 b 710 612 700 629 706 620 l 722 586 b 742 539 731 570 736 554 b 753 489 747 522 750 505 b 756 465 754 482 756 473 b 757 437 756 457 757 447 b 760 407 758 427 758 416 b 761 375 760 396 761 384 l 761 346 b 756 282 761 325 758 303 l 750 255 b 694 108 736 207 721 153 b 676 82 689 98 683 90 b 656 59 669 73 662 66 b 582 4 633 37 608 19 b 554 -9 572 0 564 -3 b 532 -19 547 -12 540 -16 b 510 -28 525 -21 518 -26 b 485 -40 501 -33 493 -35 l 460 -48 b 398 -65 440 -55 419 -60 b 336 -76 378 -69 357 -73 b 95 -81 257 -87 176 -80 l 65 -81 b 38 -80 58 -81 47 -80 b 37 -59 37 -73 37 -66 b 31 -30 34 -49 33 -40 b 27 25 30 -12 27 7 b 26 82 26 44 26 64 l 26 132 b 23 184 26 150 25 166 b 20 233 22 201 20 216 l 20 262 b 19 290 19 272 19 282 b 13 391 18 325 15 358 b 11 441 12 408 12 425 b 9 458 11 447 11 452 l 9 476 b 0 808 8 589 5 698 b 0 833 0 816 0 825 l 0 886 b 2 904 6 887 2 897 b 6 905 4 904 5 905 b 11 909 9 905 8 909 b 159 929 58 923 109 923 b 183 932 166 930 181 926 m 201 709 b 201 708 201 709 201 708 b 197 704 199 708 199 705 l 197 702 b 196 702 197 702 196 702 l 196 694 b 188 654 193 682 190 665 b 187 639 188 650 187 641 b 186 626 187 632 186 629 b 184 591 186 614 184 602 l 184 557 b 186 440 184 518 184 479 l 186 418 b 188 226 190 354 188 290 b 187 200 188 219 188 209 b 187 172 188 191 187 180 b 191 153 188 165 191 158 l 191 148 b 196 137 193 144 194 141 b 197 135 196 135 197 135 b 199 132 199 133 197 132 b 200 130 199 132 200 130 l 201 130 b 208 129 203 129 206 129 b 208 130 208 129 208 130 l 221 130 b 224 129 221 129 222 128 b 226 130 225 129 225 130 l 228 130 b 229 129 228 129 229 129 b 235 130 232 128 233 130 b 236 132 235 130 236 132 l 239 132 b 294 135 257 132 275 133 l 325 139 b 356 143 335 140 346 141 l 387 147 b 418 155 397 150 408 153 l 449 168 b 476 184 458 173 468 179 b 518 225 492 197 506 209 l 533 246 b 546 268 537 253 543 261 b 568 322 554 286 561 304 l 575 350 b 582 379 578 359 581 369 b 585 408 583 389 583 398 b 572 497 583 437 579 468 b 562 525 569 507 565 515 b 551 551 560 534 556 543 b 539 576 549 559 543 568 b 521 601 533 586 526 594 b 499 623 514 609 507 618 b 232 714 426 689 326 709 b 212 714 226 715 217 714 l 207 709 l 201 709 "},",":{"x_min":0.03125,"x_max":212.890625,"ha":282,"o":"m 211 76 b 210 92 211 81 210 87 b 201 137 207 108 203 123 b 189 151 199 144 193 147 b 176 165 183 155 179 158 b 169 166 175 165 172 165 b 168 169 169 166 169 167 b 167 170 167 169 165 169 b 164 166 161 170 164 169 b 153 173 161 170 154 170 b 119 169 143 166 128 177 b 100 172 115 172 111 174 b 89 167 97 172 94 169 b 59 163 82 166 68 166 b 55 163 58 163 55 165 b 29 160 51 160 30 162 b 25 159 27 158 25 159 b 16 151 22 158 16 151 b 13 130 13 144 15 137 b 1 38 2 98 0 73 b 0 27 1 35 0 31 b 1 8 0 20 0 13 b 76 9 5 -4 66 16 b 77 -1 76 5 77 2 b 79 -8 77 -4 77 -5 b 79 -16 79 -11 79 -14 l 79 -25 b 72 -59 79 -37 77 -48 l 72 -61 b 68 -77 72 -66 71 -72 l 66 -79 b 62 -86 65 -82 64 -84 b 54 -94 61 -90 57 -93 b 52 -96 54 -94 52 -94 b 40 -105 48 -98 44 -101 b 33 -109 38 -107 36 -108 b 27 -121 30 -112 29 -115 b 27 -122 27 -121 27 -122 l 30 -122 b 64 -125 38 -126 54 -126 b 73 -123 66 -123 71 -123 b 86 -119 77 -122 82 -121 l 97 -115 b 109 -109 101 -114 105 -112 b 121 -104 114 -108 118 -105 b 175 -58 140 -89 161 -79 l 180 -48 b 212 69 201 -12 204 28 b 211 76 212 72 211 73 "},"Y":{"x_min":-0.125,"x_max":748.484375,"ha":749,"o":"m 748 859 b 744 866 747 862 744 866 b 742 873 742 869 742 872 b 740 875 742 873 741 875 b 738 879 740 876 738 878 l 737 880 b 737 882 737 880 737 882 l 724 886 b 722 891 723 889 723 890 l 715 891 b 705 900 713 896 709 898 b 698 908 704 903 701 905 b 691 911 695 908 694 911 b 685 916 691 914 687 914 b 679 922 685 919 681 919 b 669 937 676 928 673 932 l 659 939 b 655 946 658 941 658 946 b 651 947 654 947 652 947 b 642 950 648 948 645 948 b 637 951 641 950 640 951 b 597 948 623 954 608 954 b 592 947 594 947 592 947 b 591 946 591 947 591 946 b 588 944 590 946 588 946 b 585 941 587 944 585 943 b 581 939 584 940 581 940 b 576 933 579 937 577 934 b 567 923 573 929 570 926 b 566 922 567 922 566 922 b 441 741 519 865 483 801 l 413 704 b 386 668 404 691 395 679 b 369 636 383 664 369 636 b 355 657 369 636 361 653 b 352 666 352 659 354 664 b 338 686 348 673 344 679 b 323 707 333 693 327 700 b 308 729 317 714 312 722 b 208 889 267 779 238 833 b 176 937 198 907 187 922 b 162 951 172 943 166 947 b 159 954 160 951 159 954 b 155 955 158 954 156 954 b 154 957 155 955 155 957 b 148 958 152 957 151 958 b 148 959 148 958 148 958 l 145 959 b 138 961 142 961 140 959 b 120 961 131 961 126 961 l 117 961 b 94 955 111 959 102 958 b 90 950 92 954 92 951 b 83 948 88 948 86 948 l 74 940 b 74 939 74 940 74 940 l 73 937 b 67 932 72 934 70 933 b 60 926 66 930 63 928 l 60 925 b 58 922 59 925 58 925 b 51 919 55 922 52 921 b 44 914 48 918 47 916 l 42 912 b 34 905 40 909 34 909 l 27 905 b 23 900 24 904 24 900 b 12 896 17 897 15 897 b 9 894 12 894 10 894 b 8 890 9 893 9 891 l 6 889 b 2 879 4 884 4 882 b 1 878 2 878 1 879 b 0 876 1 878 0 876 l 0 872 b 0 868 2 872 2 868 l 0 866 b 1 862 1 865 1 864 b 2 861 1 862 2 861 l 5 857 b 10 837 8 850 8 841 b 12 836 10 837 12 836 l 12 833 b 15 830 10 830 15 833 b 15 826 15 829 15 826 l 23 819 b 33 807 26 816 29 811 b 74 739 47 783 59 761 b 88 716 79 732 83 723 b 215 490 134 643 177 568 b 226 466 217 482 222 475 b 238 443 230 459 234 451 b 240 440 238 441 238 441 b 241 437 240 440 240 439 l 242 436 b 245 426 244 433 245 429 b 249 415 247 423 248 419 l 249 414 b 251 412 249 412 251 412 b 252 404 251 409 252 405 b 252 403 254 404 252 403 b 255 397 254 401 255 398 b 256 390 256 394 256 391 b 262 375 258 384 262 380 b 258 318 258 355 258 337 b 254 129 261 254 255 191 l 249 79 b 248 51 249 71 248 61 l 254 46 b 263 43 256 43 260 43 b 272 41 266 41 269 41 l 320 34 b 338 32 326 34 334 33 b 344 32 340 32 342 32 l 352 32 b 370 30 356 30 365 30 b 374 29 372 30 372 29 b 404 29 384 28 394 29 b 406 28 404 29 405 29 l 420 28 b 423 29 422 29 422 29 b 462 30 436 29 449 29 b 463 46 462 36 463 41 b 463 273 462 123 459 198 b 466 326 463 291 465 309 b 473 379 467 344 470 361 b 479 405 474 389 477 397 b 615 646 505 493 567 566 b 629 668 619 653 623 661 b 642 690 633 675 638 682 b 658 711 647 697 652 704 b 672 732 662 718 666 725 b 713 794 684 753 699 773 l 729 815 b 738 837 734 821 738 829 b 741 843 740 839 741 843 b 742 846 741 844 741 846 b 747 853 744 847 745 850 b 744 857 748 855 744 853 b 748 859 747 857 747 858 "},"E":{"x_min":-0.25,"x_max":541.953125,"ha":611,"o":"m 45 916 b 212 909 100 913 157 913 b 230 909 219 909 225 909 l 248 909 b 265 909 254 909 259 909 l 283 909 b 319 910 296 909 307 909 b 355 912 332 910 344 910 b 396 910 369 912 383 912 l 416 910 b 440 912 425 910 432 912 l 454 912 b 468 910 460 910 464 910 b 471 891 469 905 469 898 l 471 871 b 473 727 466 821 472 774 b 472 707 472 720 472 714 l 469 692 b 450 685 462 689 455 685 b 282 685 393 694 337 691 b 265 684 276 685 271 684 l 248 684 b 229 684 241 685 234 685 l 220 684 b 220 682 220 684 220 682 l 218 682 b 209 678 216 681 211 681 b 211 475 211 612 212 544 b 215 471 214 475 214 473 b 215 470 215 470 215 471 l 216 469 b 233 467 220 467 226 466 l 252 467 b 269 469 258 469 264 469 b 446 470 327 467 386 469 b 444 452 444 464 444 459 b 443 434 444 446 444 441 l 443 428 b 443 276 440 381 444 326 b 439 273 440 276 440 274 b 433 270 437 272 436 272 l 430 270 b 412 269 425 270 419 270 b 254 272 358 267 307 270 b 232 270 250 270 239 270 b 225 267 227 269 226 269 b 220 265 222 267 222 267 l 219 263 b 215 254 216 261 214 259 l 215 252 b 216 242 216 248 216 247 b 216 173 218 224 218 194 b 215 173 216 173 215 173 l 215 163 b 215 154 215 161 215 158 l 215 145 b 216 137 216 143 216 140 b 232 132 220 133 226 132 b 248 132 237 130 243 132 l 284 132 b 446 137 337 134 391 130 b 455 137 446 137 451 137 l 476 137 b 508 137 486 137 497 136 b 521 137 512 137 516 138 l 522 136 b 523 134 523 134 523 134 l 525 134 b 528 133 525 133 526 133 l 533 126 b 541 -29 533 73 541 22 b 540 -49 541 -36 540 -42 b 486 -49 522 -49 504 -49 l 468 -49 b 272 -52 403 -48 337 -52 b 259 -52 268 -52 264 -52 l 245 -52 b 193 -54 227 -52 211 -54 b 125 -54 172 -54 148 -54 l 119 -54 b 113 -55 116 -54 115 -54 l 5 -55 b 4 140 5 8 4 75 b 2 188 4 156 2 172 l 2 237 b 4 269 2 248 2 258 b 5 520 2 352 -1 435 l 5 539 b 4 557 4 545 4 552 b 2 577 2 564 2 570 b 1 595 2 582 1 589 b 0 621 1 605 0 613 b 5 748 -1 663 2 706 b 6 810 6 769 6 789 b 6 838 6 820 6 828 l 6 864 b 11 887 6 870 6 880 b 11 910 12 895 12 903 b 26 913 16 912 20 913 b 43 914 31 910 37 910 b 45 916 43 914 44 914 "},"y":{"x_min":-0.125,"x_max":748.484375,"ha":749,"o":"m 748 789 b 744 796 747 792 744 796 b 742 803 742 799 742 802 b 740 805 742 803 741 805 b 738 809 740 806 738 808 l 737 810 b 737 812 737 810 737 812 l 724 816 b 722 821 723 819 723 820 l 715 821 b 705 830 713 826 709 828 b 698 838 704 833 701 835 b 691 841 695 838 694 841 b 685 846 691 844 687 844 b 679 852 685 849 681 849 b 669 867 676 858 673 862 l 659 869 b 655 876 658 871 658 876 b 651 877 654 877 652 877 b 642 880 648 878 645 878 b 637 881 641 880 640 881 b 597 878 623 884 608 884 b 592 877 594 877 592 877 b 591 876 591 877 591 876 b 588 874 590 876 588 876 b 585 871 587 874 585 873 b 581 869 584 870 581 870 b 576 863 579 867 577 864 b 567 853 573 859 570 856 b 566 852 567 852 566 852 b 441 671 519 795 483 731 l 413 634 b 386 598 404 621 395 609 b 369 566 383 594 369 566 b 355 587 369 566 361 583 b 352 596 352 589 354 594 b 338 616 348 603 344 609 b 323 637 333 623 327 630 b 308 659 317 644 312 652 b 208 819 267 709 238 763 b 176 867 198 837 187 852 b 162 881 172 873 166 877 b 159 884 160 881 159 884 b 155 885 158 884 156 884 b 154 887 155 885 155 887 b 148 888 152 887 151 888 b 148 889 148 888 148 888 l 145 889 b 138 891 142 891 140 889 b 120 891 131 891 126 891 l 117 891 b 94 885 111 889 102 888 b 90 880 92 884 92 881 b 83 878 88 878 86 878 l 74 870 b 74 869 74 870 74 870 l 73 867 b 67 862 72 864 70 863 b 60 856 66 860 63 858 l 60 855 b 58 852 59 855 58 855 b 51 849 55 852 52 851 b 44 844 48 848 47 846 l 42 842 b 34 835 40 839 34 839 l 27 835 b 23 830 24 834 24 830 b 12 826 17 827 15 827 b 9 824 12 824 10 824 b 8 820 9 823 9 821 l 6 819 b 2 809 4 814 4 812 b 1 808 2 808 1 809 b 0 806 1 808 0 806 l 0 802 b 0 798 2 802 2 798 l 0 796 b 1 792 1 795 1 794 b 2 791 1 792 2 791 l 5 787 b 10 767 8 780 8 771 b 12 766 10 767 12 766 l 12 763 b 15 760 10 760 15 763 b 15 756 15 759 15 756 l 23 749 b 33 737 26 746 29 741 b 74 669 47 713 59 691 b 88 646 79 662 83 653 b 215 420 134 573 177 498 b 226 396 217 412 222 405 b 238 373 230 389 234 381 b 240 370 238 371 238 371 b 241 367 240 370 240 369 l 242 366 b 245 356 244 363 245 359 b 249 345 247 353 248 349 l 249 344 b 251 342 249 342 251 342 b 252 334 251 339 252 335 b 252 333 254 334 252 333 b 255 327 254 331 255 328 b 256 320 256 324 256 321 b 262 305 258 314 262 310 b 258 248 258 285 258 267 b 254 59 261 184 255 121 l 249 9 b 248 -18 249 1 248 -8 l 254 -23 b 263 -26 256 -26 260 -26 b 272 -28 266 -28 269 -28 l 320 -35 b 338 -37 326 -35 334 -36 b 344 -37 340 -37 342 -37 l 352 -37 b 370 -39 356 -39 365 -39 b 374 -40 372 -39 372 -40 b 404 -40 384 -42 394 -40 b 406 -42 404 -40 405 -40 l 420 -42 b 423 -40 422 -40 422 -40 b 462 -39 436 -40 449 -40 b 463 -23 462 -33 463 -28 b 463 203 462 53 459 128 b 466 256 463 221 465 239 b 473 309 467 274 470 291 b 479 335 474 319 477 327 b 615 576 505 423 567 496 b 629 598 619 583 623 591 b 642 620 633 605 638 612 b 658 641 647 627 652 634 b 672 662 662 648 666 655 b 713 724 684 683 699 703 l 729 745 b 738 767 734 751 738 759 b 741 773 740 769 741 773 b 742 776 741 774 741 776 b 747 783 744 777 745 780 b 744 787 748 785 744 783 b 748 789 747 787 747 788 "},"„":{"x_min":0.03125,"x_max":212.890625,"ha":282,"o":"m 79 -25 b 72 -59 79 -37 77 -48 l 72 -61 b 68 -77 72 -66 71 -72 l 66 -79 b 62 -86 65 -82 64 -84 b 54 -94 61 -90 57 -93 b 52 -96 54 -94 52 -94 b 40 -105 48 -98 44 -101 b 33 -109 38 -107 36 -108 b 27 -121 30 -112 29 -115 l 30 -122 b 64 -125 38 -126 54 -126 b 73 -123 66 -123 71 -123 l 86 -119 l 97 -115 b 109 -109 101 -114 105 -112 b 121 -104 114 -108 118 -105 b 175 -58 140 -89 161 -79 l 180 -48 b 212 69 201 -12 204 28 b 211 76 212 72 211 73 b 210 92 211 81 210 87 b 201 137 207 108 203 123 b 189 151 199 144 193 147 b 176 165 183 155 179 158 b 169 166 175 165 172 165 b 168 169 169 166 169 167 b 167 170 167 169 165 169 b 164 166 161 170 164 169 b 153 173 161 170 154 170 b 119 169 143 166 128 177 b 100 172 115 172 111 174 b 89 167 97 172 94 169 b 59 163 82 166 68 166 b 55 163 58 163 55 165 b 29 160 51 160 30 162 b 25 159 27 158 25 159 b 16 151 22 158 16 151 b 13 130 13 144 15 137 b 1 38 2 98 0 73 b 0 27 1 35 0 31 b 1 8 0 20 0 13 b 76 9 5 -4 66 16 b 77 -1 76 5 77 2 b 79 -8 77 -4 77 -5 l 79 -16 l 79 -25 "},"g":{"x_min":-0.3125,"x_max":913.9375,"ha":983,"o":"m 449 895 b 784 714 584 896 700 813 b 787 709 786 713 786 710 l 788 707 b 788 706 788 707 788 706 b 791 702 791 705 791 703 l 793 700 b 794 698 794 699 794 698 b 794 689 795 696 797 692 b 793 687 794 688 793 688 b 788 682 793 685 790 684 b 787 680 788 681 787 680 l 783 675 b 781 673 783 675 781 674 b 776 666 779 671 777 668 b 773 663 775 666 773 664 b 772 660 772 663 773 662 b 769 657 770 659 770 659 b 768 657 769 657 769 657 l 768 655 b 766 653 768 655 766 655 b 763 649 765 652 763 650 b 762 648 763 649 762 649 b 758 643 761 648 758 645 b 755 641 758 643 756 642 l 755 638 b 752 637 754 638 754 638 l 750 632 b 748 631 748 631 748 632 b 745 628 748 630 745 630 l 743 624 b 737 618 741 623 738 621 b 731 612 736 617 733 614 b 729 609 730 612 730 610 b 723 603 727 607 725 606 b 720 599 723 602 722 600 b 719 598 720 599 719 599 b 715 593 719 596 716 595 b 713 591 715 593 715 591 b 708 584 712 588 711 585 b 697 587 704 588 700 585 b 695 588 695 587 695 588 l 691 591 b 687 595 690 592 690 593 b 686 595 687 596 686 595 l 686 598 b 676 605 681 600 679 602 b 673 607 674 606 674 607 b 669 612 672 609 670 610 l 655 621 b 654 623 655 623 655 623 b 652 625 652 623 652 624 b 649 625 651 625 651 624 b 648 627 649 625 649 627 b 619 641 638 632 629 637 b 588 650 609 645 599 648 b 556 663 579 656 568 659 b 523 670 545 666 534 668 b 493 675 513 673 502 674 b 461 675 481 677 472 677 b 365 650 429 673 395 664 l 341 638 b 211 431 259 603 227 514 b 205 406 209 423 206 415 l 197 348 b 195 329 197 341 195 336 b 198 279 195 312 195 295 l 202 255 b 283 126 208 195 240 152 b 311 112 292 120 301 116 b 615 193 412 76 543 116 b 626 213 619 199 623 206 b 630 237 627 222 630 229 b 622 243 630 238 626 243 b 574 238 605 243 590 241 b 554 240 567 238 561 238 b 530 256 540 237 531 244 b 527 268 530 258 527 265 b 524 287 526 274 526 280 l 524 290 b 524 327 523 298 524 315 b 523 351 524 336 523 342 b 520 385 522 363 520 373 b 524 416 520 397 520 408 l 524 417 b 534 424 524 420 531 423 b 538 426 536 426 537 426 b 544 427 540 426 541 427 b 567 429 549 429 559 429 b 730 429 620 429 676 429 l 822 429 b 887 429 844 430 866 433 l 890 429 b 904 423 895 429 900 426 l 911 366 b 912 352 911 360 912 358 b 913 348 912 351 912 349 l 913 313 b 912 309 912 312 912 311 b 911 287 912 302 912 294 b 909 276 911 283 909 280 b 904 245 909 266 905 255 b 834 240 881 244 858 241 b 820 238 829 240 825 240 l 819 238 b 815 237 818 238 818 237 l 812 237 b 800 229 808 236 804 233 l 800 208 b 802 19 805 145 806 83 l 802 -1 b 802 -83 801 -29 801 -56 b 788 -81 798 -84 794 -81 b 736 -81 766 -81 759 -80 b 713 -81 730 -83 720 -81 b 681 -83 704 -83 693 -83 l 665 -83 b 649 -80 659 -81 651 -83 b 648 -55 645 -75 647 -63 b 651 -33 649 -48 651 -40 b 638 -6 651 -23 652 0 b 461 -65 584 -38 523 -59 b 438 -66 452 -65 445 -66 b 416 -68 431 -66 423 -66 b 222 -51 352 -79 283 -76 b 166 -15 202 -41 183 -30 b 38 168 101 27 63 97 b 37 174 38 170 38 173 l 37 176 b 36 179 36 177 36 177 b 33 187 36 180 34 184 b 31 191 33 187 31 190 l 31 194 b 30 198 30 195 30 197 l 26 212 b 23 224 24 216 24 220 l 22 230 b 8 447 -1 301 -7 374 b 17 497 11 463 13 480 l 26 520 b 33 544 29 527 30 535 l 54 599 b 79 653 61 617 69 635 b 108 702 88 670 98 687 b 174 777 127 728 149 753 b 370 884 230 827 297 867 b 406 891 383 887 394 889 b 445 895 419 893 433 893 b 449 895 447 895 448 893 "},"–":{"x_min":8,"x_max":662.109375,"ha":663,"o":"m 20 356 l 17 356 l 9 473 l 8 480 l 12 506 l 648 506 l 651 488 l 651 445 l 655 448 l 662 348 l 657 344 l 178 344 l 180 343 l 27 329 l 20 356 "},"e":{"x_min":-0.25,"x_max":541.953125,"ha":611,"o":"m 45 875 b 212 868 100 872 157 872 b 230 868 219 868 225 868 l 248 868 b 265 868 254 868 259 868 l 283 868 b 319 869 296 868 307 868 b 355 871 332 869 344 869 b 396 869 369 871 383 871 l 416 869 b 440 871 425 869 432 871 l 454 871 b 468 869 460 869 464 869 b 471 850 469 864 469 857 l 471 830 b 473 686 466 780 472 733 b 472 666 472 679 472 673 l 469 651 b 450 644 462 648 455 644 b 282 644 393 653 337 650 b 265 643 276 644 271 643 l 248 643 b 229 643 241 644 234 644 l 220 643 b 220 641 220 643 220 641 l 218 641 b 209 637 216 640 211 640 b 211 434 211 571 212 503 b 215 430 214 434 214 432 b 215 429 215 429 215 430 l 216 428 b 233 426 220 426 226 425 l 252 426 b 269 428 258 428 264 428 b 446 429 327 426 386 428 b 444 411 444 423 444 418 b 443 393 444 405 444 400 l 443 387 b 443 234 440 340 444 284 b 439 231 440 234 440 233 b 433 229 437 230 436 230 l 430 229 b 412 227 425 229 419 229 b 254 230 358 226 307 229 b 232 229 250 229 239 229 b 225 226 227 227 226 227 b 220 223 222 226 222 226 l 219 222 b 215 212 216 219 214 217 l 215 211 b 216 201 216 206 216 205 b 216 131 218 183 218 152 b 215 131 216 131 215 131 l 215 122 b 215 112 215 119 215 116 l 215 103 b 216 95 216 101 216 98 b 232 90 220 91 226 90 b 248 90 237 88 243 90 l 284 90 b 446 95 337 92 391 88 b 455 95 446 95 451 95 l 476 95 b 508 95 486 95 497 94 b 521 95 512 95 516 96 l 522 94 b 523 92 523 92 523 92 l 525 92 b 528 91 525 91 526 91 l 533 84 b 541 -71 533 31 541 -19 b 540 -91 541 -78 540 -84 b 486 -91 522 -91 504 -91 l 468 -91 b 272 -94 403 -90 337 -94 b 259 -94 268 -94 264 -94 l 245 -94 b 193 -96 227 -94 211 -96 b 125 -96 172 -96 148 -96 l 119 -96 b 113 -97 116 -96 115 -96 l 5 -97 b 4 98 5 -33 4 33 b 2 147 4 115 2 130 l 2 195 b 4 227 2 206 2 216 b 5 479 2 311 -1 394 l 5 498 b 4 516 4 504 4 511 b 2 536 2 523 2 529 b 1 554 2 541 1 548 b 0 580 1 564 0 572 b 5 707 -1 622 2 665 b 6 769 6 728 6 748 b 6 797 6 779 6 787 l 6 823 b 11 846 6 829 6 839 b 11 869 12 854 12 862 b 26 872 16 871 20 872 b 43 873 31 869 37 869 b 45 875 43 873 44 873 "},"J":{"x_min":-0.234375,"x_max":556.984375,"ha":592,"o":"m 124 358 l 124 364 b 119 366 123 365 120 365 l 115 371 b 96 373 109 371 102 372 b 84 376 92 373 88 375 b 80 376 83 376 83 376 b 69 379 77 378 71 378 b 59 382 66 379 62 380 b 49 384 56 383 52 383 l 45 386 b 41 387 44 387 44 386 l 38 387 b 23 384 34 387 28 384 b 20 382 23 382 20 383 l 6 378 b 1 366 3 375 2 371 l 0 364 b 1 359 2 364 1 361 b 5 343 2 354 5 348 b 10 169 0 284 5 228 b 13 151 12 164 12 157 b 56 40 17 112 30 73 l 62 40 b 70 26 62 33 70 33 b 77 26 73 26 76 28 b 115 -1 88 14 103 11 b 123 0 117 -2 123 3 b 140 -12 126 -8 135 -9 b 202 -34 158 -21 181 -27 b 224 -37 209 -35 217 -35 l 226 -38 b 228 -39 227 -39 227 -39 l 230 -41 b 246 -41 234 -44 240 -39 b 249 -42 248 -41 249 -42 b 253 -44 251 -42 252 -44 b 259 -46 255 -45 258 -46 l 283 -51 b 295 -52 288 -51 292 -52 b 296 -53 296 -52 295 -53 b 308 -55 299 -55 303 -55 b 320 -56 312 -56 317 -56 b 351 -58 328 -58 342 -58 l 359 -53 b 378 -49 365 -52 371 -51 l 384 -49 b 384 -48 384 -49 384 -48 l 389 -48 b 391 -45 389 -48 391 -46 b 392 -44 391 -45 392 -45 l 395 -44 l 399 -44 b 412 -37 403 -39 408 -39 b 414 -35 413 -35 414 -35 b 417 -34 416 -35 417 -34 b 419 -33 419 -34 419 -34 b 421 -31 420 -33 421 -31 b 423 -31 421 -30 423 -31 b 427 -26 426 -30 426 -27 l 428 -26 b 428 -23 430 -24 428 -24 b 434 -20 431 -21 432 -20 b 437 -16 435 -19 437 -17 b 449 -5 441 -13 446 -8 b 453 0 452 -2 452 -1 b 460 1 455 1 459 0 b 463 10 462 3 462 7 b 470 15 464 12 467 14 b 471 21 471 16 470 19 b 477 19 473 19 474 19 b 480 30 478 23 478 28 b 481 32 478 32 481 32 b 482 36 482 33 482 35 b 485 39 484 36 484 37 b 487 40 485 40 487 40 b 488 44 487 43 488 43 l 491 47 b 492 48 491 48 491 48 l 492 50 b 492 53 494 51 492 51 b 495 54 494 53 494 54 l 495 57 b 498 64 496 58 496 61 b 498 65 499 64 498 65 b 499 66 499 65 499 66 l 500 66 b 500 68 500 66 499 68 b 503 72 500 71 502 71 b 527 153 514 98 523 125 l 531 182 b 537 272 534 211 535 241 l 537 301 b 538 407 540 337 540 372 l 538 433 b 537 459 538 443 538 451 b 551 759 534 561 542 659 l 554 787 b 555 812 554 795 554 804 b 555 837 555 820 555 829 l 555 857 b 556 876 555 864 556 869 b 556 901 556 886 556 894 l 556 914 b 555 920 555 915 558 916 b 549 920 554 918 551 920 b 547 920 548 920 548 920 b 542 920 544 920 544 920 l 538 920 b 530 923 535 922 533 922 b 523 922 527 922 524 922 b 514 923 520 922 517 923 b 507 922 513 923 510 923 b 498 925 505 923 500 925 b 494 927 496 926 495 927 b 492 926 494 927 492 926 l 491 927 b 488 926 489 927 489 926 l 487 927 b 480 927 484 927 481 927 b 474 929 477 927 474 929 b 473 930 474 929 474 930 l 471 929 b 463 933 469 930 463 932 b 459 934 463 933 460 934 b 457 933 459 934 459 933 b 456 936 457 934 457 934 b 452 937 453 936 453 937 b 448 937 452 937 449 939 b 442 936 446 939 444 936 b 437 939 441 936 439 937 b 434 936 437 937 435 936 b 403 936 426 926 412 927 b 401 937 402 936 402 937 b 398 939 401 937 399 937 l 394 936 b 392 934 392 936 392 934 b 389 934 391 934 389 934 l 387 934 b 366 933 383 933 374 933 b 360 934 363 930 363 934 b 363 929 358 932 363 932 b 349 929 359 929 352 926 b 347 926 347 929 348 926 b 341 923 345 923 342 925 b 337 920 339 923 339 920 b 337 915 337 919 338 916 b 339 901 333 911 338 905 b 337 895 339 900 338 897 b 335 870 337 887 335 879 b 333 845 334 862 334 854 b 331 823 333 837 333 830 b 330 800 331 815 331 808 b 327 741 330 780 328 761 b 326 714 327 732 326 722 b 324 686 324 704 324 694 b 323 657 323 676 323 666 b 321 627 321 647 321 637 l 321 600 b 320 571 320 590 320 580 l 320 543 b 321 516 320 534 320 525 l 321 486 b 323 457 321 476 323 466 l 323 428 b 310 210 324 357 327 280 b 299 175 308 198 303 186 b 258 128 290 155 288 119 b 227 158 242 132 231 143 l 223 169 b 221 185 223 175 221 180 b 220 196 220 189 220 191 b 219 250 219 214 219 232 b 219 265 219 254 219 259 l 219 280 b 217 291 217 284 217 287 b 202 318 215 301 210 311 b 201 322 202 321 202 321 b 195 323 199 322 195 321 b 187 330 191 323 191 329 b 180 330 185 332 183 330 b 174 336 180 333 178 336 b 173 341 174 337 174 341 b 158 346 167 343 160 341 b 153 344 155 347 156 343 b 146 348 151 346 148 347 b 130 358 138 350 134 354 l 124 358 "},"^":{"x_min":0,"x_max":717,"ha":717,"o":"m 369 709 b 382 678 373 698 376 687 l 398 651 b 416 624 405 642 411 634 b 432 602 422 617 426 609 b 521 476 461 559 491 517 l 536 476 b 541 477 537 477 540 477 l 547 477 b 578 484 557 480 568 481 b 646 505 601 490 623 497 b 664 512 651 508 657 509 b 671 515 665 513 668 515 b 676 517 671 516 675 517 b 707 531 686 522 696 527 b 717 537 710 533 714 535 l 697 562 b 679 587 691 570 685 578 l 655 619 b 461 906 583 726 523 794 l 454 906 b 439 927 454 917 446 924 b 421 950 433 935 426 942 b 405 975 414 957 405 964 b 398 984 404 977 401 980 b 386 995 394 991 390 991 b 368 1019 383 996 372 1019 l 365 1014 b 361 1013 364 1012 362 1014 b 358 1007 359 1012 359 1009 b 351 1005 357 1006 352 1006 b 347 995 350 1002 348 998 l 336 991 b 329 981 332 989 333 982 b 268 906 316 977 276 916 b 241 876 258 896 250 887 l 218 846 b 195 814 211 835 202 826 b 170 783 187 805 179 794 b 0 535 127 723 43 595 b 9 533 2 534 6 534 b 87 498 37 524 62 512 b 183 454 116 481 152 472 b 345 690 223 510 302 635 b 351 698 348 692 350 695 l 358 698 b 361 702 359 699 361 701 l 369 709 "},"q":{"x_min":3.984375,"x_max":828.9375,"ha":899,"o":"m 827 483 b 812 587 824 518 820 552 l 808 607 b 802 632 806 615 803 623 b 792 657 799 640 795 648 b 646 882 765 741 708 816 l 626 900 b 602 915 619 905 610 909 b 563 932 590 921 577 927 b 523 946 551 937 537 941 b 498 947 515 946 506 947 b 471 948 490 948 481 948 b 417 950 453 950 435 951 b 360 944 398 950 380 947 b 338 939 353 943 346 941 b 313 932 330 937 321 934 b 290 921 305 928 296 925 b 116 734 215 879 153 812 l 105 714 b 81 669 98 698 90 684 b 67 634 76 658 71 647 b 60 618 66 629 63 623 b 53 603 59 612 56 607 b 49 583 51 597 49 590 b 41 565 46 577 44 571 l 33 546 b 23 521 30 537 26 529 b 8 319 1 455 1 387 b 10 294 8 311 9 302 b 101 58 17 209 46 123 b 119 40 106 53 113 46 l 140 23 b 176 -6 151 14 163 3 b 215 -34 188 -16 202 -26 b 235 -45 221 -38 228 -42 b 258 -55 242 -49 251 -52 b 281 -62 266 -58 273 -60 b 310 -67 291 -65 301 -66 b 340 -70 320 -69 330 -70 b 367 -72 349 -70 358 -72 b 501 -67 412 -74 456 -73 b 520 -66 508 -66 513 -66 b 540 -63 527 -66 534 -66 l 548 -72 b 601 -130 570 -102 581 -98 b 628 -130 606 -141 617 -135 b 637 -128 631 -128 634 -130 b 735 -59 673 -109 703 -84 b 746 -48 740 -55 744 -51 l 751 -44 b 753 -42 752 -42 752 -42 b 755 -40 753 -42 753 -41 b 758 -35 756 -38 758 -37 b 762 -34 759 -34 760 -34 b 773 -20 766 -28 770 -24 b 780 -12 776 -19 780 -16 b 778 -9 778 -12 780 -10 b 776 1 778 -5 777 -2 b 731 61 745 29 758 30 b 724 73 728 65 727 69 l 717 86 b 716 87 717 87 716 87 b 712 97 715 90 712 93 b 715 104 713 100 715 103 b 733 123 721 109 727 116 b 748 144 738 130 744 137 b 759 169 752 153 756 161 b 769 194 762 178 766 186 b 803 278 784 221 795 248 b 812 307 808 287 809 297 b 819 332 815 315 816 323 b 828 409 823 358 826 383 b 828 436 828 419 828 428 l 828 459 b 827 483 828 466 827 475 m 416 107 b 353 100 395 101 374 98 b 333 103 346 100 340 101 b 312 109 326 104 319 107 b 292 119 305 112 298 116 b 210 240 240 148 235 187 b 208 255 209 244 209 250 b 205 269 206 259 206 265 b 202 291 205 278 202 283 l 202 294 b 202 319 203 300 202 312 b 203 355 202 332 202 343 b 295 629 217 451 249 546 b 312 654 301 639 306 647 b 330 678 317 662 323 671 b 352 698 337 684 344 691 b 378 715 360 704 369 709 b 403 729 387 721 395 725 b 431 739 413 732 421 736 l 435 739 b 445 741 438 740 442 741 b 459 744 448 741 453 744 b 490 736 470 744 481 740 l 502 728 b 508 723 503 726 505 725 b 509 723 508 723 509 723 l 524 709 b 526 707 526 709 526 707 b 528 704 527 705 528 705 b 534 700 530 703 533 701 l 553 679 b 569 662 559 673 565 668 b 584 643 574 655 580 650 b 612 601 595 630 605 616 b 624 580 616 594 620 587 l 633 557 b 651 411 651 511 653 459 b 649 393 651 405 651 398 b 646 364 649 383 648 373 b 641 336 645 354 644 344 l 637 318 b 628 282 634 305 631 293 l 624 264 b 619 247 621 258 620 253 b 616 237 617 244 617 240 b 609 232 615 234 612 232 b 602 237 608 230 605 234 b 599 241 602 239 601 240 l 595 250 b 531 326 584 264 544 314 l 526 332 b 523 330 524 332 524 326 b 510 328 517 329 513 329 b 498 321 506 325 502 322 b 494 315 498 318 495 318 b 487 314 492 314 490 315 b 485 311 487 314 487 312 l 483 311 b 481 308 483 309 483 308 b 478 307 481 307 480 307 b 477 304 478 307 478 305 l 474 304 b 473 301 474 303 474 301 b 470 300 473 301 471 301 b 469 297 470 300 470 298 l 466 297 b 465 294 466 296 466 294 b 462 293 465 294 463 294 b 460 291 462 293 462 291 b 458 290 460 290 459 290 b 455 286 456 289 456 287 b 451 283 452 284 452 283 b 449 283 451 282 449 283 b 444 278 448 280 446 279 l 440 273 b 430 265 437 272 433 268 b 426 262 428 265 427 264 l 424 261 b 421 259 423 259 423 259 b 417 254 420 258 419 255 l 413 250 b 413 248 413 250 413 248 l 410 244 b 408 241 409 244 408 243 b 406 239 408 241 406 240 b 402 234 406 237 403 237 l 402 233 b 399 230 401 233 401 232 l 384 211 b 376 203 381 208 380 205 b 371 198 376 201 373 200 b 367 194 370 196 369 196 b 362 184 366 191 362 187 b 363 179 362 182 362 180 b 365 178 363 179 365 179 b 366 176 366 178 366 176 b 373 171 367 175 370 173 b 413 114 377 164 409 121 l 416 107 "},"b":{"x_min":45.4375,"x_max":789.109375,"ha":833,"o":"m 787 210 b 708 429 787 289 764 370 b 701 436 704 430 704 434 b 698 440 701 437 700 438 b 689 450 696 444 691 447 b 686 452 687 451 687 452 b 684 454 686 454 684 454 b 680 456 683 455 682 456 b 679 462 680 459 679 461 b 669 469 675 463 671 465 b 662 474 668 470 661 472 b 664 480 664 476 664 479 l 668 484 b 682 516 672 493 680 509 b 721 637 700 554 715 595 b 723 663 722 645 722 655 b 719 720 723 681 723 701 b 715 745 719 728 718 737 b 708 769 714 753 711 762 l 695 792 b 682 814 691 799 686 806 b 666 837 677 823 672 830 b 627 881 655 853 643 867 b 584 912 613 892 599 903 b 562 926 577 917 570 921 l 538 937 b 486 951 521 942 503 946 b 436 959 470 955 453 957 b 410 962 426 960 418 960 b 385 963 401 962 393 962 b 106 956 291 966 199 962 b 88 955 101 956 95 957 b 66 949 80 953 72 952 b 60 948 63 949 62 948 b 56 946 59 946 57 946 b 50 944 55 945 53 944 b 45 926 49 937 45 931 b 48 762 53 870 45 816 b 49 744 48 756 48 749 b 50 726 49 737 50 731 b 52 710 50 720 52 716 b 55 669 53 696 53 683 b 66 545 57 627 63 587 b 70 494 67 529 69 509 l 70 490 b 71 468 70 483 71 473 b 73 455 71 463 73 458 b 74 420 73 443 73 430 b 74 398 74 413 73 407 b 77 291 77 365 74 325 b 77 268 77 283 75 276 b 78 241 77 259 77 248 b 78 233 78 239 78 236 l 78 228 b 79 201 79 219 79 210 b 83 172 80 192 82 179 l 83 168 b 84 149 83 161 84 155 b 88 126 86 142 87 133 l 88 122 b 88 118 89 121 88 119 b 89 117 88 118 89 117 l 89 111 b 106 -40 94 90 102 -20 b 109 -54 106 -45 107 -49 b 112 -66 107 -59 110 -66 b 135 -66 120 -63 127 -63 b 169 -70 147 -69 158 -70 b 296 -77 211 -72 255 -65 b 337 -81 309 -80 323 -81 b 499 -69 392 -86 446 -79 b 518 -66 506 -68 511 -68 l 538 -62 b 576 -52 550 -59 563 -56 l 595 -48 b 621 -41 603 -45 612 -44 b 690 -12 644 -31 667 -23 l 706 -1 b 747 33 725 7 737 19 b 771 85 758 48 766 66 b 779 123 775 97 777 110 b 782 143 780 129 782 136 l 786 173 b 789 203 787 183 789 193 b 787 210 787 204 787 207 m 274 516 b 271 519 274 517 271 519 b 268 524 270 520 270 522 b 268 538 267 526 268 533 l 264 590 b 263 615 263 598 263 606 b 260 638 262 623 262 630 l 255 669 b 252 687 253 676 253 680 l 250 692 b 248 710 249 698 248 703 b 245 735 246 719 245 727 b 246 738 246 735 246 737 b 252 744 248 739 250 739 b 270 748 257 744 263 751 l 276 752 b 289 751 280 752 285 751 l 311 751 b 328 751 317 751 322 751 l 346 751 b 366 749 353 751 360 751 b 389 748 373 749 382 748 b 427 741 401 746 414 744 b 567 623 485 726 570 695 b 562 601 570 615 567 606 b 562 599 566 605 562 601 b 544 579 556 592 551 584 l 530 566 b 514 556 524 563 520 559 l 495 548 b 294 519 431 522 359 530 b 292 517 292 517 292 517 l 286 517 l 274 516 m 629 192 b 471 124 593 139 524 140 b 468 121 470 122 470 122 b 466 121 467 121 466 122 b 461 119 464 119 463 119 b 449 117 459 118 453 118 b 439 115 446 117 443 117 b 422 114 433 115 428 114 b 407 110 418 112 411 111 l 380 106 b 371 106 378 106 375 104 b 369 107 371 107 371 107 b 364 106 368 107 366 106 l 358 106 b 319 106 347 104 332 104 b 316 106 318 106 318 106 l 313 106 b 298 107 308 107 302 106 b 295 107 298 108 295 107 l 295 108 b 292 110 295 108 294 108 b 286 117 288 111 287 112 l 286 119 b 284 119 286 119 284 119 l 284 139 b 286 204 286 157 284 186 b 286 222 286 211 287 216 b 286 226 286 223 287 225 b 284 229 286 226 284 228 b 286 235 286 230 286 232 b 286 276 287 247 286 261 b 287 296 287 280 287 289 b 288 298 287 296 288 297 b 291 301 290 298 290 301 b 294 301 291 301 294 301 l 294 304 b 295 304 295 304 295 302 b 297 305 297 304 295 305 b 306 309 298 307 304 308 b 311 311 308 309 309 309 b 318 312 313 312 316 312 l 318 314 b 323 315 320 314 322 315 b 340 321 329 318 334 319 b 358 326 347 323 353 325 b 376 330 364 327 369 329 l 394 334 b 480 348 421 340 450 348 b 496 347 485 348 491 348 b 517 344 503 347 510 345 b 537 337 524 341 531 340 b 573 315 549 330 562 323 b 588 301 579 311 583 307 b 601 287 593 297 597 293 b 608 273 604 283 607 278 b 618 246 612 264 615 255 b 629 192 622 229 623 210 "},"D":{"x_min":0,"x_max":761.578125,"ha":972,"o":"m 183 959 b 267 949 211 957 239 953 l 287 945 b 308 942 294 945 301 943 l 331 936 b 354 929 339 935 346 932 b 379 922 362 927 371 925 b 403 913 386 918 394 915 b 460 889 422 906 442 897 b 511 861 478 881 494 872 b 560 825 528 852 543 839 b 615 771 579 809 599 790 b 633 752 622 766 628 759 b 665 710 644 738 656 724 b 681 688 671 702 676 695 b 694 664 686 679 690 672 b 710 639 700 656 706 647 l 722 613 b 742 566 731 597 736 581 b 753 516 747 549 750 532 b 756 492 754 509 756 500 b 757 464 756 484 757 474 b 760 434 758 454 758 443 b 761 402 760 423 761 411 l 761 373 b 756 309 761 352 758 330 l 750 282 b 694 135 736 234 721 180 b 676 109 689 125 683 117 b 656 86 669 100 662 93 b 582 31 633 64 608 46 b 554 17 572 27 564 23 b 532 7 547 14 540 10 b 510 -1 525 5 518 0 b 485 -13 501 -6 493 -8 l 460 -21 b 398 -38 440 -28 419 -33 b 336 -49 378 -42 357 -46 b 95 -54 257 -60 176 -53 l 65 -54 b 38 -53 58 -54 47 -53 b 37 -32 37 -46 37 -39 b 31 -3 34 -22 33 -13 b 27 52 30 14 27 34 b 26 109 26 71 26 91 l 26 159 b 23 211 26 177 25 193 b 20 260 22 228 20 243 l 20 289 b 19 317 19 299 19 309 b 13 418 18 352 15 385 b 11 468 12 435 12 452 b 9 485 11 474 11 479 l 9 503 b 0 835 8 616 5 725 b 0 860 0 843 0 852 l 0 913 b 2 931 6 914 2 924 b 6 932 4 931 5 932 b 11 936 9 932 8 936 b 159 956 58 950 109 950 b 183 959 166 957 181 953 m 201 736 b 201 735 201 736 201 735 b 197 731 199 735 199 732 l 197 729 b 196 729 197 729 196 729 l 196 721 b 188 681 193 709 190 692 b 187 666 188 677 187 668 b 186 653 187 659 186 656 b 184 618 186 641 184 629 l 184 584 b 186 467 184 545 184 506 l 186 445 b 188 253 190 381 188 317 b 187 227 188 246 188 236 b 187 199 188 218 187 207 b 191 180 188 192 191 185 l 191 175 b 196 164 193 171 194 168 b 197 162 196 162 197 162 b 199 159 199 160 197 159 b 200 157 199 159 200 157 l 201 157 b 208 156 203 156 206 156 b 208 157 208 156 208 157 l 221 157 b 224 156 221 156 222 155 b 226 157 225 156 225 157 l 228 157 b 229 156 228 156 229 156 b 235 157 232 155 233 157 b 236 159 235 157 236 159 l 239 159 b 294 162 257 159 275 160 l 325 166 b 356 170 335 167 346 168 l 387 174 b 418 182 397 177 408 180 l 449 195 b 476 211 458 200 468 206 b 518 252 492 224 506 236 l 533 273 b 546 295 537 280 543 288 b 568 349 554 313 561 331 l 575 377 b 582 406 578 386 581 396 b 585 435 583 416 583 425 b 572 524 583 464 579 495 b 562 552 569 534 565 542 b 551 578 560 561 556 570 b 539 603 549 586 543 595 b 521 628 533 613 526 621 b 499 650 514 636 507 645 b 232 741 426 716 326 736 b 212 741 226 742 217 741 l 207 736 l 201 736 "},"z":{"x_min":0,"x_max":772,"ha":772,"o":"m 30 836 b 29 834 30 834 30 834 b 25 831 27 834 26 833 b 23 811 22 827 23 819 b 20 800 22 808 22 804 b 23 758 20 787 22 772 b 29 711 25 738 23 723 l 29 709 b 30 705 30 708 30 706 b 31 702 31 705 31 704 b 33 701 31 702 33 702 b 34 695 33 698 34 697 l 34 693 b 37 673 36 688 36 680 l 41 652 b 45 640 43 648 44 644 l 51 627 b 61 613 54 619 54 616 l 62 612 b 66 611 63 612 66 612 b 81 609 68 609 77 609 b 312 590 158 602 234 590 b 337 588 320 588 329 588 b 362 587 345 588 354 587 b 380 584 367 586 374 586 b 372 566 379 576 376 572 b 370 565 370 566 370 566 b 366 562 369 565 367 563 b 365 561 366 561 365 562 b 361 558 363 561 362 559 b 359 556 361 558 361 556 b 358 555 359 556 358 556 b 352 550 355 554 354 552 b 340 536 348 545 344 541 b 329 520 336 531 333 526 l 316 506 b 305 494 313 502 309 498 b 291 481 299 490 295 486 b 272 463 284 476 277 469 l 233 425 b 213 405 226 418 219 412 b 31 222 151 345 98 276 b 18 206 27 216 22 212 b 16 205 16 206 16 206 l 13 202 b 9 197 12 200 11 200 b 8 197 9 197 8 197 l 8 194 b 5 193 6 194 6 193 b 4 191 5 191 5 191 l 2 186 b 1 184 2 184 1 184 b 0 177 1 181 1 179 l 0 162 b 1 158 1 161 0 159 b 2 150 1 155 1 152 l 2 145 b 4 145 2 145 4 145 b 6 137 4 141 5 138 b 6 136 6 137 5 136 b 13 116 9 127 12 122 b 18 108 15 113 16 109 l 18 105 b 19 99 19 102 19 101 b 18 62 20 88 16 77 b 22 56 19 59 22 58 b 25 49 23 55 25 51 b 27 45 26 48 26 47 l 27 44 b 29 40 27 42 27 41 b 34 13 30 31 31 23 b 36 6 34 10 36 9 l 36 0 b 38 -11 37 -4 37 -8 b 40 -22 38 -15 38 -18 b 41 -29 40 -25 41 -29 l 41 -33 b 43 -34 41 -34 43 -34 b 45 -40 44 -37 44 -39 l 45 -43 b 49 -46 47 -43 48 -44 b 52 -47 49 -47 51 -47 b 56 -50 54 -50 55 -48 b 58 -50 56 -50 58 -50 b 66 -53 61 -51 63 -53 b 80 -55 70 -54 76 -55 b 88 -57 83 -57 86 -57 b 95 -58 91 -58 93 -58 b 126 -62 105 -61 116 -62 b 145 -61 133 -62 140 -62 b 270 -60 187 -58 229 -58 l 297 -60 b 527 -61 373 -65 450 -57 b 545 -61 532 -61 539 -61 l 564 -61 b 590 -62 572 -61 580 -62 b 615 -64 598 -62 607 -64 b 640 -66 623 -65 632 -65 b 666 -69 649 -66 657 -68 b 674 -68 669 -69 673 -71 b 680 -66 677 -68 678 -68 b 683 -65 681 -66 681 -65 l 685 -65 b 687 -62 685 -64 687 -64 l 690 -62 b 691 -60 691 -61 691 -60 b 694 -60 692 -58 692 -60 b 697 -55 694 -58 695 -57 b 705 -48 699 -53 702 -51 l 705 -46 b 708 -44 706 -46 708 -46 b 715 -37 710 -41 712 -39 b 715 -28 715 -33 713 -30 b 716 -26 715 -26 716 -26 b 720 -22 717 -23 719 -22 l 722 -21 b 726 -18 723 -19 724 -18 b 728 -14 727 -16 728 -15 b 733 -5 731 -12 731 -8 b 737 -2 734 -5 735 -4 l 742 2 b 745 5 742 2 744 3 l 751 9 b 759 13 753 10 758 12 b 765 19 762 15 762 17 b 770 24 766 22 769 22 b 772 27 767 24 770 29 l 772 31 b 770 35 770 33 770 34 l 770 40 b 769 49 769 42 770 48 b 769 52 767 49 769 51 b 766 58 767 54 767 56 b 765 61 766 61 765 61 b 763 65 765 63 765 65 l 763 67 b 760 74 763 69 760 73 b 758 79 760 76 759 77 b 755 86 756 81 756 84 b 751 94 753 88 752 93 b 751 95 751 94 751 94 b 749 97 749 95 749 97 b 748 98 749 98 748 98 b 748 101 747 99 748 101 b 747 101 748 101 747 101 b 745 104 747 104 745 104 b 744 106 745 104 745 105 b 742 111 744 108 742 109 l 740 113 b 738 116 740 115 738 115 l 738 118 b 737 119 737 118 738 119 b 735 120 737 120 735 120 l 734 123 b 731 129 733 126 733 127 b 716 144 726 136 722 140 b 676 151 703 148 690 150 b 462 154 603 158 533 144 b 435 155 453 155 445 155 b 385 156 419 156 402 156 b 360 158 377 156 369 158 b 312 161 344 158 329 159 b 288 162 304 161 295 161 l 283 162 b 279 163 280 163 280 163 b 270 166 276 165 272 165 b 279 180 270 173 274 176 l 291 191 b 309 216 297 201 302 209 b 459 366 362 268 409 316 b 477 384 464 372 470 379 b 495 402 482 391 488 397 l 511 422 b 526 440 515 427 521 433 l 543 456 b 560 475 549 462 554 468 b 576 491 565 480 571 486 l 594 512 b 612 533 601 519 607 525 l 625 543 b 626 545 626 544 626 544 l 628 547 b 629 550 629 548 628 548 b 630 555 629 552 629 554 b 632 556 630 556 632 556 b 633 559 632 558 632 559 b 635 561 633 559 635 561 l 635 563 b 639 566 636 565 637 566 l 639 569 b 647 581 643 573 647 577 l 663 700 b 646 773 667 726 663 752 b 630 788 642 779 636 784 b 628 790 629 790 628 790 b 625 793 626 791 626 793 b 607 795 619 795 614 795 b 579 797 597 795 589 797 b 551 800 571 798 561 798 b 312 808 471 804 392 801 b 288 809 304 808 297 809 b 263 812 280 811 272 811 b 238 815 255 813 247 813 b 215 816 230 815 223 816 b 193 819 208 818 199 818 b 168 820 184 819 176 820 l 93 829 b 68 831 84 830 76 831 l 44 836 l 30 836 "},"w":{"x_min":4,"x_max":1139,"ha":1139,"o":"m 369 -10 b 376 -10 372 -8 374 -10 l 386 -8 b 390 -7 388 -7 390 -7 b 395 -5 392 -5 394 -7 b 488 237 431 73 459 155 b 495 259 491 244 493 251 b 505 283 498 266 502 274 l 513 306 b 522 331 516 315 519 323 l 530 355 b 536 371 531 360 533 366 b 577 481 558 416 561 428 b 613 338 583 433 606 385 l 618 313 b 650 169 626 265 633 215 l 654 152 b 666 102 659 135 663 119 b 672 71 669 92 670 81 b 677 38 675 60 676 49 b 681 35 679 38 680 35 b 700 34 687 34 695 35 b 705 34 702 34 704 34 l 718 34 b 723 33 719 34 720 33 b 733 33 726 33 730 33 l 737 33 b 790 30 755 31 775 31 b 820 30 800 28 812 28 b 823 31 822 30 822 30 l 841 31 b 854 33 847 31 851 31 b 897 40 869 34 884 37 b 898 48 897 42 898 46 b 900 51 898 51 898 51 l 900 53 b 900 59 900 56 900 58 l 905 81 b 911 102 907 88 908 95 b 1002 385 941 196 966 292 b 1012 410 1005 394 1008 402 l 1020 435 b 1027 456 1023 442 1025 449 l 1034 480 b 1052 526 1041 495 1047 510 b 1127 758 1079 602 1100 681 b 1133 777 1130 763 1132 770 b 1139 797 1136 783 1137 790 b 1137 805 1139 799 1137 803 b 1137 806 1139 805 1137 806 b 1139 812 1137 808 1137 812 b 1132 819 1137 815 1133 817 b 1130 820 1130 819 1132 820 b 1127 823 1129 822 1129 823 b 1122 826 1126 824 1123 826 b 1116 828 1119 827 1118 828 l 1107 834 b 1098 838 1104 835 1101 837 l 1086 847 b 1085 845 1086 847 1086 845 b 1083 847 1085 845 1085 847 l 1078 851 b 1076 851 1078 851 1076 849 b 1072 853 1075 851 1074 852 b 1064 858 1069 855 1065 856 l 1062 858 b 1060 859 1061 858 1061 858 b 1057 860 1058 859 1058 859 b 1053 862 1054 860 1054 860 l 1051 862 b 1050 863 1051 862 1050 862 b 1046 865 1047 863 1047 865 b 1045 865 1045 863 1045 865 l 1042 865 b 1039 866 1040 865 1040 866 b 1036 867 1036 866 1038 866 b 1033 867 1036 867 1035 866 b 1032 867 1033 867 1033 867 l 1028 867 b 1022 869 1026 869 1024 869 l 1019 869 b 1017 870 1018 869 1018 870 l 1014 870 b 1006 872 1011 870 1007 872 b 1000 872 1003 872 1001 872 l 997 872 b 996 872 997 872 997 872 l 989 872 b 972 870 983 872 978 872 b 971 870 972 870 971 870 l 969 870 b 964 869 966 870 965 870 l 962 870 b 955 869 961 870 957 867 b 947 867 952 869 950 867 l 943 859 b 938 852 941 858 940 855 b 937 849 938 852 937 851 b 937 848 936 848 937 848 b 893 722 922 806 911 763 b 883 692 890 712 886 702 b 877 678 880 688 879 683 l 855 623 b 850 612 854 619 851 616 l 845 599 b 836 570 841 590 838 580 l 830 556 b 826 541 829 551 827 546 l 822 528 b 816 515 820 524 819 519 b 813 503 816 510 815 506 l 809 485 b 806 476 809 481 808 478 b 787 435 802 462 798 446 b 768 487 777 451 773 469 b 761 503 765 492 763 498 b 755 517 759 508 756 513 l 747 538 b 726 603 738 560 731 581 b 720 619 725 609 723 613 l 716 633 b 711 646 713 637 712 642 l 706 660 b 701 677 704 666 702 671 b 695 692 700 681 697 687 l 693 699 b 680 702 688 699 686 702 b 676 705 677 702 677 703 b 673 702 673 705 675 702 b 669 705 670 702 670 705 b 665 705 668 706 668 705 b 665 706 665 705 665 706 l 656 706 b 649 709 654 706 651 708 b 645 709 648 709 645 708 b 638 710 644 709 641 710 l 636 710 b 623 713 633 712 627 712 b 622 713 623 713 622 712 b 618 716 620 715 618 715 b 609 713 615 715 612 713 l 605 721 b 597 719 601 721 601 717 b 590 721 594 720 591 720 b 586 721 588 723 587 721 l 583 724 b 565 726 577 724 570 724 l 551 726 b 537 727 547 727 543 727 b 536 727 537 727 536 727 l 526 727 b 488 727 515 728 501 728 b 474 726 486 727 479 726 l 472 726 b 469 724 470 724 470 724 b 458 721 466 723 461 723 b 456 720 456 721 456 720 b 455 719 455 720 455 719 b 451 717 452 719 452 717 b 448 716 451 716 449 716 b 445 713 448 715 447 715 b 443 712 445 713 444 712 b 434 705 440 710 437 706 b 433 698 436 703 434 701 b 431 694 433 697 433 695 b 362 515 412 633 383 576 b 356 496 361 509 358 503 l 344 463 b 337 444 342 456 340 449 b 319 412 331 433 326 421 b 317 402 317 410 319 406 b 304 435 313 413 308 424 b 298 452 302 441 299 446 b 294 470 297 459 295 465 l 290 488 b 270 580 283 519 277 551 b 266 602 269 587 267 595 l 262 622 b 256 642 259 628 258 635 b 251 660 254 648 252 653 b 245 678 249 666 247 673 l 241 696 b 236 716 238 703 237 709 b 229 734 233 721 231 728 b 223 753 227 741 224 748 b 215 773 220 760 217 766 l 205 787 b 192 799 201 792 197 797 b 160 802 181 801 172 801 b 119 802 149 802 134 803 b 108 801 115 802 112 801 l 105 801 b 95 799 104 799 98 799 b 90 799 94 798 91 799 b 58 798 81 798 69 798 b 49 799 55 798 52 798 l 33 799 b 4 799 27 799 9 799 l 15 763 b 23 738 17 753 20 745 l 26 727 b 34 680 29 712 31 695 l 40 658 b 47 634 42 649 44 641 b 54 610 49 626 51 617 b 67 556 58 592 62 574 b 74 530 69 548 72 540 b 92 455 80 505 87 480 b 99 430 95 446 97 438 b 160 151 123 337 142 244 l 165 133 b 174 92 167 119 172 105 b 180 70 176 84 179 77 b 187 49 183 63 184 56 b 192 33 188 44 190 38 b 199 16 194 27 197 21 b 201 12 199 13 199 13 l 201 8 b 204 6 201 8 202 8 b 204 5 204 6 202 5 b 206 0 205 2 205 1 b 234 -1 216 -3 224 0 b 238 -3 236 -1 237 -3 l 255 -3 b 266 -4 259 -3 263 -4 b 283 -5 272 -4 279 -5 b 288 -5 286 -5 287 -5 b 297 -5 292 -7 294 -5 b 311 -8 301 -7 306 -7 b 329 -10 316 -8 323 -10 b 334 -10 330 -10 333 -8 l 369 -10 "},"$":{"x_min":-9.953125,"x_max":671.765625,"ha":671,"o":"m 472 -33 b 596 60 519 -11 561 20 b 624 95 606 71 615 82 b 646 330 676 160 682 255 b 635 352 643 337 639 345 b 611 398 628 369 621 384 b 594 419 606 406 600 413 b 576 438 589 426 583 432 b 558 455 571 444 564 449 l 538 470 b 507 488 528 477 517 482 b 472 502 496 494 485 498 b 439 513 461 506 450 510 b 336 541 405 523 369 531 b 313 551 329 544 320 546 b 291 563 305 555 298 559 b 238 614 270 577 252 594 l 226 635 b 213 684 220 651 213 667 b 215 712 213 694 213 702 b 224 739 216 721 220 730 b 241 763 228 749 234 756 b 262 777 247 769 254 773 b 291 787 270 781 281 785 b 379 774 320 794 353 788 l 399 766 b 417 755 404 762 411 759 l 439 741 b 443 738 442 739 442 739 l 447 735 b 453 731 449 734 451 732 l 465 720 b 475 712 468 717 472 714 l 475 709 b 481 703 478 707 479 706 b 486 698 483 702 485 699 b 506 671 493 688 499 680 b 571 666 519 641 550 645 b 579 673 574 669 576 671 b 585 678 581 674 583 678 l 586 678 b 596 688 589 682 593 685 b 613 703 601 694 607 699 l 621 712 b 640 724 626 717 633 720 b 671 755 647 730 675 749 b 642 813 658 771 656 791 l 629 830 b 479 948 586 877 535 914 b 458 957 472 952 465 955 b 436 964 451 960 445 963 l 435 967 b 432 998 433 977 433 988 b 429 1039 430 1012 430 1026 b 426 1084 427 1055 426 1069 b 428 1117 424 1096 429 1106 b 432 1135 433 1123 428 1137 b 417 1152 433 1144 420 1149 b 410 1152 413 1153 412 1155 b 407 1157 407 1152 407 1157 b 402 1156 406 1160 403 1156 b 394 1159 399 1157 396 1170 b 381 1169 391 1169 387 1166 b 381 1174 382 1169 382 1174 b 361 1189 377 1171 369 1180 b 356 1189 361 1187 358 1189 b 341 1181 352 1181 345 1192 b 337 1181 340 1182 338 1182 b 331 1192 334 1184 335 1188 b 326 1195 330 1189 327 1192 b 320 1194 324 1195 321 1192 b 309 1194 317 1194 313 1195 b 306 1194 308 1194 308 1196 b 301 1196 305 1189 302 1196 b 298 1191 299 1196 299 1191 b 295 1195 298 1191 296 1195 b 288 1195 292 1194 292 1192 b 280 1198 287 1196 283 1196 b 274 1195 278 1198 276 1195 b 270 1196 273 1196 271 1200 b 255 1206 267 1210 260 1203 b 244 1160 245 1189 251 1177 b 246 985 245 1102 246 1044 l 244 984 b 142 930 209 970 174 952 b 119 912 134 924 126 917 b 90 887 108 905 98 896 b 65 859 80 878 71 869 b 45 824 58 848 51 835 b 31 787 40 812 35 799 b 20 713 26 763 21 738 b 20 676 19 701 19 688 b 23 635 20 662 21 649 b 279 377 37 503 144 389 b 308 370 289 376 298 373 b 390 338 336 362 365 352 b 415 324 399 334 407 330 b 442 295 426 316 435 306 b 454 260 447 285 451 273 b 456 235 456 252 456 244 b 442 185 454 217 450 201 b 413 149 434 171 425 159 b 395 135 408 144 401 139 b 376 124 388 131 383 127 b 356 117 369 121 362 119 b 335 114 349 116 342 114 b 156 196 256 117 224 159 b 126 210 146 202 137 206 b 95 214 115 217 106 220 b 94 213 95 214 95 213 b 92 213 94 212 92 213 l 92 212 b 91 212 92 212 91 212 b 90 210 91 210 90 212 b 88 209 88 210 88 209 b 83 207 85 207 84 207 b 77 202 81 205 80 203 b 71 196 76 199 74 198 l 71 194 b 65 187 70 192 65 189 l 62 184 b 56 178 60 181 59 180 b 55 176 56 177 55 176 l 52 171 b 46 166 51 170 48 169 b 44 163 45 166 45 164 b 41 160 44 162 42 162 l 37 155 b 31 149 35 152 33 151 b 30 146 31 148 31 146 b 27 142 30 145 28 144 b 24 139 26 141 24 141 b 17 130 21 137 19 134 b 12 124 15 128 13 126 b 3 112 9 120 5 116 b 1 110 3 110 2 110 b 0 107 1 109 1 107 b -1 106 0 107 -1 106 b -4 103 -1 105 -3 103 b -4 102 -4 103 -4 102 l -5 101 b -5 99 -5 101 -5 99 b -7 96 -7 98 -7 98 b -9 94 -9 95 -9 94 l -9 91 b -7 84 -8 89 -8 85 b -1 77 -5 81 -3 80 b 0 69 0 74 -1 71 b 1 67 1 69 1 67 b 8 63 3 66 6 64 b 92 1 34 39 62 19 b 108 -4 98 1 103 0 b 110 -5 109 -4 109 -5 b 160 -25 127 -12 142 -19 b 188 -36 169 -29 178 -33 b 258 -62 210 -48 234 -57 l 263 -62 b 262 -68 263 -65 262 -67 b 260 -126 262 -87 260 -105 b 266 -183 260 -147 262 -165 l 270 -203 b 274 -222 270 -208 271 -215 b 271 -243 274 -229 270 -236 b 284 -269 273 -253 277 -262 b 308 -278 291 -275 299 -279 b 316 -280 312 -280 312 -280 b 319 -279 317 -280 317 -278 b 326 -280 320 -280 324 -279 b 330 -280 327 -280 328 -280 l 335 -279 b 345 -279 338 -279 341 -280 b 348 -278 347 -278 347 -280 b 350 -280 350 -275 351 -279 b 352 -279 350 -280 354 -282 b 363 -276 351 -271 362 -285 b 374 -285 367 -280 370 -276 b 380 -280 376 -285 378 -278 b 387 -276 384 -283 384 -278 b 394 -276 388 -275 392 -279 b 406 -275 395 -272 401 -276 l 414 -269 b 419 -273 416 -269 417 -273 l 420 -268 b 436 -261 424 -267 432 -269 b 472 -246 449 -262 460 -248 b 475 -208 478 -232 476 -221 l 471 -150 b 469 -119 471 -140 471 -129 b 468 -72 469 -104 468 -87 b 465 -36 467 -61 465 -47 l 472 -33 "},"\\":{"x_min":-0.125,"x_max":757,"ha":833,"o":"m 8 832 b 80 728 33 797 56 762 b 115 675 93 710 104 693 l 131 648 b 150 622 138 639 144 630 l 165 598 b 286 429 204 541 245 485 l 304 404 b 320 382 309 397 315 390 l 337 360 b 370 312 348 343 359 328 l 386 287 b 394 275 388 283 391 279 l 401 262 b 473 166 423 229 448 200 b 533 72 497 137 511 105 b 561 40 541 60 550 50 b 570 30 563 37 568 35 l 581 22 b 588 8 586 18 584 11 b 609 0 594 3 601 0 b 633 7 618 0 626 3 b 641 11 637 8 637 8 b 643 12 641 11 640 12 b 648 16 644 12 647 15 b 652 18 650 16 651 16 l 657 22 b 665 28 658 23 662 25 b 666 29 665 29 666 28 b 668 29 666 33 669 29 b 670 32 669 29 672 30 b 677 39 665 36 680 33 b 690 40 683 39 684 43 b 694 46 691 42 691 46 b 697 53 698 46 695 50 b 704 55 698 54 704 53 b 713 64 704 60 709 60 b 719 72 716 67 716 69 b 723 71 719 72 721 71 l 721 76 b 731 87 724 78 731 80 b 757 118 744 94 747 108 b 744 141 755 128 750 135 b 718 173 736 151 726 162 b 704 191 713 179 709 185 l 683 218 b 662 246 676 228 669 237 l 641 273 b 620 300 634 282 627 291 l 605 321 b 587 344 600 329 593 336 l 568 368 b 515 440 550 391 531 415 l 498 465 b 313 716 440 551 373 630 b 301 736 309 723 305 729 l 287 754 b 268 779 280 762 275 770 l 250 812 b 229 837 244 820 237 830 b 211 861 223 845 216 854 l 190 886 b 179 907 184 893 184 901 b 175 920 181 913 170 919 b 156 922 172 926 159 922 b 151 917 154 922 151 922 b 145 920 148 916 147 920 b 143 916 144 920 144 917 b 134 913 140 916 131 922 b 120 912 127 917 126 913 b 118 915 120 913 119 916 b 95 913 115 912 105 912 b 91 912 95 911 93 912 b 81 898 91 904 81 907 b 77 896 79 899 79 898 b 69 899 75 896 73 899 b 63 898 69 896 66 898 b 59 893 62 898 61 895 b 50 887 56 892 52 892 b 48 886 48 887 48 889 b 41 885 48 883 44 886 b 41 880 41 885 43 880 l 37 880 b 31 876 36 879 36 878 b 23 873 30 876 27 875 b 20 869 23 872 22 869 b 16 868 19 868 16 871 b 0 865 9 875 5 866 b 8 832 -1 850 8 844 "},"’":{"x_min":19.625,"x_max":230.9375,"ha":231,"o":"m 230 812 b 229 827 230 816 229 822 b 221 872 226 843 222 858 b 208 886 218 879 212 882 b 194 900 203 890 197 893 b 189 901 193 901 190 900 b 187 904 189 901 187 902 b 185 905 186 904 185 904 b 183 901 180 905 183 904 b 171 908 180 905 173 905 b 139 904 162 901 147 912 b 119 907 135 907 129 909 b 108 902 115 907 112 904 b 78 898 101 901 87 901 b 73 898 78 898 75 900 b 48 895 71 895 48 897 b 47 894 47 895 48 894 b 44 894 47 893 44 894 b 34 886 41 893 34 886 b 33 865 33 879 34 872 b 21 773 22 833 19 808 b 19 762 19 770 19 766 b 21 743 19 755 19 748 b 94 744 25 730 86 751 b 97 733 96 740 96 737 l 97 726 b 98 718 97 723 98 720 l 98 709 b 91 675 98 697 97 686 b 87 657 91 668 90 662 b 86 655 86 657 86 655 b 82 648 84 652 83 650 b 73 640 79 644 76 641 b 72 639 72 640 72 640 l 59 630 b 52 626 58 627 55 626 b 47 614 50 622 48 619 b 47 612 47 614 47 612 l 48 612 b 82 609 57 608 73 608 b 93 611 86 611 89 611 b 104 615 97 612 101 614 l 116 619 b 129 625 121 620 125 622 b 140 630 133 626 136 629 b 193 676 160 645 179 655 b 200 686 196 679 198 683 b 230 804 221 722 223 763 l 230 812 "},"-":{"x_min":0,"x_max":447.21875,"ha":447,"o":"m 437 394 l 437 455 l 2 455 l 0 429 l 1 422 l 5 305 l 8 305 l 11 287 l 93 287 l 118 292 l 444 292 l 447 297 l 443 397 l 437 394 "},"Q":{"x_min":3.984375,"x_max":828.9375,"ha":833,"o":"m 827 594 b 812 698 824 629 820 663 l 808 718 b 802 743 806 726 803 734 b 792 768 799 751 795 759 b 646 993 765 852 708 927 l 626 1011 b 602 1026 619 1016 610 1020 b 563 1043 590 1032 577 1038 b 523 1057 551 1048 537 1052 b 498 1058 515 1057 506 1058 b 471 1059 490 1059 481 1059 b 417 1061 453 1061 435 1062 b 360 1055 398 1061 380 1058 b 338 1050 353 1054 346 1052 b 313 1043 330 1048 321 1045 b 290 1032 305 1039 296 1036 b 116 845 215 990 153 923 l 105 825 b 81 780 98 809 90 795 b 67 745 76 769 71 758 b 60 729 66 740 63 734 b 53 714 59 723 56 718 b 49 694 51 708 49 701 b 41 676 46 688 44 682 l 33 657 b 23 632 30 648 26 640 b 8 430 1 566 1 498 b 10 405 8 422 9 413 b 101 169 17 320 46 234 b 119 151 106 164 113 157 l 140 134 b 176 104 151 125 163 114 b 215 76 188 94 202 84 b 235 65 221 72 228 68 b 258 55 242 61 251 58 b 281 48 266 52 273 50 b 310 43 291 45 301 44 b 340 40 320 41 330 40 b 367 39 349 40 358 39 b 501 43 412 36 456 37 b 520 44 508 44 513 44 b 540 47 527 44 534 44 l 548 39 b 601 -19 570 8 581 12 b 628 -19 606 -30 617 -24 b 637 -17 631 -17 634 -19 b 735 51 673 1 703 26 b 746 62 740 55 744 59 l 751 66 b 753 68 752 68 752 68 b 755 70 753 68 753 69 b 758 75 756 72 758 73 b 762 76 759 76 760 76 b 773 90 766 82 770 86 b 780 98 776 91 780 94 b 778 101 778 98 780 100 b 776 112 778 105 777 108 b 731 172 745 140 758 141 b 724 184 728 176 727 180 l 717 197 b 716 198 717 198 716 198 b 712 208 715 201 712 204 b 715 215 713 211 715 214 b 733 234 721 220 727 227 b 748 255 738 241 744 248 b 759 280 752 264 756 272 b 769 305 762 289 766 297 b 803 389 784 332 795 359 b 812 418 808 398 809 408 b 819 443 815 426 816 434 b 828 520 823 469 826 494 b 828 547 828 530 828 539 l 828 570 b 827 594 828 577 827 586 m 416 218 b 353 211 395 212 374 209 b 333 214 346 211 340 212 b 312 220 326 215 319 218 b 292 230 305 223 298 227 b 210 351 240 259 235 298 b 208 366 209 355 209 361 b 205 380 206 370 206 376 b 202 402 205 389 202 394 l 202 405 b 202 430 203 411 202 423 b 203 466 202 443 202 454 b 295 740 217 562 249 657 b 312 765 301 750 306 758 b 330 789 317 773 323 782 b 352 809 337 795 344 802 b 378 826 360 815 369 820 b 403 840 387 832 395 836 b 431 850 413 843 421 847 l 435 850 b 445 852 438 851 442 852 b 459 855 448 852 453 855 b 490 847 470 855 481 851 l 502 839 b 508 834 503 837 505 836 b 509 834 508 834 509 834 l 524 820 b 526 818 526 820 526 818 b 528 815 527 816 528 816 b 534 811 530 814 533 812 l 553 790 b 569 773 559 784 565 779 b 584 754 574 766 580 761 b 612 712 595 741 605 727 b 624 691 616 705 620 698 l 633 668 b 651 522 651 622 653 570 b 649 504 651 516 651 509 b 646 475 649 494 648 484 b 641 447 645 465 644 455 l 637 429 b 628 393 634 416 631 404 l 624 375 b 619 358 621 369 620 364 b 616 348 617 355 617 351 b 609 343 615 345 612 343 b 602 348 608 341 605 345 b 599 352 602 350 601 351 l 595 361 b 531 437 584 375 544 425 l 526 443 b 523 441 524 443 524 437 b 510 439 517 440 513 440 b 498 432 506 436 502 433 b 494 426 498 429 495 429 b 487 425 492 425 490 426 b 485 422 487 425 487 423 l 483 422 b 481 419 483 420 483 419 b 478 418 481 418 480 418 b 477 415 478 418 478 416 l 474 415 b 473 412 474 414 474 412 b 470 411 473 412 471 412 b 469 408 470 411 470 409 l 466 408 b 465 405 466 407 466 405 b 462 404 465 405 463 405 b 460 402 462 404 462 402 b 458 401 460 401 459 401 b 455 397 456 400 456 398 b 451 394 452 395 452 394 b 449 394 451 393 449 394 b 444 389 448 391 446 390 l 440 384 b 430 376 437 383 433 379 b 426 373 428 376 427 375 l 424 372 b 421 370 423 370 423 370 b 417 365 420 369 419 366 l 413 361 b 413 359 413 361 413 359 l 410 355 b 408 352 409 355 408 354 b 406 350 408 352 406 351 b 402 345 406 348 403 348 l 402 344 b 399 341 401 344 401 343 l 384 322 b 376 314 381 319 380 316 b 371 309 376 312 373 311 b 367 305 370 307 369 307 b 362 295 366 302 362 298 b 363 290 362 293 362 291 b 365 289 363 290 365 290 b 366 287 366 289 366 287 b 373 282 367 286 370 284 b 413 225 377 275 409 232 l 416 218 "},"M":{"x_min":-0.46875,"x_max":955.09375,"ha":969,"o":"m 0 50 b 37 51 12 50 27 50 l 62 51 b 118 50 81 51 102 51 b 162 50 132 48 148 50 b 182 48 167 48 175 48 b 202 47 189 48 196 48 b 207 79 205 58 206 68 b 210 94 209 83 209 89 b 212 110 210 100 212 105 b 213 126 213 115 213 121 b 223 300 216 185 218 242 b 224 317 223 305 224 311 b 225 332 224 321 225 326 b 230 411 228 358 230 385 l 230 419 b 230 471 231 435 228 453 b 232 478 230 473 231 478 b 234 473 232 476 234 475 b 237 468 235 472 235 469 b 242 451 238 461 239 455 b 245 443 242 448 243 447 b 266 382 252 423 260 403 b 268 373 267 379 267 376 b 298 283 275 342 291 314 l 302 272 b 305 264 302 269 303 267 b 309 255 306 261 307 258 l 312 248 b 359 115 328 204 345 160 l 363 100 b 364 89 363 97 364 93 b 371 82 368 87 370 85 b 377 83 373 83 375 82 b 381 83 378 85 380 83 b 439 82 402 85 423 83 l 443 82 b 448 82 446 82 446 82 b 456 83 452 82 453 83 b 480 80 466 83 473 82 b 492 78 484 79 488 78 b 512 78 498 76 505 78 b 516 79 514 78 516 79 b 520 79 517 79 518 79 b 531 82 524 80 530 80 b 532 82 531 82 532 82 l 535 82 b 539 83 537 83 539 82 b 545 83 541 85 543 82 b 548 83 545 85 548 83 l 549 85 b 559 86 552 85 557 85 b 581 87 568 86 580 85 b 610 236 599 133 596 186 b 617 268 613 246 614 257 b 620 280 617 272 618 276 b 623 289 621 283 621 286 b 630 318 625 298 627 308 b 631 328 630 321 631 323 b 652 419 634 358 649 387 l 653 429 b 655 439 655 432 655 436 b 662 478 657 451 659 464 b 666 493 663 483 664 487 l 670 510 b 680 529 673 512 674 529 b 687 496 681 518 682 508 b 691 480 688 494 691 482 b 705 357 693 439 703 398 b 707 342 706 353 706 347 b 713 294 709 326 712 311 b 716 278 714 289 714 283 b 721 244 717 267 720 255 l 725 222 b 731 198 728 214 730 207 b 737 175 732 190 734 182 b 742 150 738 167 739 158 b 745 135 743 144 743 140 l 749 119 b 752 94 750 111 752 103 b 756 67 755 86 755 76 b 764 65 759 67 764 65 b 766 65 764 64 766 65 b 771 62 768 64 770 64 b 777 61 773 62 777 61 l 778 61 b 785 58 781 60 784 60 b 796 58 791 57 792 58 b 809 60 800 58 806 58 b 825 58 814 60 821 58 b 838 57 830 58 835 57 l 841 57 b 852 54 845 55 848 54 b 856 55 853 54 855 54 b 868 57 860 55 866 57 b 877 58 871 58 874 57 b 895 61 882 60 888 60 b 932 65 907 61 923 62 l 934 65 b 939 67 935 65 938 65 b 941 68 939 67 941 68 l 943 68 b 949 72 946 71 948 71 b 955 78 952 73 953 76 l 955 92 l 955 94 b 914 301 952 165 924 232 b 912 325 913 310 913 318 b 909 348 910 333 910 342 b 907 373 909 357 907 365 b 903 400 906 382 905 392 l 899 428 b 896 453 898 436 898 444 b 893 478 895 461 893 469 l 889 501 b 885 526 888 510 887 518 l 881 548 b 875 572 878 557 877 564 b 864 617 871 586 868 601 b 859 640 863 625 860 632 b 846 689 855 657 850 672 l 842 710 b 834 773 838 730 835 753 b 831 798 832 782 831 790 b 830 822 830 805 830 814 b 828 847 828 830 828 839 b 827 872 827 855 827 864 b 817 925 825 875 821 922 b 768 919 799 917 787 928 b 750 925 763 926 756 923 b 743 930 748 926 746 929 b 738 928 742 929 739 929 l 735 928 b 731 928 734 929 732 929 b 657 923 707 912 689 922 b 652 925 656 925 655 925 b 634 923 646 925 641 925 l 587 923 b 548 929 573 925 560 929 l 531 855 b 528 842 531 850 530 846 b 523 817 527 833 525 825 l 518 803 b 513 787 517 798 514 793 b 507 772 512 783 510 778 b 503 753 506 765 505 758 l 499 732 b 462 568 499 673 474 622 b 459 551 462 562 460 557 b 453 526 457 543 456 535 b 434 478 449 510 443 493 l 430 498 b 417 551 427 517 423 533 b 412 568 416 557 414 562 l 399 598 b 392 615 396 604 395 610 b 385 632 389 621 387 626 b 328 796 364 686 353 743 b 321 814 327 801 324 808 b 306 846 317 825 312 835 b 299 862 305 851 302 857 b 293 878 298 868 295 872 b 284 893 292 882 289 889 b 281 901 282 896 282 901 l 281 904 b 280 905 281 904 280 904 b 277 910 280 907 277 908 b 274 917 277 911 274 914 b 249 915 266 917 257 915 l 241 915 b 177 912 218 914 198 914 b 164 911 173 912 168 912 b 96 923 146 926 120 929 b 80 929 89 922 87 932 l 75 925 b 57 925 70 923 63 929 b 49 875 41 915 56 890 l 49 854 b 48 835 48 848 48 842 l 48 803 b 46 772 46 793 46 782 b 43 711 46 751 45 732 b 42 682 43 701 43 692 b 41 653 42 672 41 662 b 38 622 39 643 39 633 b 35 593 38 612 37 603 b 32 565 35 583 34 573 b 30 537 32 555 31 546 b 27 511 30 529 28 519 b 24 485 25 503 25 493 b 23 457 24 476 23 467 b 21 429 23 448 21 439 b 20 403 21 421 20 412 b 18 378 20 394 20 386 b 2 93 16 282 13 186 b 0 65 0 83 0 75 b 0 62 0 64 0 62 l 0 50 "},"C":{"x_min":9.59375,"x_max":740.859375,"ha":811,"o":"m 740 215 b 738 238 741 223 740 230 b 733 251 737 242 734 247 b 634 366 702 290 679 344 l 631 363 b 622 351 629 359 626 355 b 608 338 616 348 612 343 b 515 216 580 293 551 252 b 497 199 509 211 504 205 b 350 159 455 163 406 142 b 295 192 330 166 312 179 b 256 244 279 208 266 226 b 240 274 250 254 244 263 b 226 302 234 283 230 293 b 211 337 220 313 215 326 l 198 373 b 191 411 195 386 193 398 b 188 508 184 441 184 475 b 194 540 190 519 191 530 b 201 569 197 550 198 559 b 512 703 240 697 394 758 b 547 697 523 701 534 698 b 586 697 559 696 572 696 l 590 703 b 590 705 590 704 590 704 l 591 707 b 593 708 591 708 593 708 b 594 710 593 710 593 710 b 620 855 611 755 627 808 b 615 862 616 854 612 858 b 583 883 602 865 595 878 b 554 898 573 889 563 894 b 311 908 479 937 390 923 b 280 897 300 905 290 901 b 251 882 270 893 261 887 l 220 864 b 191 843 211 857 201 851 b 165 822 183 837 173 829 b 140 798 156 815 148 807 l 119 778 b 97 750 111 768 104 760 b 77 719 90 740 83 730 b 63 689 72 710 68 700 l 51 657 b 41 626 48 647 44 636 l 33 594 b 26 561 30 583 29 572 b 20 527 25 550 22 539 b 12 466 16 507 13 487 b 11 397 9 443 8 419 b 23 333 13 375 18 354 b 33 304 26 323 29 313 b 41 276 34 294 37 284 b 58 243 47 265 52 254 l 70 212 b 84 181 76 202 80 191 b 97 155 88 173 93 163 l 111 130 b 134 94 118 117 126 105 b 162 61 143 81 151 70 b 338 -44 213 15 273 -22 b 397 -55 358 -51 377 -54 b 430 -54 408 -55 419 -55 b 463 -47 441 -52 452 -50 b 684 135 555 -12 626 59 b 720 190 697 154 709 172 b 726 195 722 191 726 194 b 729 198 726 197 729 198 l 729 199 b 730 201 729 201 730 201 b 731 202 730 201 731 202 l 731 204 b 737 211 734 206 736 209 b 740 213 738 212 740 212 b 740 215 740 213 740 215 "},"L":{"x_min":0,"x_max":551.390625,"ha":621,"o":"m 545 166 b 544 188 545 175 544 181 b 516 190 534 188 525 190 b 258 201 430 200 344 204 b 258 200 255 201 256 200 b 247 194 255 197 247 200 b 240 244 241 211 241 227 l 240 272 b 219 548 237 365 220 455 b 218 577 219 558 219 568 l 218 606 b 216 637 216 616 216 627 l 216 668 b 215 684 215 673 215 679 b 212 734 213 701 212 718 l 212 750 b 212 766 212 755 212 761 l 212 783 b 213 800 213 788 213 794 l 213 816 b 212 869 213 834 213 852 b 211 880 211 872 211 876 b 209 904 211 888 209 895 b 205 909 205 902 205 905 b 154 906 187 908 170 906 l 127 906 b 123 906 126 906 125 906 l 112 906 b 105 905 109 906 106 905 l 104 906 b 102 906 104 906 102 906 l 81 906 b 51 908 70 906 59 906 b 33 908 44 908 38 908 l 15 908 b 8 909 13 908 11 908 b 1 908 6 909 4 908 b 0 904 1 906 1 905 b 0 900 0 902 1 900 b 1 886 0 894 0 890 b 9 744 5 838 8 791 l 9 715 b 13 631 12 687 12 659 l 13 602 b 23 418 12 540 19 479 b 26 391 25 408 25 400 b 40 76 31 286 38 181 l 40 51 b 38 31 40 44 38 38 b 38 13 37 26 37 19 b 66 8 48 12 58 9 b 95 4 76 6 86 5 l 123 0 b 208 0 151 -1 180 -1 l 236 0 b 515 4 329 4 422 2 b 548 2 526 4 537 2 b 551 23 550 9 551 16 l 551 97 b 545 166 551 122 548 145 "},"!":{"x_min":-0.125,"x_max":230.984375,"ha":300,"o":"m 198 834 b 199 744 198 803 198 773 l 201 698 b 206 623 203 673 205 648 l 208 608 b 208 588 208 602 208 595 l 208 569 b 209 446 209 528 208 487 l 210 441 b 212 373 209 419 215 396 l 212 352 b 216 285 212 330 213 308 b 215 283 216 285 215 285 b 216 281 215 281 216 281 b 213 281 216 277 215 283 b 210 271 210 278 212 274 b 205 266 209 269 205 270 b 201 266 203 266 202 266 l 194 263 b 184 262 191 262 191 262 b 174 262 181 262 177 260 b 169 263 172 262 172 263 b 161 264 166 263 162 260 b 161 262 158 264 159 262 b 154 262 162 258 155 262 b 145 263 151 262 147 260 b 134 258 143 260 139 260 b 125 264 134 264 124 255 b 124 258 124 263 124 260 b 100 264 119 259 105 255 b 87 263 94 263 93 262 b 84 263 87 263 84 263 l 84 266 b 80 263 82 266 82 263 b 77 267 79 263 77 267 b 73 264 76 267 75 264 b 72 267 73 264 73 267 l 65 266 b 59 273 64 267 61 271 b 55 273 58 273 55 271 l 54 277 b 51 274 51 278 52 274 l 45 277 b 41 278 44 277 43 278 l 36 280 b 27 284 34 281 30 283 b 20 281 25 284 25 281 b 18 295 22 291 14 289 b 15 299 18 298 15 296 b 9 470 15 358 12 413 l 8 491 b 0 723 2 569 -1 645 l 0 742 b 9 856 1 780 4 819 b 14 871 11 860 8 871 b 12 880 14 876 12 876 b 18 883 12 884 16 881 b 22 889 19 884 20 889 b 26 891 23 891 25 889 b 33 894 27 891 32 895 b 37 894 36 891 34 894 b 43 892 40 894 40 892 b 44 894 41 892 43 895 b 52 898 47 891 48 896 b 75 902 61 899 69 894 b 94 891 80 896 90 898 b 113 892 101 894 108 895 b 116 888 115 892 116 894 b 137 885 122 894 134 894 b 151 884 141 889 144 884 b 158 883 154 884 155 884 b 163 881 159 881 161 881 b 165 878 165 880 165 878 b 177 877 169 877 174 878 b 185 870 179 877 181 870 b 187 864 187 870 185 866 l 191 862 b 197 851 192 859 191 848 b 198 834 198 845 197 841 m 220 139 b 224 156 223 144 224 149 b 224 170 224 160 224 166 l 224 180 b 224 183 224 181 224 183 l 216 183 b 197 183 209 183 203 180 b 188 183 194 183 191 183 l 179 183 b 169 183 176 183 173 183 l 151 183 b 125 185 143 183 133 185 b 108 188 115 188 118 189 l 108 192 b 33 174 83 189 58 187 b 33 171 34 174 36 171 b 29 176 32 173 30 173 b 25 163 26 171 25 167 b 41 28 22 103 58 87 l 40 16 b 43 12 41 14 43 13 b 52 13 45 10 50 12 b 58 10 54 9 57 12 b 64 7 61 9 62 7 b 66 10 64 7 65 10 b 70 7 68 10 69 7 l 72 10 b 73 9 73 10 73 9 b 88 6 79 9 83 12 b 100 3 91 1 97 3 l 101 2 b 108 3 106 2 105 6 b 118 1 111 1 115 1 b 144 2 126 1 138 2 b 163 1 152 2 158 1 b 166 0 165 1 166 1 b 169 2 167 -1 169 2 b 180 5 174 2 174 2 b 202 12 188 7 197 9 b 209 20 201 19 208 16 b 220 20 213 20 215 17 b 226 23 220 23 223 23 l 227 31 b 222 141 237 66 223 102 l 220 139 "}," ":{"x_min":0,"x_max":0,"ha":417},"X":{"x_min":0,"x_max":813,"ha":833,"o":"m 601 946 b 592 932 597 943 594 936 b 569 900 586 921 578 909 b 414 719 512 844 458 785 b 412 714 414 718 411 718 b 408 711 411 714 409 712 b 407 708 407 710 407 710 b 405 707 407 708 405 708 b 405 705 405 707 405 705 b 404 703 404 705 404 704 b 401 700 401 701 401 701 b 398 697 401 699 400 697 b 397 694 398 694 397 694 l 394 690 b 393 690 394 690 393 690 l 386 681 b 375 692 386 681 379 689 b 340 725 359 699 351 712 b 201 884 290 776 255 839 l 195 890 b 194 891 195 890 194 891 l 190 894 b 187 897 189 894 189 896 b 186 898 186 897 186 898 b 183 900 184 898 183 898 b 182 901 182 900 182 901 b 179 902 180 902 180 901 b 176 905 177 902 177 905 b 169 911 173 908 170 909 b 165 908 166 912 166 909 b 164 908 165 908 164 909 b 155 902 161 907 157 905 b 150 905 152 902 152 905 b 148 901 148 905 148 904 b 145 901 147 901 147 901 b 127 900 143 898 132 900 b 118 894 123 898 122 896 b 116 896 116 893 118 896 b 115 900 116 896 115 898 l 107 900 b 101 898 104 900 102 900 b 95 893 100 897 98 894 b 94 891 95 893 94 893 b 90 889 93 891 91 890 l 77 875 b 52 851 69 868 61 859 b 51 848 52 850 51 850 b 50 841 50 847 50 844 b 30 822 43 836 37 829 b 27 807 27 819 25 812 b 26 803 27 805 27 803 b 30 800 26 800 29 801 b 33 797 33 801 31 798 b 34 786 34 796 34 792 l 37 783 b 75 748 51 773 63 761 b 91 729 80 743 86 736 b 247 537 144 665 187 594 l 257 528 b 261 524 258 526 259 526 l 261 521 b 261 517 262 519 261 519 b 261 514 261 517 261 515 l 261 512 b 259 511 261 512 259 512 b 258 508 259 511 259 510 b 257 508 258 508 257 508 b 255 506 257 506 255 506 b 254 501 255 504 254 503 b 254 500 254 501 254 500 b 251 499 252 499 251 499 l 251 496 b 237 474 247 487 241 481 b 223 454 232 467 227 460 b 80 251 172 387 126 319 b 66 232 76 244 72 237 l 54 212 b 40 193 48 206 44 199 l 27 172 b 12 153 22 165 16 160 b 11 151 11 151 11 153 b 6 146 11 150 6 147 b 5 144 5 146 5 144 b 4 142 5 143 4 143 b 0 137 4 140 1 137 l 0 135 b 2 124 2 132 1 125 b 4 121 4 122 4 122 b 4 119 5 121 4 119 b 6 118 5 119 5 119 b 8 117 6 117 8 117 b 9 114 8 114 9 114 b 11 110 9 112 11 111 b 12 108 12 110 12 108 b 13 107 12 107 13 107 b 15 104 13 104 15 104 b 19 97 16 101 18 99 l 29 97 b 45 75 30 86 43 85 b 61 69 52 75 54 69 b 66 62 62 68 62 62 b 73 64 69 62 70 64 b 75 58 75 62 72 57 b 77 57 76 58 77 58 b 87 58 82 56 83 58 b 95 51 88 56 91 53 b 100 47 98 50 97 47 l 105 47 b 107 44 107 47 107 46 l 109 44 b 112 43 109 44 111 44 b 118 42 115 43 116 43 l 120 42 b 122 40 120 42 120 40 b 133 36 126 37 130 36 b 137 35 134 36 136 35 l 137 33 b 144 32 140 32 141 32 l 145 31 b 152 29 148 29 151 31 b 157 28 154 28 158 31 b 297 226 212 87 255 157 b 322 272 305 242 314 257 l 339 297 b 354 322 343 306 348 314 b 380 354 362 335 371 343 b 382 356 380 354 382 354 b 396 367 386 360 389 365 b 398 362 397 367 396 361 b 403 361 400 361 401 361 b 404 358 403 360 404 360 l 407 356 b 409 354 408 356 409 356 b 412 351 411 354 411 353 l 419 344 b 437 321 425 335 430 328 b 603 146 493 261 550 207 l 622 126 b 680 67 642 106 661 86 l 692 54 b 699 49 693 51 696 50 b 704 43 700 47 701 43 b 712 47 703 47 708 47 b 739 74 721 56 731 65 l 750 83 b 760 93 753 86 757 90 b 768 100 764 96 765 99 b 787 121 775 107 782 114 l 793 126 b 797 132 794 129 796 131 l 800 135 b 801 136 800 136 800 136 b 803 140 801 137 803 139 l 804 142 b 806 144 806 143 806 144 b 807 147 806 146 807 146 b 808 149 807 147 807 149 b 810 156 808 151 810 154 b 811 158 811 157 811 157 b 813 165 813 161 811 164 l 813 181 b 801 200 810 187 806 194 l 789 219 b 632 390 740 278 682 331 b 617 407 628 396 622 401 b 543 492 592 435 567 464 b 542 496 542 493 542 494 b 535 500 539 497 536 499 b 533 501 535 500 533 500 b 529 506 530 503 530 503 l 525 510 b 523 511 525 511 523 511 l 521 515 b 519 517 521 515 519 515 b 518 518 519 517 519 518 b 515 522 518 519 516 521 b 512 525 515 524 514 524 l 511 532 b 514 540 514 535 512 537 b 672 747 569 607 614 682 l 690 768 b 708 787 696 775 701 780 b 724 804 712 793 718 798 b 733 816 728 807 731 811 b 735 819 733 818 735 819 b 737 823 735 821 736 823 b 737 826 737 823 737 826 l 737 829 b 735 836 737 832 736 835 b 733 843 733 840 733 841 b 731 848 732 846 731 847 b 728 857 731 851 728 855 b 724 864 725 859 725 862 l 724 868 b 715 875 721 869 718 873 l 711 878 b 705 883 710 879 708 882 l 703 886 b 696 891 700 887 699 890 l 692 896 b 690 896 692 896 690 896 l 686 900 b 683 901 686 900 685 901 l 680 905 b 678 907 679 905 678 907 b 672 911 675 908 674 911 b 671 912 672 912 671 912 b 664 918 668 915 667 916 b 661 921 664 919 661 921 b 660 922 660 921 660 921 b 654 925 658 923 655 923 l 654 926 b 653 926 654 926 653 925 b 651 927 651 926 651 926 b 646 930 649 929 647 929 b 644 932 644 930 644 932 b 640 933 643 933 640 933 b 640 934 640 933 640 934 l 637 934 b 636 936 637 934 637 936 b 635 937 636 936 635 936 b 632 939 633 937 633 937 b 629 940 632 939 629 939 b 626 941 628 940 628 941 b 625 943 626 941 625 941 b 621 944 623 943 622 943 b 619 946 621 944 619 946 l 617 946 l 601 946 "},"P":{"x_min":0,"x_max":625.359375,"ha":639,"o":"m 209 1047 b 265 1045 227 1045 247 1048 b 293 1042 275 1045 283 1044 b 304 1041 297 1042 301 1041 b 316 1038 308 1040 312 1038 b 322 1037 318 1037 319 1037 b 327 1035 323 1035 326 1035 b 331 1034 329 1034 330 1034 b 344 1030 336 1033 340 1031 l 347 1030 b 354 1027 347 1028 351 1028 l 355 1027 b 358 1026 356 1027 356 1026 b 365 1023 359 1026 362 1024 b 366 1023 365 1023 366 1024 b 375 1020 368 1022 373 1020 b 381 1017 377 1019 380 1019 b 395 1012 387 1016 391 1013 l 411 1005 b 555 888 469 981 520 942 b 565 876 558 884 561 880 b 566 873 565 873 566 874 b 568 870 566 873 568 872 l 569 869 b 570 867 569 869 569 867 b 575 859 572 866 573 862 l 583 846 b 584 842 583 845 584 844 b 586 841 584 841 586 841 b 588 835 587 840 587 837 l 588 834 b 590 831 590 834 590 833 b 591 830 590 831 591 830 b 593 827 593 828 593 827 l 593 824 b 597 816 594 823 595 819 b 602 803 600 812 601 808 l 602 801 b 604 799 604 801 604 799 b 606 789 605 796 605 792 b 608 789 606 789 608 789 l 608 785 b 609 781 609 784 609 783 b 612 777 611 780 611 778 l 612 771 b 613 771 612 771 613 771 l 613 769 b 615 759 615 767 615 762 b 616 757 615 759 616 759 b 616 755 616 757 616 755 b 608 592 630 701 627 644 b 601 574 606 587 604 581 b 587 545 597 565 593 555 b 569 517 581 535 576 526 b 558 502 565 512 562 506 b 547 490 554 498 550 494 b 536 476 543 484 540 480 b 402 383 500 434 458 394 b 387 380 397 381 391 380 b 262 366 347 372 304 367 b 255 366 261 366 258 366 l 251 369 b 247 366 248 369 248 366 b 218 362 238 365 222 369 b 215 360 216 362 216 362 b 215 359 215 360 216 359 l 215 356 b 213 352 215 356 213 355 b 216 340 215 348 216 344 l 216 327 b 209 295 213 316 211 306 b 206 278 208 290 208 284 b 205 260 206 273 205 267 b 205 244 205 255 205 249 l 205 227 b 188 52 206 167 197 110 l 188 42 b 187 40 188 41 187 41 l 187 37 b 187 34 187 35 188 37 b 115 28 162 33 140 27 b 86 33 105 28 95 31 b 0 42 58 37 29 41 b 0 47 0 44 0 45 b 2 58 1 51 1 56 b 2 63 2 62 2 63 l 2 67 b 12 217 9 115 9 166 l 12 231 b 20 392 18 285 19 338 b 22 410 20 398 22 405 l 22 426 b 20 503 22 452 22 478 l 20 519 b 18 575 22 538 16 556 b 25 643 20 599 23 621 b 23 678 25 655 25 666 b 19 808 19 721 16 764 b 22 841 20 819 20 830 b 18 1016 13 899 19 958 b 25 1024 22 1017 23 1022 b 33 1023 27 1023 30 1023 b 40 1024 34 1024 37 1024 b 40 1026 40 1024 40 1026 b 55 1031 47 1027 51 1030 l 61 1031 b 65 1031 61 1031 63 1033 b 69 1034 66 1031 69 1034 b 73 1035 72 1035 72 1034 b 88 1035 79 1035 83 1035 l 104 1037 b 200 1047 136 1042 168 1042 b 209 1047 202 1047 208 1045 m 226 575 b 233 574 229 575 230 574 l 252 574 b 258 573 255 574 256 574 b 262 573 259 573 259 572 b 273 574 266 573 269 574 b 290 573 279 574 284 573 b 440 616 341 575 401 574 b 459 642 448 623 454 632 b 466 668 462 650 465 660 b 468 698 468 678 468 688 b 466 709 466 700 466 705 b 354 835 454 766 405 809 b 338 842 350 838 344 841 b 323 849 333 845 327 846 l 304 853 b 265 858 291 856 279 858 b 250 859 259 858 254 859 b 227 848 238 859 230 858 b 222 727 216 810 225 767 l 222 709 b 222 673 222 696 222 684 l 222 636 b 222 602 222 625 222 613 l 222 588 b 223 574 222 584 222 579 b 225 574 223 575 225 574 l 226 575 "},"%":{"x_min":-0.34375,"x_max":756.625,"ha":757,"o":"m 259 130 b 226 83 251 112 237 98 b 208 62 220 76 213 69 l 190 40 b 179 16 183 34 186 23 b 174 2 181 8 170 4 b 156 1 172 -2 159 0 b 151 4 154 1 151 1 b 145 1 148 5 147 1 b 143 5 144 1 144 5 b 134 9 140 6 131 1 b 120 9 127 5 126 9 b 118 6 120 9 119 6 b 95 9 115 11 105 11 b 91 11 95 11 92 11 b 81 25 91 19 81 16 b 77 27 79 25 79 25 b 69 23 74 26 73 23 b 63 25 69 26 66 25 b 59 29 62 26 60 29 b 49 34 56 30 52 32 b 48 37 48 36 48 34 b 41 39 48 40 44 37 b 41 43 41 39 42 41 l 37 43 b 31 46 35 44 35 46 b 23 50 30 46 27 48 b 20 54 23 50 22 53 b 16 56 19 54 16 53 b 0 58 9 48 5 57 b 8 92 -1 73 8 78 b 19 103 12 94 16 98 b 24 116 22 107 23 111 b 66 175 40 136 53 155 b 80 194 72 182 76 189 l 102 229 b 140 286 115 248 127 268 l 159 315 b 209 385 177 337 192 360 l 228 414 b 448 721 298 519 373 619 b 471 753 456 730 463 741 l 494 783 b 519 814 502 793 510 804 l 544 843 b 571 871 553 853 562 862 b 574 882 574 873 571 879 b 583 890 577 885 581 887 b 584 901 584 893 583 897 l 588 907 b 589 912 589 908 588 911 b 594 915 589 915 592 912 l 594 919 b 603 919 598 922 599 918 b 620 921 609 919 612 922 b 631 919 624 921 628 921 b 633 915 631 919 630 915 b 641 912 637 915 637 914 b 642 910 641 911 639 910 b 648 907 644 910 646 907 b 652 904 649 905 651 905 l 656 900 b 664 894 658 898 662 897 b 666 893 664 894 666 896 b 667 893 666 890 669 893 b 670 891 669 893 671 893 b 677 883 664 887 680 890 b 689 882 683 883 684 880 b 694 876 691 882 691 876 b 696 871 698 876 695 872 b 703 866 698 868 703 869 b 713 858 703 862 709 862 b 719 851 716 857 716 853 b 723 851 719 850 721 851 l 721 847 b 731 835 724 844 731 841 b 756 804 744 828 746 814 b 744 782 755 794 749 787 b 724 757 737 773 730 765 b 642 653 696 721 670 687 l 623 628 b 487 440 574 566 533 503 l 466 412 b 279 154 397 332 340 241 l 260 129 l 259 130 m 333 769 b 319 835 330 791 327 814 l 313 847 b 312 860 312 851 313 857 b 294 880 306 866 302 875 l 285 889 b 254 907 276 896 265 903 b 245 912 251 908 248 912 b 244 912 245 912 244 912 l 240 914 b 231 915 236 915 233 915 b 227 918 230 916 229 916 l 222 916 b 213 919 219 916 216 919 b 208 918 213 919 211 918 l 202 919 b 193 919 197 921 195 921 l 188 922 b 174 918 186 921 180 919 l 158 916 b 138 912 151 915 144 912 l 137 910 b 131 908 134 908 133 910 b 129 908 130 907 129 908 b 120 901 126 907 123 904 l 111 893 b 40 811 83 869 58 841 b 28 789 35 804 31 797 b 23 776 26 785 24 780 l 17 762 b 15 733 16 753 15 743 b 16 725 15 730 15 728 l 17 715 b 24 675 19 701 22 687 l 27 662 b 30 654 28 660 28 657 l 34 646 b 59 621 40 635 55 628 b 109 579 70 598 88 586 l 122 575 b 148 572 130 573 140 573 l 163 572 b 226 593 188 571 208 579 l 235 603 b 262 629 245 611 253 619 l 272 639 b 280 650 274 643 277 646 l 287 660 b 308 694 295 671 302 682 l 313 707 b 330 762 320 725 326 743 b 333 769 327 764 334 768 m 193 693 b 156 679 181 686 169 680 b 147 680 152 679 149 679 b 140 689 144 683 141 686 l 134 697 b 163 797 112 733 130 776 l 169 801 b 205 807 180 808 191 810 b 215 798 211 807 212 803 b 218 775 218 790 218 783 b 219 766 218 772 219 769 l 218 758 b 201 697 216 737 219 712 b 193 693 198 696 195 694 m 488 276 b 463 247 481 266 470 258 l 458 240 b 441 215 452 232 447 223 l 437 205 b 429 164 430 193 427 179 b 429 153 429 160 429 157 l 432 143 b 432 132 430 139 430 135 l 432 121 b 433 108 432 116 433 112 l 436 97 b 510 9 454 64 473 23 l 517 5 b 539 1 526 2 533 2 b 549 0 542 1 545 0 l 559 0 b 583 1 567 0 576 0 l 594 4 b 613 9 601 5 608 6 b 634 20 621 12 628 16 b 641 26 637 22 639 25 l 648 33 b 662 45 652 37 658 41 l 670 54 b 695 86 678 64 687 75 b 706 103 698 91 702 97 l 713 115 b 727 143 717 125 723 132 b 733 150 726 144 733 148 b 738 214 734 171 739 193 b 737 222 737 216 737 219 l 734 233 b 717 272 731 247 726 260 l 712 279 b 691 300 706 287 699 294 b 674 310 685 303 680 307 b 663 312 670 311 667 311 l 653 316 b 613 326 639 321 627 325 l 602 328 b 592 328 599 328 595 328 l 581 328 b 570 326 577 326 573 326 l 560 323 b 552 322 558 323 555 322 l 542 318 b 488 276 523 307 505 291 m 634 140 b 628 135 633 139 630 136 b 623 129 627 133 624 130 l 616 122 b 578 112 606 114 594 108 l 569 112 b 559 115 566 114 562 114 l 551 116 b 544 121 549 118 546 119 b 538 128 542 122 539 125 b 534 139 537 132 535 135 l 533 148 b 573 208 530 178 548 200 l 584 211 b 637 151 624 223 646 187 b 634 140 637 147 635 144 "},"#":{"x_min":2.109375,"x_max":760.21875,"ha":794,"o":"m 552 796 b 544 797 551 800 546 797 b 541 798 542 797 542 798 l 530 798 b 521 800 527 798 524 800 b 519 798 521 800 520 798 b 510 800 515 798 515 800 b 496 797 506 798 501 800 b 487 797 492 798 488 800 b 484 798 487 796 484 798 b 476 797 481 798 478 797 b 456 800 472 797 459 801 b 442 793 452 798 448 796 b 441 794 442 794 444 794 b 434 790 438 793 437 794 b 437 789 435 790 437 789 b 434 786 437 787 434 786 b 433 776 433 783 433 779 b 435 768 434 773 434 771 l 435 757 b 433 721 435 744 434 733 l 433 708 b 430 655 427 687 435 678 b 429 630 429 653 431 633 b 327 628 402 626 357 628 b 325 640 325 632 325 636 b 327 657 325 644 328 654 l 327 664 b 324 714 325 680 328 697 b 325 723 322 716 327 721 b 322 740 325 729 322 734 b 321 746 322 741 320 743 b 316 751 317 746 316 747 b 296 762 307 751 302 757 b 282 766 288 759 285 766 b 278 766 281 768 279 766 b 271 771 274 769 272 773 b 270 772 270 769 268 772 b 256 775 265 773 260 775 l 251 775 b 247 776 250 775 250 776 l 246 776 b 243 778 245 776 245 776 l 242 776 b 238 778 239 776 239 778 l 236 778 b 229 779 235 779 232 779 b 217 782 224 780 221 782 b 199 786 208 782 204 779 b 190 783 196 783 193 782 b 178 783 186 783 182 784 l 178 776 b 178 758 178 771 178 764 l 178 750 b 178 740 178 746 178 743 l 178 729 b 176 722 176 726 176 723 b 169 630 171 691 176 661 b 160 630 167 632 164 630 l 151 630 b 62 636 121 628 90 634 b 52 637 58 636 55 636 b 34 639 45 637 40 639 l 24 639 b 21 626 23 634 21 630 b 15 601 19 618 17 609 b 13 595 20 597 13 597 b 16 585 13 594 19 587 b 15 583 13 585 15 585 b 15 574 13 580 15 577 b 12 566 13 572 13 569 b 12 552 10 559 10 556 b 13 547 12 551 12 548 l 9 543 b 13 537 13 543 12 540 b 10 527 13 534 12 530 b 16 518 13 525 14 522 b 13 501 17 512 16 507 b 12 500 13 501 13 500 b 10 497 12 498 10 498 b 15 489 12 493 12 493 b 20 476 15 483 21 481 b 26 480 23 477 24 479 b 34 474 28 477 31 476 b 41 470 35 473 38 470 b 52 472 45 470 48 472 l 62 472 b 153 470 91 472 122 467 b 157 460 156 467 157 465 b 151 383 157 434 147 409 b 147 378 151 380 151 379 b 132 378 142 380 135 378 b 129 379 129 378 130 379 b 126 378 128 380 128 378 b 119 379 123 378 122 379 b 88 379 105 380 97 382 b 31 378 81 384 40 373 b 17 386 27 380 23 384 b 8 382 16 380 10 383 b 9 370 5 376 12 376 l 10 369 b 6 357 9 365 6 361 b 8 353 6 355 8 354 b 5 336 9 344 6 340 b 6 321 8 332 6 326 l 2 310 b 3 305 1 308 3 307 b 3 300 3 303 3 301 l 5 294 b 5 285 6 290 5 289 b 6 269 3 279 6 273 b 6 267 5 267 6 268 b 9 246 8 260 9 253 b 6 239 9 243 6 242 l 9 235 b 8 229 9 232 8 230 b 12 223 9 226 10 224 b 13 216 12 220 12 217 b 48 217 13 215 28 216 b 55 219 51 217 54 217 b 142 229 100 216 128 227 b 149 230 143 227 147 232 b 149 222 150 229 149 223 b 156 126 156 190 153 158 b 156 117 156 123 156 120 l 156 108 b 157 90 156 102 157 97 b 158 77 157 85 157 81 b 190 66 167 67 175 67 b 206 58 194 63 201 59 b 214 54 208 55 211 54 b 215 52 215 54 215 52 b 229 52 219 51 225 52 b 233 51 231 52 231 51 b 243 48 239 49 242 49 b 250 42 253 47 242 48 b 261 47 253 45 257 47 b 272 42 265 45 267 42 l 283 47 b 289 44 286 47 288 44 b 292 48 289 45 292 48 b 304 49 296 49 300 48 b 309 62 303 55 309 58 l 309 72 b 308 81 309 76 308 79 b 308 176 310 113 310 144 l 308 185 b 309 194 308 188 309 191 b 311 219 311 202 312 210 l 312 230 b 349 232 318 232 343 232 b 388 232 361 233 375 233 l 395 232 b 408 138 405 201 399 169 b 409 130 408 135 408 133 b 411 122 409 127 411 124 b 416 34 411 92 411 63 b 415 24 416 30 416 27 b 415 15 416 22 413 17 b 424 9 419 15 422 12 b 452 12 433 17 441 8 b 467 2 456 6 465 8 b 474 8 474 2 467 9 b 481 5 477 6 478 5 b 491 4 487 6 490 0 b 498 0 492 5 498 0 l 501 1 b 510 1 508 0 505 2 l 513 0 b 514 2 514 0 513 1 b 516 1 516 2 516 1 l 521 1 b 524 0 523 1 524 0 b 533 2 528 1 528 5 b 541 4 534 1 539 5 b 553 1 545 2 548 1 b 563 4 556 1 560 2 b 575 2 567 4 570 2 b 582 5 578 2 580 2 b 577 26 579 12 577 19 b 576 31 577 29 576 30 l 576 45 b 576 59 576 49 576 55 l 576 72 b 571 219 576 122 573 170 b 570 233 571 225 571 229 b 580 239 573 236 576 239 b 689 229 618 231 653 232 l 701 229 b 714 227 706 229 710 227 b 721 233 719 226 717 233 b 733 237 726 233 729 236 b 739 247 733 242 739 243 b 738 250 739 247 738 249 b 739 255 738 251 739 253 b 738 258 739 257 738 257 b 742 276 742 262 743 272 b 744 282 746 276 744 279 b 746 283 744 283 746 283 b 751 293 747 287 747 293 b 756 312 750 300 754 307 l 756 319 b 757 322 756 321 757 319 l 756 323 b 760 335 756 328 758 330 b 757 337 760 335 757 336 b 757 343 757 341 760 341 l 757 347 b 754 350 757 348 756 348 b 754 354 753 351 754 354 b 749 361 753 358 750 359 b 746 366 747 362 747 365 b 742 367 746 368 742 366 b 739 373 740 369 740 372 b 732 379 738 376 733 378 b 724 386 729 382 726 384 b 714 390 721 389 717 390 b 597 391 674 398 636 387 b 585 394 593 391 587 391 b 576 395 583 395 576 391 b 579 398 578 395 579 397 b 578 445 580 415 578 430 b 579 458 578 449 578 454 b 579 465 578 460 578 463 l 589 469 b 693 473 612 479 669 465 b 724 474 703 476 714 472 b 747 493 739 480 746 477 b 749 504 749 497 749 500 b 750 534 751 514 751 525 b 757 552 758 536 756 544 b 758 555 757 554 758 554 b 750 588 761 567 746 574 l 744 592 b 744 597 744 594 744 597 b 743 601 742 597 743 599 b 739 602 742 602 739 599 b 733 609 739 604 735 609 b 731 613 732 611 729 609 b 611 625 690 618 651 623 b 597 626 603 625 599 623 b 588 626 596 628 588 626 b 586 632 586 625 588 632 b 589 643 588 634 588 639 b 589 654 589 647 590 650 b 588 768 589 691 585 730 b 588 778 588 771 588 775 l 588 787 b 563 800 580 793 570 796 l 552 796 m 412 395 b 412 383 411 391 412 387 b 412 373 412 380 413 376 b 404 372 409 373 406 372 b 316 373 376 367 342 372 b 315 379 316 376 315 378 b 313 384 313 380 312 382 b 316 465 315 412 312 438 b 319 475 316 467 316 472 b 365 476 332 477 349 480 b 404 477 376 473 390 477 b 408 472 404 474 406 473 b 413 407 416 455 411 427 b 412 395 413 402 413 398 "},"_":{"x_min":5.265625,"x_max":653.71875,"ha":664,"o":"m 653 34 b 644 52 648 41 648 47 b 645 62 646 57 645 61 b 646 66 644 65 646 65 b 644 70 648 68 644 69 b 645 80 644 73 645 76 b 646 89 645 83 639 87 b 641 100 638 90 646 94 b 646 109 642 102 646 107 b 644 128 641 116 644 123 b 645 133 644 130 642 132 b 639 145 641 137 639 140 b 641 148 636 146 641 147 b 631 145 641 151 631 146 b 645 158 628 149 645 153 b 636 175 643 165 639 171 b 638 179 636 176 639 178 b 635 185 638 180 635 182 b 633 194 636 189 632 189 b 629 214 633 197 631 212 b 601 218 626 221 606 218 b 582 219 594 219 587 219 b 561 221 575 221 568 221 b 542 222 554 222 549 222 b 521 223 535 222 528 223 b 438 218 493 222 465 219 b 417 217 431 217 424 217 b 403 217 413 217 407 217 l 388 217 b 365 217 381 217 372 217 l 346 217 b 153 214 282 217 217 211 b 133 214 147 214 140 214 l 114 214 b 97 212 108 214 103 212 b 64 214 86 212 75 212 b 61 211 63 215 61 211 b 57 214 60 211 58 214 b 14 215 42 214 29 215 b 11 204 11 212 13 208 b 10 176 8 194 4 185 b 8 168 7 176 10 171 b 6 158 8 164 3 162 b 8 151 8 158 7 155 b 8 139 10 144 10 143 b 13 116 7 129 11 123 b 11 109 13 114 11 112 b 13 107 11 107 13 108 b 11 102 14 105 11 104 l 14 101 b 14 87 15 96 14 90 b 17 86 14 86 17 86 b 18 75 18 82 17 77 b 22 48 19 64 24 57 b 26 48 22 47 25 48 b 24 43 28 47 24 43 b 29 27 26 37 29 34 b 38 15 31 22 36 20 b 49 16 44 14 42 14 b 60 11 51 14 57 14 b 79 12 67 11 72 11 b 97 14 85 12 92 14 b 140 19 111 15 125 18 b 157 22 146 20 151 20 b 175 25 164 23 169 23 b 235 30 194 26 215 29 l 254 30 b 293 33 267 32 282 30 b 290 34 292 33 292 34 b 421 39 333 34 378 39 l 443 39 b 507 36 464 39 485 39 l 529 36 b 550 36 536 36 543 34 b 570 34 557 34 563 34 b 650 27 577 34 645 23 b 653 34 649 30 650 32 "},"+":{"x_min":-0.390625,"x_max":541.8125,"ha":543,"o":"m 350 579 b 348 611 352 590 351 600 l 348 618 b 344 667 348 635 348 650 b 341 675 344 671 343 672 b 312 679 332 676 321 681 b 298 679 305 679 303 679 l 288 679 b 278 676 285 679 281 676 b 277 678 277 676 277 678 b 273 676 275 678 274 676 b 271 676 273 676 274 678 b 262 676 271 675 263 676 b 256 675 259 676 257 675 b 248 676 253 675 250 676 b 244 675 246 676 245 675 l 235 675 b 228 672 234 675 231 672 b 227 674 228 672 228 674 b 225 672 225 674 225 672 b 213 671 220 671 217 671 b 212 669 213 671 212 668 b 203 669 209 668 206 672 b 203 660 202 665 202 663 b 205 653 203 657 205 656 b 203 646 203 650 203 649 b 198 561 195 618 199 589 l 198 553 b 196 514 198 533 198 528 b 180 513 194 513 182 513 b 46 502 142 515 82 504 l 38 502 b 30 502 35 502 32 502 l 23 502 b 17 502 21 502 19 503 b 12 500 16 500 13 502 b 9 496 10 500 9 497 b 3 493 7 495 5 495 b 0 474 7 485 0 482 b 2 460 5 470 1 463 l 2 456 b 3 454 2 454 3 454 b 5 445 5 452 3 448 b 2 437 5 442 2 441 b 6 421 2 431 6 427 b 6 409 7 417 6 413 b 10 403 7 408 9 406 b 12 395 10 401 10 398 l 16 380 b 17 363 16 373 16 367 b 21 358 20 361 21 360 b 31 357 24 357 28 357 b 37 356 32 356 35 356 b 139 354 63 356 113 357 l 148 354 b 163 353 153 354 157 354 b 169 354 166 354 167 354 b 174 353 170 353 173 353 b 180 351 177 353 180 353 b 182 344 181 349 182 346 b 184 335 182 340 184 337 l 184 325 b 176 235 187 299 176 261 b 174 225 174 232 174 228 l 174 215 b 174 208 174 214 174 211 l 174 201 b 173 196 174 200 173 199 b 171 192 173 194 171 193 b 180 183 176 189 178 186 b 184 181 181 183 182 182 b 194 182 189 182 187 182 b 198 181 195 182 196 181 b 205 181 203 179 203 179 b 220 179 207 183 219 179 b 223 181 221 179 221 181 b 225 179 224 181 224 179 b 228 181 225 179 227 181 b 235 181 230 178 235 181 b 252 182 242 182 248 182 b 270 181 257 182 266 179 b 277 181 274 182 271 181 b 281 182 278 181 278 182 b 287 182 285 182 285 179 l 289 182 b 300 185 295 183 298 183 b 305 183 300 183 303 185 b 312 182 307 183 307 182 b 316 183 313 182 314 183 b 324 183 318 185 323 183 b 331 186 328 185 327 187 b 330 197 332 192 325 196 b 328 211 328 201 328 207 b 336 333 329 251 336 293 b 337 344 336 337 336 340 b 337 354 337 347 337 351 l 340 358 b 341 361 340 357 339 361 b 479 366 387 364 433 364 b 491 368 483 366 487 366 b 518 369 500 368 508 369 b 532 368 522 369 526 369 b 541 369 536 369 540 369 b 539 381 540 373 540 376 b 539 387 540 383 539 385 b 541 390 539 388 541 390 b 541 395 541 392 540 392 b 540 398 541 395 540 396 b 540 409 540 398 539 409 b 539 412 540 409 539 410 b 540 419 539 413 541 416 b 536 425 540 423 539 424 b 539 441 540 428 539 434 b 540 446 539 442 540 443 b 539 449 540 446 539 448 b 541 452 539 449 540 452 l 540 474 b 539 474 540 474 539 474 l 540 477 b 537 481 540 478 539 479 b 540 490 540 486 541 485 b 537 499 540 493 540 497 b 536 510 537 503 539 510 b 520 510 530 510 526 510 l 507 510 b 412 513 475 510 444 513 l 398 513 b 361 510 386 513 372 508 b 347 513 357 511 351 513 l 347 519 b 345 528 347 522 347 525 l 345 535 b 350 583 345 551 348 567 l 350 579 "},"‚":{"x_min":0.03125,"x_max":212.890625,"ha":282,"o":"m 79 -25 b 72 -59 79 -37 77 -48 l 72 -61 b 68 -77 72 -66 71 -72 l 66 -79 b 62 -86 65 -82 64 -84 b 54 -94 61 -90 57 -93 b 52 -96 54 -94 52 -94 b 40 -105 48 -98 44 -101 b 33 -109 38 -107 36 -108 b 27 -121 30 -112 29 -115 l 30 -122 b 64 -125 38 -126 54 -126 b 73 -123 66 -123 71 -123 l 86 -119 l 97 -115 b 109 -109 101 -114 105 -112 b 121 -104 114 -108 118 -105 b 175 -58 140 -89 161 -79 l 180 -48 b 212 69 201 -12 204 28 b 211 76 212 72 211 73 b 210 92 211 81 210 87 b 201 137 207 108 203 123 b 189 151 199 144 193 147 b 176 165 183 155 179 158 b 169 166 175 165 172 165 b 168 169 169 166 169 167 b 167 170 167 169 165 169 b 164 166 161 170 164 169 b 153 173 161 170 154 170 b 119 169 143 166 128 177 b 100 172 115 172 111 174 b 89 167 97 172 94 169 b 59 163 82 166 68 166 b 55 163 58 163 55 165 b 29 160 51 160 30 162 b 25 159 27 158 25 159 b 16 151 22 158 16 151 b 13 130 13 144 15 137 b 1 38 2 98 0 73 b 0 27 1 35 0 31 b 1 8 0 20 0 13 b 76 9 5 -4 66 16 b 77 -1 76 5 77 2 b 79 -8 77 -4 77 -5 l 79 -16 l 79 -25 "},")":{"x_min":0,"x_max":348.609375,"ha":349,"o":"m 344 340 b 347 384 347 355 347 369 b 348 400 348 390 348 394 l 348 427 b 347 448 348 434 348 441 l 345 469 b 344 490 345 476 345 483 l 343 509 b 341 550 343 523 341 536 l 337 572 b 322 636 334 593 329 615 l 315 658 b 291 725 308 680 300 702 l 283 743 b 276 761 280 748 277 754 l 266 779 b 247 813 261 790 254 802 l 234 833 b 222 851 230 838 226 844 l 198 883 b 195 894 197 886 197 890 b 186 904 190 891 190 901 l 181 904 b 180 905 180 904 180 905 b 137 911 168 912 151 908 b 127 914 133 911 130 914 b 111 911 119 914 115 911 b 106 914 109 911 108 914 b 97 908 104 912 101 908 b 91 911 95 908 94 911 b 73 908 83 912 79 908 b 66 908 66 908 68 912 l 62 908 b 0 895 41 904 19 905 b 1 891 0 894 0 893 l 4 876 b 43 798 23 855 26 822 l 52 783 b 76 734 61 768 70 752 l 84 715 b 97 683 88 704 93 694 l 101 668 b 105 655 102 663 104 659 l 108 643 b 131 434 130 576 133 504 b 130 412 131 427 131 419 l 129 372 b 126 352 127 365 127 358 l 123 331 b 119 309 122 325 120 316 l 115 286 b 109 265 112 279 111 272 l 102 245 b 97 226 101 238 98 233 l 91 208 b 86 190 88 202 87 197 l 79 173 b 72 155 77 168 75 162 l 66 137 b 48 83 59 119 54 101 b 40 68 43 83 43 75 l 38 66 b 34 56 37 62 34 58 b 33 54 34 54 33 54 b 34 22 30 44 33 33 b 44 19 37 19 41 20 b 58 15 48 19 56 15 b 62 18 59 15 59 18 b 63 15 62 18 62 15 l 69 12 b 76 9 72 12 73 11 l 86 8 b 105 5 93 6 100 12 b 113 12 105 9 111 9 b 127 2 118 8 120 4 b 158 0 138 4 151 1 b 194 2 172 -1 186 2 b 211 2 204 2 206 1 l 213 2 b 215 5 215 2 215 5 b 225 5 218 5 222 4 l 227 9 b 233 12 230 12 231 9 l 237 12 b 243 15 238 13 240 16 b 247 25 243 22 245 20 b 322 229 272 93 306 156 l 327 250 b 336 293 331 263 334 279 l 343 331 b 344 340 343 334 343 337 "},"'":{"x_min":0.1875,"x_max":211.890625,"ha":211,"o":"m 2 857 b 9 902 5 872 8 887 b 23 915 12 908 18 912 b 36 929 27 919 33 923 b 41 932 37 930 40 930 b 44 933 41 932 43 933 b 46 936 44 934 46 933 b 47 932 51 936 48 934 b 59 939 51 934 57 934 b 91 933 69 930 83 941 b 112 936 96 937 101 939 b 122 933 115 936 118 934 b 152 929 129 930 143 932 b 157 929 154 927 157 929 b 183 926 159 925 182 926 l 183 923 b 187 923 183 923 186 925 l 196 916 b 197 894 198 908 196 901 b 211 804 208 862 211 837 l 211 793 b 209 772 212 784 211 779 b 136 773 207 761 146 780 b 134 763 134 770 134 766 b 133 755 133 761 133 758 b 133 748 133 752 133 751 l 132 738 b 139 705 132 727 134 715 l 139 704 b 144 687 139 698 140 693 b 146 684 144 686 144 686 l 150 677 b 158 670 151 675 154 672 b 159 669 158 669 158 669 b 171 659 162 665 166 662 b 177 655 173 658 176 657 b 183 644 180 652 183 648 b 184 641 183 643 184 643 b 182 641 184 643 183 643 b 148 640 173 637 158 639 b 139 641 144 640 141 640 b 126 644 134 641 130 643 l 114 648 b 102 654 109 650 105 652 b 90 661 98 655 94 658 b 37 705 71 675 51 686 l 30 716 b 0 833 9 751 7 794 l 0 841 l 2 857 "},"T":{"x_min":0.5,"x_max":686.578125,"ha":686,"o":"m 0 896 b 0 882 3 893 4 885 l 0 876 b 6 868 3 875 6 873 b 3 847 1 864 4 855 b 1 840 3 844 1 841 b 3 836 0 837 3 837 b 0 834 3 834 1 834 l 0 830 b 1 827 1 830 1 829 l 1 826 b 3 822 1 825 1 823 b 4 814 3 819 4 816 l 4 809 b 3 807 3 809 3 808 b 7 791 6 804 6 797 b 8 772 7 784 7 779 b 13 769 8 770 11 772 b 25 767 17 768 21 768 b 63 764 38 765 50 764 b 228 757 118 758 172 757 l 236 757 b 238 752 235 755 238 754 l 238 744 b 236 659 238 716 238 687 l 236 616 b 239 486 235 573 238 529 b 239 459 239 476 239 468 l 239 437 b 239 415 240 430 239 422 l 239 390 b 238 363 239 380 239 372 l 238 341 b 238 100 231 261 239 180 b 236 80 238 93 238 87 b 235 62 236 75 236 68 b 233 40 235 54 233 47 l 233 18 b 236 16 235 18 235 18 b 239 15 238 16 238 15 b 242 15 239 15 240 15 l 253 15 b 276 16 261 15 268 15 b 324 16 292 16 308 16 l 371 16 b 404 13 382 15 394 15 b 408 13 406 13 407 15 l 410 13 b 415 12 411 13 414 13 l 417 12 b 429 13 419 16 425 11 b 429 50 431 25 429 37 l 429 87 b 428 105 429 93 428 98 l 428 129 b 426 376 429 211 426 293 b 428 397 426 383 428 390 b 429 419 428 404 428 412 l 429 438 b 432 459 431 445 431 452 b 432 477 432 465 432 472 l 432 497 b 433 511 433 501 433 507 l 433 526 b 433 538 433 530 433 534 l 433 558 b 435 745 436 620 433 682 b 436 754 436 745 436 752 b 453 754 442 757 447 752 l 468 758 b 660 758 532 764 596 755 b 675 760 665 758 671 760 l 679 770 b 679 782 679 773 679 779 b 681 795 681 786 681 791 l 685 826 b 686 853 685 834 686 844 b 686 858 686 855 685 858 l 686 890 b 686 894 685 890 686 893 b 683 907 686 897 685 905 b 682 915 683 910 682 914 l 681 915 b 679 921 681 917 681 919 b 678 924 678 922 678 924 b 675 926 678 925 676 925 b 675 928 675 926 676 928 b 674 928 675 928 674 928 l 669 934 b 667 935 669 934 668 934 b 651 935 661 935 657 935 l 636 935 b 617 937 630 937 624 937 l 599 937 b 581 937 592 937 586 937 l 561 937 b 383 929 501 937 443 922 b 368 931 378 929 372 931 b 336 932 357 932 347 932 b 138 931 269 934 204 925 b 104 929 125 931 114 934 b 99 932 101 929 100 932 b 85 931 94 932 90 931 b 8 929 61 931 32 931 b 6 924 7 929 6 927 b 4 917 6 921 4 918 b 3 912 4 915 4 914 l 3 911 b 1 910 3 910 1 910 b 0 903 1 908 1 904 l 0 896 "},"a":{"x_min":18,"x_max":812,"ha":833,"o":"m 338 871 b 360 871 345 871 353 871 l 363 871 b 419 869 380 869 401 871 l 451 869 b 483 869 462 869 473 869 l 484 869 b 487 871 484 869 487 871 l 491 871 b 499 871 492 869 495 871 b 530 869 508 869 520 868 b 541 869 534 871 537 871 b 542 868 541 868 541 868 b 544 866 542 866 544 866 b 557 844 546 858 552 851 b 569 829 560 839 566 834 b 641 630 587 758 612 694 b 652 604 645 622 649 614 b 662 580 656 595 659 587 b 680 529 667 562 674 545 l 713 423 b 746 327 723 391 737 361 b 753 301 749 319 752 309 b 810 58 774 220 791 140 b 812 50 810 55 812 52 b 812 44 812 48 810 45 l 812 40 b 791 36 805 38 799 37 l 787 33 b 778 32 784 33 781 32 b 771 30 777 30 774 30 b 766 27 770 29 768 27 b 760 26 764 27 763 26 b 753 23 760 25 756 25 b 748 22 752 23 749 22 b 741 19 745 20 742 20 b 739 19 739 19 741 19 l 738 19 b 735 18 738 18 737 18 b 727 15 734 18 730 16 b 723 13 725 15 724 15 l 719 13 b 709 9 717 12 712 11 b 610 -6 678 2 645 -1 l 596 -8 b 588 5 594 -4 589 0 b 563 97 580 36 578 68 b 553 116 560 104 557 109 b 546 123 552 119 549 120 b 539 123 544 123 542 122 b 535 125 537 123 537 123 b 338 107 469 122 403 112 l 320 107 b 301 108 313 107 308 108 b 290 107 297 108 292 108 b 281 102 287 107 284 102 b 276 94 278 100 277 97 b 269 84 273 91 272 87 b 253 59 265 76 259 68 b 202 -11 240 33 216 15 b 198 -12 201 -12 198 -11 b 162 -18 185 -13 174 -18 b 79 -12 134 -15 106 -12 b 23 7 59 -13 44 4 b 19 5 22 5 22 7 l 19 7 b 19 11 20 7 20 8 b 18 13 19 11 18 13 b 20 23 18 16 19 20 b 22 32 20 25 20 27 l 26 47 b 33 76 27 57 30 66 b 51 130 38 94 44 112 b 59 155 54 138 56 147 l 67 180 b 116 307 83 223 99 265 b 127 333 120 316 123 325 b 134 354 129 340 131 347 b 144 375 137 361 141 368 b 154 397 148 382 151 390 b 163 419 158 404 160 412 b 173 444 166 427 170 436 b 183 470 176 454 180 462 l 191 497 b 201 522 194 505 198 514 b 210 548 205 530 208 539 b 222 573 215 557 217 565 b 327 848 256 665 295 755 b 328 855 327 851 328 854 b 331 865 330 859 330 862 b 333 866 331 866 333 866 b 337 871 334 869 335 869 l 338 871 m 444 586 b 437 572 442 580 440 576 b 430 558 434 566 431 562 b 426 544 427 552 427 548 b 403 486 420 523 412 505 l 399 475 b 394 461 398 470 396 465 b 390 447 392 457 391 452 l 385 436 b 383 423 385 432 384 427 b 340 327 371 390 358 358 b 338 313 338 323 341 318 b 331 304 335 311 333 308 l 330 294 b 335 288 334 294 334 290 l 338 288 b 346 286 341 287 345 286 b 352 284 348 284 349 284 b 359 283 355 284 355 283 b 360 282 360 283 360 282 b 376 280 366 280 371 280 l 385 280 b 523 287 431 287 477 291 b 533 293 527 287 530 290 b 542 300 535 295 538 298 b 548 301 544 300 545 301 b 545 313 546 305 545 309 l 541 327 b 538 340 541 332 539 336 b 535 351 537 343 537 347 b 530 376 534 359 531 368 l 521 402 b 519 411 520 405 520 408 l 514 419 b 512 429 513 422 512 425 b 509 437 510 432 510 434 b 466 569 498 483 485 527 b 463 579 464 572 464 576 b 462 583 462 580 462 583 b 458 587 460 584 458 584 b 444 586 452 587 449 584 "},"—":{"x_min":-14,"x_max":968,"ha":968,"o":"m 948 495 l 954 495 l 965 366 l 968 358 l 961 329 l 5 329 l 2 349 l 5 397 l -4 394 l -14 505 l -8 509 l 711 509 l 709 512 l 938 527 l 948 495 "},"=":{"x_min":0,"x_max":518,"ha":518,"o":"m 501 452 b 490 449 497 450 494 449 b 476 449 486 448 481 449 l 448 449 b 356 453 418 450 387 453 b 344 454 352 454 348 454 l 330 454 b 318 454 326 454 322 454 l 305 454 b 277 456 297 454 287 456 l 268 456 b 220 454 252 457 236 454 b 206 453 216 454 212 454 l 193 453 b 108 454 165 452 136 452 b 95 456 104 454 100 454 b 70 457 87 456 79 457 b 65 457 69 457 66 459 l 58 457 b 45 459 54 459 50 459 b 34 485 40 466 36 475 b 30 493 36 489 30 489 b 25 504 30 496 27 500 b 25 507 25 504 26 507 b 22 510 23 509 22 509 b 19 531 20 516 22 527 b 18 536 18 532 18 534 b 15 550 18 538 16 546 b 15 553 13 550 15 553 b 15 561 12 554 15 556 b 12 567 13 563 12 564 b 15 579 12 571 13 575 b 16 591 15 584 15 589 l 19 591 b 22 596 20 592 20 595 b 45 599 27 598 37 599 b 52 600 48 599 51 599 l 62 600 b 72 602 66 602 69 602 b 123 607 88 604 105 606 l 136 607 b 174 613 149 607 162 610 b 187 614 179 613 183 614 b 201 616 191 616 197 616 b 213 617 205 616 209 616 l 226 617 b 238 617 230 617 234 617 l 252 617 b 268 618 258 617 262 618 l 280 618 b 311 618 290 618 299 618 l 322 618 b 334 618 326 618 330 618 l 348 618 b 476 616 391 617 433 621 b 481 617 479 616 479 617 b 484 616 481 617 483 616 b 495 614 491 616 493 616 b 498 614 495 613 497 614 b 504 607 499 611 501 607 b 506 581 504 598 506 591 b 513 577 508 579 509 577 b 516 568 511 571 513 573 b 518 566 518 568 516 566 b 516 559 516 563 516 560 l 516 554 b 516 552 515 553 516 554 l 515 545 b 513 541 515 543 512 543 b 515 539 513 541 515 541 b 512 525 513 535 509 531 b 506 523 512 523 509 523 b 506 509 511 518 508 513 b 505 493 506 503 506 498 b 502 485 505 491 502 488 b 504 481 502 482 504 482 b 502 478 504 479 502 479 b 501 457 502 471 501 464 b 502 456 501 459 504 457 b 501 452 501 454 501 454 m 479 193 b 458 193 472 192 465 192 b 437 193 451 193 444 193 l 418 193 b 398 195 411 195 405 195 b 376 196 391 195 383 196 b 355 198 369 196 362 196 l 333 198 b 312 199 326 198 319 198 l 293 199 b 270 202 284 200 277 200 l 229 202 b 47 210 168 203 106 198 b 30 211 41 211 36 213 b 20 217 29 217 23 214 b 19 223 20 218 20 221 l 16 225 b 15 234 16 228 19 232 b 13 246 16 239 16 239 b 13 249 13 246 15 249 b 12 252 12 249 13 252 b 11 257 11 253 11 254 l 12 260 b 11 266 9 261 12 264 b 8 274 8 268 8 271 b 6 275 8 274 6 274 b 5 285 6 279 5 279 b 5 288 5 285 6 288 b 4 291 5 289 5 289 b 2 293 4 292 2 293 b 5 296 2 293 5 295 l 1 306 b 1 328 2 314 2 321 b 0 334 1 332 1 331 b 2 350 0 334 1 348 b 8 354 2 352 6 352 b 12 360 8 356 11 359 b 83 357 36 357 59 357 l 98 357 b 127 360 108 357 118 359 l 138 360 b 213 367 163 363 188 366 l 226 367 b 352 367 268 367 311 367 l 379 367 b 484 363 413 366 449 361 b 494 360 488 361 491 361 b 502 336 499 354 499 348 b 504 335 502 336 504 336 l 502 329 b 506 321 502 324 506 324 b 508 306 506 317 508 313 b 505 299 506 303 505 302 l 506 292 b 497 268 505 284 502 274 b 498 261 495 266 499 266 b 495 253 497 260 497 259 b 494 252 495 252 494 253 b 494 248 494 250 497 249 b 493 246 493 248 493 248 l 491 239 b 490 235 494 238 491 239 l 490 232 b 484 220 490 231 488 223 b 484 206 486 216 486 210 b 479 193 483 200 481 196 "},"N":{"x_min":0.0625,"x_max":689.546875,"ha":758,"o":"m 529 933 l 493 933 b 489 932 493 932 490 933 b 478 929 483 932 480 932 b 471 929 476 927 475 931 b 472 847 471 904 471 872 b 472 813 472 836 472 824 l 472 806 b 475 767 472 792 473 779 l 475 747 b 476 738 476 744 476 742 b 478 651 475 708 478 681 b 478 643 478 649 478 646 l 478 632 b 476 544 479 603 476 574 l 478 535 b 479 524 478 531 478 526 l 479 514 b 480 506 479 511 480 508 l 480 499 b 478 460 480 486 482 472 b 440 531 459 479 454 507 b 436 539 439 533 437 536 l 432 547 b 427 554 430 550 429 551 l 423 563 b 393 628 412 583 401 604 b 386 642 390 632 388 638 b 379 658 383 647 380 653 b 372 672 376 663 375 667 b 365 686 369 676 368 681 l 356 703 b 341 736 352 714 347 725 b 331 750 337 740 334 746 b 320 769 327 757 323 763 b 292 825 310 788 302 806 l 288 835 b 265 885 281 853 274 869 b 263 893 266 889 265 890 b 260 901 262 896 260 897 b 255 904 259 903 256 903 l 251 908 b 233 907 244 908 238 907 b 228 904 230 906 228 906 b 226 904 228 904 226 904 l 223 904 b 209 904 217 903 213 901 b 205 903 205 906 208 901 b 176 900 195 901 185 899 b 166 903 171 900 169 903 l 165 903 b 158 904 163 904 160 904 b 155 904 158 906 155 904 b 152 906 153 906 153 906 b 147 904 149 906 148 904 l 142 904 b 140 903 141 904 141 903 b 108 903 130 903 119 904 l 69 903 b 4 900 48 901 25 901 b 2 897 2 900 4 899 l 2 882 b 1 864 2 876 2 871 b 0 846 1 858 1 853 l 0 829 b 0 813 0 824 0 818 l 0 800 b 1 783 0 794 0 789 l 1 767 b 2 711 2 749 2 729 l 2 693 b 4 671 4 686 4 678 b 5 614 4 651 4 633 b 5 594 5 607 5 601 l 5 533 b 5 518 5 528 5 522 l 5 503 b 7 486 5 497 5 492 l 7 469 b 8 435 8 458 8 446 b 7 418 8 429 7 424 b 7 403 7 413 7 408 l 7 388 b 7 357 5 378 7 367 b 8 326 7 347 8 336 b 9 308 9 317 9 308 l 9 272 b 9 254 9 267 9 261 l 9 236 b 9 218 9 231 8 225 b 9 38 8 158 22 97 b 12 36 9 36 12 36 l 16 36 b 20 36 18 35 19 36 b 20 35 20 36 20 35 l 23 35 b 25 33 25 35 25 33 b 33 32 27 33 31 33 b 34 31 34 32 34 31 b 43 28 38 29 40 28 b 45 26 44 28 44 26 b 49 25 48 25 49 25 b 52 24 51 24 52 24 b 58 22 54 22 55 22 b 58 21 58 22 56 21 l 59 21 b 69 18 62 19 65 19 b 91 13 76 15 84 14 l 92 13 b 102 11 95 13 98 13 b 104 11 102 11 102 11 l 106 11 b 119 10 110 10 115 10 b 126 8 120 7 126 8 b 127 7 127 8 127 7 b 137 7 131 7 134 8 l 140 7 l 153 7 b 160 7 153 8 158 7 b 205 17 177 8 191 13 b 203 25 206 19 202 21 b 205 29 205 26 205 28 b 206 31 206 29 206 31 l 206 36 b 208 49 205 42 206 44 b 209 67 209 54 209 60 b 210 85 210 72 210 78 b 213 100 212 90 212 96 b 212 118 212 107 212 113 b 210 138 212 125 210 131 b 209 169 210 149 209 158 b 208 203 208 181 208 192 b 208 221 208 210 208 215 l 208 256 b 206 328 208 281 206 304 b 205 353 206 336 205 344 b 206 396 205 367 206 381 b 208 410 208 400 208 406 b 209 440 209 419 209 431 b 208 532 209 471 206 501 b 240 454 220 507 228 479 b 253 429 244 446 248 438 l 258 418 b 265 399 260 413 263 406 b 309 300 278 365 294 332 b 319 281 313 294 316 288 b 359 203 333 254 347 229 l 362 196 b 407 115 377 169 395 144 b 416 99 409 110 412 104 b 426 82 419 93 422 88 b 437 64 430 76 433 69 b 447 47 440 58 444 53 l 455 35 b 461 22 457 31 459 26 b 462 13 462 19 462 17 b 476 15 469 13 472 14 b 480 11 478 14 478 11 b 514 11 493 10 504 11 l 525 11 b 528 13 526 11 526 13 l 537 13 b 540 15 539 14 539 15 b 548 19 543 18 546 18 l 550 19 b 565 21 555 21 561 19 l 568 21 b 579 24 572 21 576 21 b 583 21 583 25 582 21 b 585 25 586 21 583 25 b 593 22 589 25 590 24 b 635 32 606 26 622 29 b 643 33 639 33 640 33 b 678 40 657 36 668 36 b 681 54 679 44 681 50 b 678 69 681 60 678 67 b 679 75 678 72 679 74 b 681 93 679 82 679 88 b 681 154 681 114 681 135 l 681 175 b 679 214 679 188 679 200 b 679 232 679 219 679 226 l 679 251 b 681 329 681 278 681 303 l 681 369 b 681 400 682 379 681 390 l 681 432 b 684 529 679 464 682 497 l 684 549 b 684 567 684 554 684 561 l 684 586 b 685 604 684 592 685 599 b 684 622 684 610 684 615 b 684 639 684 628 684 633 l 684 657 b 684 676 684 664 684 669 l 684 713 b 688 908 690 778 686 843 b 689 938 689 924 689 938 b 665 932 681 935 672 933 b 664 931 665 931 664 932 l 663 931 b 660 931 661 931 660 931 b 657 931 658 931 657 931 l 651 929 b 650 931 651 929 650 931 l 647 931 b 642 929 646 931 643 929 l 640 931 b 638 929 639 931 638 929 b 635 931 638 929 636 931 b 632 929 633 931 633 929 b 631 931 632 929 631 931 l 628 931 b 625 931 626 931 626 931 l 622 931 b 619 931 621 931 621 931 b 615 931 617 931 615 931 b 610 931 613 931 611 931 l 608 932 b 603 931 606 932 604 931 b 600 932 603 931 601 932 b 596 932 597 932 597 932 l 593 932 b 590 932 592 932 592 932 l 587 932 b 585 932 586 932 586 932 b 529 932 567 931 548 932 l 529 933 "},"2":{"x_min":-0.421875,"x_max":665.28125,"ha":735,"o":"m 11 185 b 22 17 13 130 22 74 b 156 15 66 16 112 16 l 184 15 b 211 15 193 15 201 15 l 236 15 b 288 12 254 13 272 13 l 316 10 b 329 9 320 10 325 9 l 343 9 b 452 8 379 6 413 8 b 555 0 487 9 518 2 b 593 2 568 0 580 0 b 605 5 597 2 601 3 l 618 8 b 631 5 623 8 627 3 b 650 15 638 5 645 9 b 656 35 654 20 656 27 b 659 42 659 38 658 38 b 658 45 659 44 656 44 b 659 51 659 47 659 49 b 659 55 659 52 659 53 l 659 59 b 659 67 659 62 659 65 b 659 70 659 69 661 69 b 661 72 656 72 661 72 b 659 74 661 72 662 74 b 658 84 654 73 665 81 b 665 92 661 87 659 90 b 662 98 665 94 661 97 b 659 103 665 101 661 102 b 659 110 659 106 662 109 b 659 122 658 112 661 116 b 656 128 659 124 658 127 b 659 131 656 130 659 131 l 656 134 b 652 147 655 137 658 142 b 644 180 654 158 645 169 b 620 184 636 184 627 184 l 581 183 b 562 183 575 183 568 183 l 530 183 b 498 181 519 183 508 181 l 466 181 b 436 181 456 181 445 181 l 412 181 b 384 181 402 181 394 181 l 356 180 b 275 181 329 180 302 180 b 247 183 265 181 256 183 l 231 183 l 229 201 b 225 228 226 210 225 219 b 226 253 225 237 225 245 b 230 341 227 266 223 331 b 256 370 236 352 244 362 b 280 384 263 376 272 380 b 363 416 305 398 334 406 l 391 423 b 647 681 526 434 633 548 b 650 722 648 695 650 708 b 650 759 651 734 651 747 b 638 833 648 784 645 809 b 625 870 634 845 630 858 b 606 905 619 881 613 894 b 580 933 598 915 590 924 b 551 958 572 942 562 951 l 527 976 b 394 1040 486 1005 440 1027 b 348 1041 379 1042 365 1042 b 326 1037 341 1041 334 1040 l 305 1033 b 258 1019 288 1028 273 1023 l 234 1010 b 212 1003 227 1009 219 1006 b 191 994 205 1001 198 998 b 41 876 136 960 84 923 b 29 859 37 870 33 865 b 0 801 15 837 12 817 b 31 770 -4 794 23 774 b 50 758 37 766 44 762 b 58 749 52 755 55 752 l 75 734 b 86 724 79 731 81 727 b 91 719 87 724 90 720 l 100 712 b 165 716 120 690 151 685 b 184 742 172 724 177 734 l 190 749 b 195 755 191 751 194 752 l 195 756 b 205 766 198 759 202 762 l 218 776 b 223 780 219 777 222 778 l 227 783 b 231 787 229 784 230 785 l 254 799 b 272 810 259 803 266 808 l 291 819 b 379 831 318 833 350 838 b 408 822 390 830 400 826 b 429 808 416 817 423 813 b 445 784 436 801 441 794 b 455 756 450 774 454 766 b 456 730 456 748 456 738 b 444 680 456 712 450 695 b 431 659 440 673 436 666 b 379 608 418 638 400 622 b 356 595 372 603 365 599 l 334 584 b 231 558 301 576 266 567 l 198 547 b 165 533 187 542 175 538 b 133 515 154 527 143 522 b 112 499 126 509 119 505 l 94 483 b 76 463 87 477 81 470 b 61 442 70 456 65 449 b 36 395 50 427 43 412 l 25 373 b 11 231 11 345 11 273 l 11 185 "},"j":{"x_min":-0.234375,"x_max":556.984375,"ha":626,"o":"m 124 316 l 124 322 b 119 324 123 323 120 323 l 115 329 b 96 331 109 329 102 330 b 84 334 92 331 88 333 b 80 334 83 334 83 334 b 69 337 77 336 71 336 b 59 340 66 337 62 338 b 49 342 56 341 52 341 l 45 344 b 41 345 44 345 44 344 l 38 345 b 23 342 34 345 28 342 b 20 340 23 340 20 341 l 6 336 b 1 324 3 333 2 329 l 0 322 b 1 317 2 322 1 319 b 5 301 2 312 5 306 b 10 127 0 242 5 186 b 13 109 12 122 12 115 b 56 -1 17 70 30 31 l 62 -1 b 70 -15 62 -8 70 -8 b 77 -15 73 -15 76 -13 b 115 -43 88 -27 103 -30 b 123 -41 117 -44 123 -38 b 140 -54 126 -50 135 -51 b 202 -76 158 -63 181 -69 b 224 -79 209 -77 217 -77 l 226 -80 b 228 -81 227 -81 227 -81 l 230 -83 b 246 -83 234 -86 240 -81 b 249 -84 248 -83 249 -84 b 253 -86 251 -84 252 -86 b 259 -88 255 -87 258 -88 l 283 -93 b 295 -94 288 -93 292 -94 b 296 -95 296 -94 295 -95 b 308 -97 299 -97 303 -97 b 320 -98 312 -98 317 -98 b 351 -100 328 -100 342 -100 l 359 -95 b 378 -91 365 -94 371 -93 l 384 -91 b 384 -90 384 -91 384 -90 l 389 -90 b 391 -87 389 -90 391 -88 b 392 -86 391 -87 392 -87 l 395 -86 l 399 -86 b 412 -79 403 -81 408 -81 b 414 -77 413 -77 414 -77 b 417 -76 416 -77 417 -76 b 419 -75 419 -76 419 -76 b 421 -73 420 -75 421 -73 b 423 -73 421 -72 423 -73 b 427 -68 426 -72 426 -69 l 428 -68 b 428 -65 430 -66 428 -66 b 434 -62 431 -63 432 -62 b 437 -58 435 -61 437 -59 b 449 -47 441 -55 446 -50 b 453 -41 452 -44 452 -43 b 460 -40 455 -40 459 -41 b 463 -31 462 -38 462 -34 b 470 -26 464 -29 467 -27 b 471 -20 471 -25 470 -22 b 477 -22 473 -22 474 -22 b 480 -11 478 -18 478 -13 b 481 -9 478 -9 481 -9 b 482 -5 482 -8 482 -6 b 485 -2 484 -5 484 -4 b 487 -1 485 -1 487 -1 b 488 2 487 1 488 1 l 491 5 b 492 6 491 6 491 6 l 492 8 b 492 11 494 9 492 9 b 495 12 494 11 494 12 l 495 15 b 498 22 496 16 496 19 b 498 23 499 22 498 23 b 499 24 499 23 499 24 l 500 24 b 500 26 500 24 499 26 b 503 30 500 29 502 29 b 527 111 514 56 523 83 l 531 140 b 537 230 534 169 535 199 l 537 259 b 538 365 540 295 540 330 l 538 391 b 537 417 538 401 538 409 b 551 717 534 519 542 617 l 554 745 b 555 770 554 753 554 762 b 555 795 555 778 555 787 l 555 815 b 556 834 555 822 556 827 b 556 859 556 844 556 852 l 556 872 b 555 878 555 873 558 874 b 549 878 554 876 551 878 b 547 878 548 878 548 878 b 542 878 544 878 544 878 l 538 878 b 530 881 535 880 533 880 b 523 880 527 880 524 880 b 514 881 520 880 517 881 b 507 880 513 881 510 881 b 498 883 505 881 500 883 b 494 885 496 884 495 885 b 492 884 494 885 492 884 l 491 885 b 488 884 489 885 489 884 l 487 885 b 480 885 484 885 481 885 b 474 887 477 885 474 887 b 473 888 474 887 474 888 l 471 887 b 463 891 469 888 463 890 b 459 892 463 891 460 892 b 457 891 459 892 459 891 b 456 894 457 892 457 892 b 452 895 453 894 453 895 b 448 895 452 895 449 897 b 442 894 446 897 444 894 b 437 897 441 894 439 895 b 434 894 437 895 435 894 b 403 894 426 884 412 885 b 401 895 402 894 402 895 b 398 897 401 895 399 895 l 394 894 b 392 892 392 894 392 892 b 389 892 391 892 389 892 l 387 892 b 366 891 383 891 374 891 b 360 892 363 888 363 892 b 363 887 358 890 363 890 b 349 887 359 887 352 884 b 347 884 347 887 348 884 b 341 881 345 881 342 883 b 337 878 339 881 339 878 b 337 873 337 877 338 874 b 339 859 333 869 338 863 b 337 853 339 858 338 855 b 335 828 337 845 335 837 b 333 803 334 820 334 812 b 331 781 333 795 333 788 b 330 758 331 773 331 766 b 327 699 330 738 328 719 b 326 672 327 690 326 680 b 324 644 324 662 324 652 b 323 615 323 634 323 624 b 321 585 321 605 321 595 l 321 558 b 320 529 320 548 320 538 l 320 501 b 321 474 320 492 320 483 l 321 444 b 323 415 321 434 323 424 l 323 386 b 310 168 324 315 327 238 b 299 133 308 156 303 144 b 258 86 290 113 288 77 b 227 116 242 90 231 101 l 223 127 b 221 143 223 133 221 138 b 220 154 220 147 220 149 b 219 208 219 172 219 190 b 219 223 219 212 219 217 l 219 238 b 217 249 217 242 217 245 b 202 276 215 259 210 269 b 201 280 202 279 202 279 b 195 281 199 280 195 279 b 187 288 191 281 191 287 b 180 288 185 290 183 288 b 174 294 180 291 178 294 b 173 299 174 295 174 299 b 158 304 167 301 160 299 b 153 302 155 305 156 301 b 146 306 151 304 148 305 b 130 316 138 308 134 312 l 124 316 "},"Z":{"x_min":0,"x_max":772,"ha":833,"o":"m 30 893 b 29 891 30 891 30 891 b 25 888 27 891 26 890 b 23 868 22 884 23 876 b 20 857 22 865 22 861 b 23 815 20 844 22 829 b 29 768 25 795 23 780 l 29 766 b 30 762 30 765 30 763 b 31 759 31 762 31 761 b 33 758 31 759 33 759 b 34 752 33 755 34 754 l 34 750 b 37 730 36 745 36 737 l 41 709 b 45 697 43 705 44 701 l 51 684 b 61 670 54 676 54 673 l 62 669 b 66 668 63 669 66 669 b 81 666 68 666 77 666 b 312 647 158 659 234 647 b 337 645 320 645 329 645 b 362 644 345 645 354 644 b 380 641 367 643 374 643 b 372 623 379 633 376 629 b 370 622 370 623 370 623 b 366 619 369 622 367 620 b 365 618 366 618 365 619 b 361 615 363 618 362 616 b 359 613 361 615 361 613 b 358 612 359 613 358 613 b 352 607 355 611 354 609 b 340 593 348 602 344 598 b 329 577 336 588 333 583 l 316 563 b 305 551 313 559 309 555 b 291 538 299 547 295 543 b 272 520 284 533 277 526 l 233 482 b 213 462 226 475 219 469 b 31 279 151 402 98 333 b 18 263 27 273 22 269 b 16 262 16 263 16 263 l 13 259 b 9 254 12 257 11 257 b 8 254 9 254 8 254 l 8 251 b 5 250 6 251 6 250 b 4 248 5 248 5 248 l 2 243 b 1 241 2 241 1 241 b 0 234 1 238 1 236 l 0 219 b 1 215 1 218 0 216 b 2 207 1 212 1 209 l 2 202 b 4 202 2 202 4 202 b 6 194 4 198 5 195 b 6 193 6 194 5 193 b 13 173 9 184 12 179 b 18 165 15 170 16 166 l 18 162 b 19 156 19 159 19 158 b 18 119 20 145 16 134 b 22 113 19 116 22 115 b 25 106 23 112 25 108 b 27 102 26 105 26 104 l 27 101 b 29 97 27 99 27 98 b 34 70 30 88 31 80 b 36 63 34 67 36 66 l 36 56 b 38 45 37 52 37 48 b 40 34 38 41 38 38 b 41 27 40 31 41 27 l 41 23 b 43 22 41 22 43 22 b 45 16 44 19 44 17 l 45 13 b 49 10 47 13 48 12 b 52 9 49 9 51 9 b 56 6 54 6 55 8 b 58 6 56 6 58 6 b 66 3 61 5 63 3 b 80 1 70 2 76 1 b 88 0 83 0 86 0 b 95 -1 91 -1 93 -1 b 126 -5 105 -4 116 -5 b 145 -4 133 -5 140 -5 b 270 -3 187 -1 229 -1 l 297 -3 b 527 -4 373 -8 450 0 b 545 -4 532 -4 539 -4 l 564 -4 b 590 -5 572 -4 580 -5 b 615 -7 598 -5 607 -7 b 640 -9 623 -8 632 -8 b 666 -12 649 -9 657 -11 b 674 -11 669 -12 673 -14 b 680 -9 677 -11 678 -11 b 683 -8 681 -9 681 -8 l 685 -8 b 687 -5 685 -7 687 -7 l 690 -5 b 691 -3 691 -4 691 -3 b 694 -3 692 -1 692 -3 b 697 1 694 -1 695 0 b 705 8 699 3 702 5 l 705 10 b 708 12 706 10 708 10 b 715 19 710 15 712 17 b 715 29 715 23 713 26 b 716 30 715 30 716 30 b 720 34 717 33 719 34 l 722 35 b 726 38 723 37 724 38 b 728 42 727 40 728 41 b 733 51 731 44 731 48 b 737 54 734 51 735 52 l 742 59 b 745 62 742 59 744 60 l 751 66 b 759 70 753 67 758 69 b 765 76 762 72 762 74 b 770 81 766 79 769 79 b 772 84 767 81 770 86 l 772 88 b 770 92 770 90 770 91 l 770 97 b 769 106 769 99 770 105 b 769 109 767 106 769 108 b 766 115 767 111 767 113 b 765 118 766 118 765 118 b 763 122 765 120 765 122 l 763 124 b 760 131 763 126 760 130 b 758 136 760 133 759 134 b 755 143 756 138 756 141 b 751 151 753 145 752 150 b 751 152 751 151 751 151 b 749 154 749 152 749 154 b 748 155 749 155 748 155 b 748 158 747 156 748 158 b 747 158 748 158 747 158 b 745 161 747 161 745 161 b 744 163 745 161 745 162 b 742 168 744 165 742 166 l 740 170 b 738 173 740 172 738 172 l 738 175 b 737 176 737 175 738 176 b 735 177 737 177 735 177 l 734 180 b 731 186 733 183 733 184 b 716 201 726 193 722 197 b 676 208 703 205 690 207 b 462 211 603 215 533 201 b 435 212 453 212 445 212 b 385 213 419 213 402 213 b 360 215 377 213 369 215 b 312 218 344 215 329 216 b 288 219 304 218 295 218 l 283 219 b 279 220 280 220 280 220 b 270 223 276 222 272 222 b 279 237 270 230 274 233 l 291 248 b 309 273 297 258 302 266 b 459 423 362 325 409 373 b 477 441 464 429 470 436 b 495 459 482 448 488 454 l 511 479 b 526 497 515 484 521 490 l 543 513 b 560 532 549 519 554 525 b 576 548 565 537 571 543 l 594 569 b 612 590 601 576 607 582 l 625 600 b 626 602 626 601 626 601 l 628 604 b 629 607 629 605 628 605 b 630 612 629 609 629 611 b 632 613 630 613 632 613 b 633 616 632 615 632 616 b 635 618 633 616 635 618 l 635 620 b 639 623 636 622 637 623 l 639 626 b 647 638 643 630 647 634 l 663 757 b 646 830 667 783 663 809 b 630 845 642 836 636 841 b 628 847 629 847 628 847 b 625 850 626 848 626 850 b 607 852 619 852 614 852 b 579 854 597 852 589 854 b 551 857 571 855 561 855 b 312 865 471 861 392 858 b 288 866 304 865 297 866 b 263 869 280 868 272 868 b 238 872 255 870 247 870 b 215 873 230 872 223 873 b 193 876 208 875 199 875 b 168 877 184 876 176 877 l 93 886 b 68 888 84 887 76 888 l 44 893 l 30 893 "},"u":{"x_min":23.984375,"x_max":629.390625,"ha":699,"o":"m 464 877 b 458 875 462 874 459 877 b 452 874 457 875 455 875 b 447 874 451 874 450 874 b 443 872 444 872 443 874 l 438 872 b 438 871 438 872 438 871 l 436 871 b 429 868 434 870 432 870 l 427 868 b 413 861 423 867 416 864 b 415 828 413 850 413 839 l 415 795 b 416 469 413 686 413 578 b 418 439 416 460 418 449 b 420 332 419 403 422 367 b 419 304 420 322 420 314 b 309 160 422 242 387 148 b 288 166 302 160 295 162 b 252 208 272 178 261 191 b 231 332 234 247 238 292 b 229 364 230 343 229 353 b 223 426 226 385 224 405 b 220 455 222 436 220 446 b 218 601 218 504 215 553 l 218 668 b 218 801 219 713 219 757 b 215 821 218 808 215 814 b 211 856 215 833 216 846 b 181 858 201 858 190 856 l 180 860 b 176 861 179 860 177 861 b 152 863 168 863 159 861 b 150 864 151 863 150 863 b 148 865 150 864 148 865 b 143 868 145 867 144 868 b 133 870 139 870 137 870 b 121 872 130 872 125 872 b 109 874 116 874 115 874 b 104 872 108 872 107 874 l 90 872 b 86 872 89 872 87 874 l 84 872 b 82 871 83 872 82 872 b 78 874 80 872 79 874 b 72 877 76 875 73 875 b 62 874 69 875 66 874 b 43 874 55 874 48 875 b 29 868 36 874 32 872 b 28 851 29 863 28 857 b 30 839 26 847 30 843 b 25 825 29 835 25 829 b 28 783 26 811 26 797 b 28 746 28 771 28 758 l 28 708 b 26 672 26 696 26 683 b 25 632 25 658 25 646 b 23 593 23 619 23 606 b 36 250 30 479 21 362 b 42 217 37 239 40 228 l 46 186 b 55 151 48 173 51 162 b 69 121 60 140 64 130 b 297 -9 112 35 207 -3 b 330 -10 308 -9 319 -10 b 489 25 386 -9 440 3 b 514 40 497 29 505 35 b 529 53 519 44 525 48 b 569 96 544 66 557 82 b 597 153 577 115 589 133 l 597 151 b 618 242 608 180 615 211 b 619 264 618 248 619 257 b 619 286 619 271 619 279 l 619 307 b 621 328 621 314 621 321 b 623 351 622 336 622 343 l 623 371 b 622 404 623 382 622 393 b 623 437 623 415 623 426 b 625 497 623 457 625 476 b 626 557 625 517 625 537 l 626 588 b 628 676 628 617 628 647 b 628 708 628 688 628 697 l 628 739 b 626 771 626 750 626 760 b 623 803 625 782 625 792 b 628 836 623 814 623 825 b 628 846 629 839 629 843 b 626 850 628 847 625 847 b 629 856 626 853 629 853 b 622 863 626 857 623 860 b 621 863 622 863 621 863 l 616 865 b 607 865 614 865 611 864 l 601 865 b 594 865 598 865 596 865 l 593 867 b 591 867 593 867 591 867 l 582 867 b 508 875 558 870 532 874 b 501 877 505 875 502 874 l 464 877 "},"1":{"x_min":0.234375,"x_max":228.421875,"ha":299,"o":"m 8 873 b 7 767 8 838 8 802 b 4 715 7 749 5 731 l 3 687 b 3 660 3 679 3 670 l 1 638 b 3 462 0 580 1 522 l 3 437 b 4 413 4 430 4 422 l 5 390 b 5 341 5 373 5 358 l 3 316 b 3 305 3 313 3 309 l 3 292 b 5 191 0 258 4 226 b 0 98 8 159 1 131 b 4 62 0 84 1 74 b 8 51 5 59 7 55 l 12 40 b 9 27 12 34 7 30 b 22 10 9 20 15 15 b 47 5 29 6 39 5 b 57 4 51 4 51 4 b 60 4 58 4 57 5 b 66 4 61 2 65 4 b 72 2 68 4 69 2 l 78 4 b 87 4 80 4 83 2 b 90 4 89 4 89 2 b 93 2 93 6 93 2 b 96 4 93 2 96 1 b 107 5 93 8 105 0 b 118 0 111 2 114 4 b 125 2 121 0 122 4 b 132 5 129 0 129 4 b 140 4 135 5 137 2 b 153 5 142 6 147 4 b 162 8 157 5 160 6 b 167 5 164 8 165 5 l 169 8 b 185 12 172 9 180 6 b 224 20 198 10 210 19 b 228 42 229 29 228 35 b 224 79 225 55 225 66 b 222 97 224 84 224 91 l 221 126 b 219 155 221 135 221 145 l 218 183 b 217 212 218 192 218 202 l 217 234 b 214 259 215 242 214 251 l 212 284 b 210 359 210 309 210 334 l 210 384 b 205 647 214 472 205 559 b 205 666 205 654 205 660 l 205 685 b 204 712 205 695 204 704 l 207 744 b 206 772 207 754 207 762 b 203 797 205 780 205 788 l 201 823 b 204 844 201 831 206 837 b 208 854 210 847 204 855 b 194 864 208 859 197 863 b 186 864 192 866 189 867 b 185 869 183 864 185 869 b 179 867 182 870 180 867 b 169 869 175 869 172 876 b 157 876 167 874 161 873 b 155 878 157 876 157 878 b 135 889 151 877 143 883 b 130 889 133 887 132 889 b 114 884 125 883 118 890 b 108 884 111 886 110 886 b 103 891 105 886 107 888 b 97 893 101 889 98 891 b 91 891 96 893 93 891 b 79 893 87 893 83 894 b 76 893 78 893 78 894 b 69 894 75 890 72 894 b 68 891 69 894 68 891 l 64 894 b 57 894 61 893 61 893 l 47 895 b 41 894 46 895 43 894 b 37 895 40 894 39 897 b 21 901 34 904 26 900 b 8 873 11 891 15 883 "},"k":{"x_min":12.59375,"x_max":881.109375,"ha":882,"o":"m 597 959 b 596 958 597 958 597 958 b 578 952 589 958 583 956 b 561 935 572 947 567 941 l 545 919 b 528 902 539 913 533 908 l 511 885 b 495 867 506 880 500 873 l 481 852 b 450 820 471 841 463 829 b 322 686 401 779 367 727 b 307 672 317 681 311 677 b 256 637 290 659 274 647 b 253 634 253 636 253 636 b 247 634 251 634 249 634 l 245 637 b 241 645 243 638 242 641 b 240 659 241 649 241 654 l 240 679 b 240 831 237 729 240 780 b 237 870 240 845 238 858 b 235 887 237 876 235 881 l 235 898 b 235 920 235 906 238 913 b 223 923 233 923 228 923 l 195 923 b 181 924 191 923 187 923 l 130 929 b 124 926 126 929 126 926 b 72 929 109 929 90 927 l 66 929 b 44 929 59 930 51 929 b 19 929 34 929 23 930 l 19 926 b 18 926 19 926 18 927 b 12 923 16 926 15 923 l 12 909 b 13 906 13 909 13 908 l 13 884 b 15 859 15 877 15 867 b 18 829 16 849 16 840 b 16 729 18 795 18 762 l 16 695 b 13 590 15 661 13 626 b 12 555 12 579 12 567 l 12 473 b 13 445 13 463 13 455 b 13 416 13 436 13 426 l 13 388 b 15 326 12 366 15 347 l 16 327 b 23 149 12 267 19 209 b 22 101 25 133 23 117 b 20 76 22 92 20 84 b 18 49 19 66 19 58 b 18 31 18 44 16 37 b 19 15 18 26 18 19 b 22 12 20 13 20 12 b 23 9 22 9 22 9 b 30 2 25 5 27 4 b 34 1 32 2 32 1 b 39 0 36 1 37 0 b 50 -2 41 -1 45 -1 l 51 -4 b 52 -4 51 -4 52 -2 b 61 -5 55 -4 58 -5 b 68 -7 63 -7 65 -7 b 73 -8 69 -7 70 -8 b 116 -15 87 -11 104 -14 b 124 -15 119 -15 123 -14 l 173 -15 b 176 -15 173 -14 176 -15 b 191 -14 183 -14 187 -14 b 212 -12 198 -14 205 -14 l 215 -12 b 223 -11 219 -12 221 -11 b 245 -5 232 -11 239 -8 b 244 47 244 11 244 31 b 243 65 243 52 243 58 b 245 258 241 129 245 194 b 244 287 245 267 244 277 l 244 315 b 243 327 243 319 241 323 l 244 327 b 244 329 244 327 243 329 b 245 330 244 329 245 330 l 245 333 b 246 334 245 333 246 333 b 247 336 246 334 246 336 l 249 336 b 250 337 249 337 250 337 b 251 338 251 337 251 338 b 254 340 253 338 254 338 l 256 340 b 332 409 283 359 304 387 b 335 409 333 409 335 409 l 338 412 b 343 416 340 413 342 415 b 346 417 345 416 345 417 b 351 422 347 419 349 420 b 361 422 354 423 360 422 b 363 420 363 422 363 422 b 365 419 365 420 365 419 l 372 406 b 381 399 375 405 378 402 l 389 391 b 465 302 414 362 443 336 b 472 291 468 299 470 295 b 488 269 478 284 482 276 b 615 99 531 212 571 155 b 629 83 620 94 624 88 l 643 66 b 657 37 649 58 651 47 b 668 36 658 33 664 36 b 717 38 683 37 700 37 b 722 38 720 40 721 38 b 729 40 725 38 728 40 b 746 41 738 40 740 40 b 764 42 753 41 757 41 b 811 47 779 44 796 44 b 835 49 818 47 829 48 b 836 49 835 49 836 49 l 842 49 b 867 52 850 51 858 52 b 868 54 867 52 868 54 l 870 55 b 871 58 870 56 871 56 b 874 61 872 59 872 61 l 874 63 b 875 65 874 63 875 63 b 876 69 875 66 876 67 b 879 76 878 72 878 76 b 881 80 881 77 879 80 b 854 127 874 97 864 112 b 821 172 843 142 832 158 b 788 215 810 187 799 201 b 757 256 778 229 768 242 b 743 277 753 263 747 270 l 728 298 b 674 370 710 322 692 347 l 660 388 b 646 405 656 394 651 399 b 528 562 604 455 565 508 b 525 573 528 566 525 570 b 531 588 525 579 528 584 b 699 770 586 652 650 702 b 710 784 703 774 707 779 b 714 788 711 787 713 787 b 717 792 715 791 717 791 b 715 799 717 795 717 797 b 715 804 715 801 715 802 b 714 806 714 804 714 806 l 714 808 b 713 813 713 811 713 812 l 711 815 b 710 817 710 816 711 817 l 710 819 b 708 822 708 820 708 822 b 707 823 708 823 707 823 b 706 826 707 824 707 824 l 706 827 b 704 829 706 829 704 829 l 703 834 b 701 836 701 834 701 836 b 699 841 701 837 699 840 b 697 844 699 841 697 842 b 695 849 697 845 695 848 b 692 855 693 852 693 854 b 689 859 692 856 689 858 l 689 861 b 688 863 688 862 689 862 b 686 867 686 865 686 867 b 683 870 685 869 683 869 b 682 874 682 872 683 873 l 679 877 b 678 880 679 879 679 879 b 676 881 678 880 678 881 l 676 883 b 671 891 674 887 672 890 l 668 894 b 668 895 668 894 668 895 l 664 899 b 657 908 661 902 660 905 l 645 920 b 638 926 643 922 639 926 b 628 935 633 929 631 933 l 620 944 b 613 949 618 945 615 948 b 611 952 611 951 611 951 b 604 959 608 955 606 956 l 597 959 "},"<":{"x_min":17,"x_max":581,"ha":581,"o":"m 325 369 b 357 382 336 373 347 376 b 383 398 365 387 374 393 b 410 416 392 405 400 411 b 432 432 417 422 425 426 b 558 521 475 461 517 491 l 558 536 b 557 541 558 537 557 540 l 557 547 b 550 578 554 557 553 568 b 529 646 544 601 537 623 b 522 664 526 651 525 657 b 519 671 521 665 521 668 b 517 676 519 671 517 675 b 503 707 512 686 508 696 b 497 717 501 710 500 714 l 472 697 b 447 679 464 691 455 685 l 415 655 b 128 461 310 583 240 523 l 128 454 b 107 439 117 454 111 446 b 83 421 100 433 92 426 b 60 405 76 414 69 405 b 51 398 57 404 54 401 b 40 386 44 394 43 390 b 17 368 37 383 17 372 b 19 365 17 366 19 366 b 21 361 22 364 19 362 b 26 358 22 359 25 359 b 29 351 28 357 28 352 b 39 347 32 350 37 348 b 43 336 42 344 42 340 b 53 329 44 332 51 333 b 128 268 57 316 118 276 b 158 241 137 258 147 250 l 187 218 b 219 195 198 211 208 202 b 251 170 229 187 240 179 b 499 0 311 127 439 43 b 501 9 500 2 500 6 b 536 87 510 37 522 62 b 581 183 553 116 564 152 b 344 345 525 223 399 302 b 337 351 342 348 339 350 l 337 358 b 332 361 335 359 333 361 l 325 369 "},"t":{"x_min":0.5,"x_max":686.578125,"ha":686,"o":"m 0 868 b 0 854 3 865 4 857 l 0 848 b 6 840 3 847 6 845 b 3 819 1 836 4 827 b 1 812 3 816 1 813 b 3 808 0 809 3 809 b 0 806 3 806 1 806 l 0 802 b 1 799 1 802 1 801 l 1 798 b 3 794 1 797 1 795 b 4 786 3 791 4 788 l 4 781 b 3 779 3 781 3 780 b 7 763 6 776 6 769 b 8 744 7 756 7 751 b 13 741 8 742 11 744 b 25 739 17 740 21 740 b 63 736 38 737 50 736 b 228 729 118 730 172 729 l 236 729 b 238 724 235 727 238 726 l 238 716 b 236 631 238 688 238 659 l 236 588 b 239 458 235 545 238 501 b 239 431 239 448 239 440 l 239 409 b 239 387 240 402 239 394 l 239 362 b 238 335 239 352 239 344 l 238 313 b 238 72 231 233 239 152 b 236 52 238 65 238 59 b 235 34 236 47 236 40 b 233 12 235 26 233 19 l 233 -9 b 236 -11 235 -9 235 -9 b 239 -12 238 -11 238 -12 b 242 -12 239 -12 240 -12 l 253 -12 b 276 -11 261 -12 268 -12 b 324 -11 292 -11 308 -11 l 371 -11 b 404 -14 382 -12 394 -12 b 408 -14 406 -14 407 -12 l 410 -14 b 415 -15 411 -14 414 -14 l 417 -15 b 429 -14 419 -11 425 -16 b 429 22 431 -2 429 9 l 429 59 b 428 77 429 65 428 70 l 428 101 b 426 348 429 183 426 265 b 428 369 426 355 428 362 b 429 391 428 376 428 384 l 429 410 b 432 431 431 417 431 424 b 432 449 432 437 432 444 l 432 469 b 433 483 433 473 433 479 l 433 498 b 433 510 433 502 433 506 l 433 530 b 435 717 436 592 433 654 b 436 726 436 717 436 724 b 453 726 442 729 447 724 l 468 730 b 660 730 532 736 596 727 b 675 732 665 730 671 732 l 679 742 b 679 754 679 745 679 751 b 681 767 681 758 681 763 l 685 798 b 686 825 685 806 686 816 b 686 830 686 827 685 830 l 686 862 b 686 866 685 862 686 865 b 683 879 686 869 685 877 b 682 887 683 882 682 886 l 681 887 b 679 893 681 889 681 891 b 678 896 678 894 678 896 b 675 898 678 897 676 897 b 675 900 675 898 676 900 b 674 900 675 900 674 900 l 669 906 b 667 907 669 906 668 906 b 651 907 661 907 657 907 l 636 907 b 617 909 630 909 624 909 l 599 909 b 581 909 592 909 586 909 l 561 909 b 383 901 501 909 443 894 b 368 903 378 901 372 903 b 336 904 357 904 347 904 b 138 903 269 906 204 897 b 104 901 125 903 114 906 b 99 904 101 901 100 904 b 85 903 94 904 90 903 b 8 901 61 903 32 903 b 6 896 7 901 6 899 b 4 889 6 893 4 890 b 3 884 4 887 4 886 l 3 883 b 1 882 3 882 1 882 b 0 875 1 880 1 876 l 0 868 "},"W":{"x_min":4,"x_max":1139,"ha":1174,"o":"m 369 46 b 376 46 372 47 374 46 l 386 47 b 390 48 388 48 390 48 b 395 50 392 50 394 48 b 488 293 431 129 459 211 b 495 315 491 300 493 307 b 505 339 498 322 502 330 l 513 362 b 522 387 516 371 519 379 l 530 411 b 536 427 531 416 533 422 b 577 537 558 472 561 484 b 613 394 583 489 606 441 l 618 369 b 650 225 626 321 633 271 l 654 208 b 666 158 659 191 663 175 b 672 127 669 148 670 137 b 677 94 675 116 676 105 b 681 91 679 94 680 91 b 700 90 687 90 695 91 b 705 90 702 90 704 90 l 718 90 b 723 89 719 90 720 89 b 733 89 726 89 730 89 l 737 89 b 790 86 755 87 775 87 b 820 86 800 84 812 84 b 823 87 822 86 822 86 l 841 87 b 854 89 847 87 851 87 b 897 96 869 90 884 93 b 898 104 897 98 898 102 b 900 107 898 107 898 107 l 900 109 b 900 115 900 112 900 114 l 905 137 b 911 158 907 144 908 151 b 1002 441 941 252 966 348 b 1012 466 1005 450 1008 458 l 1020 491 b 1027 512 1023 498 1025 505 l 1034 536 b 1052 582 1041 551 1047 566 b 1127 814 1079 658 1100 737 b 1133 833 1130 819 1132 826 b 1139 853 1136 839 1137 846 b 1137 861 1139 855 1137 859 b 1137 862 1139 861 1137 862 b 1139 868 1137 864 1137 868 b 1132 875 1137 871 1133 873 b 1130 876 1130 875 1132 876 b 1127 879 1129 878 1129 879 b 1122 882 1126 880 1123 882 b 1116 884 1119 883 1118 884 l 1107 890 b 1098 894 1104 891 1101 893 l 1086 903 b 1085 901 1086 903 1086 901 b 1083 903 1085 901 1085 903 l 1078 907 b 1076 907 1078 907 1076 905 b 1072 909 1075 907 1074 908 b 1064 914 1069 911 1065 912 l 1062 914 b 1060 915 1061 914 1061 914 b 1057 916 1058 915 1058 915 b 1053 918 1054 916 1054 916 l 1051 918 b 1050 919 1051 918 1050 918 b 1046 921 1047 919 1047 921 b 1045 921 1045 919 1045 921 l 1042 921 b 1039 922 1040 921 1040 922 b 1036 923 1036 922 1038 922 b 1033 923 1036 923 1035 922 b 1032 923 1033 923 1033 923 l 1028 923 b 1022 925 1026 925 1024 925 l 1019 925 b 1017 926 1018 925 1018 926 l 1014 926 b 1006 928 1011 926 1007 928 b 1000 928 1003 928 1001 928 l 997 928 b 996 928 997 928 997 928 l 989 928 b 972 926 983 928 978 928 b 971 926 972 926 971 926 l 969 926 b 964 925 966 926 965 926 l 962 926 b 955 925 961 926 957 923 b 947 923 952 925 950 923 l 943 915 b 938 908 941 914 940 911 b 937 905 938 908 937 907 b 937 904 936 904 937 904 b 893 778 922 862 911 819 b 883 748 890 768 886 758 b 877 734 880 744 879 739 l 855 679 b 850 668 854 675 851 672 l 845 655 b 836 626 841 646 838 636 l 830 612 b 826 597 829 607 827 602 l 822 584 b 816 571 820 580 819 575 b 813 559 816 566 815 562 l 809 541 b 806 532 809 537 808 534 b 787 491 802 518 798 502 b 768 543 777 507 773 525 b 761 559 765 548 763 554 b 755 573 759 564 756 569 l 747 594 b 726 659 738 616 731 637 b 720 675 725 665 723 669 l 716 689 b 711 702 713 693 712 698 l 706 716 b 701 733 704 722 702 727 b 695 748 700 737 697 743 l 693 755 b 680 758 688 755 686 758 b 676 761 677 758 677 759 b 673 758 673 761 675 758 b 669 761 670 758 670 761 b 665 761 668 762 668 761 b 665 762 665 761 665 762 l 656 762 b 649 765 654 762 651 764 b 645 765 648 765 645 764 b 638 766 644 765 641 766 l 636 766 b 623 769 633 768 627 768 b 622 769 623 769 622 768 b 618 772 620 771 618 771 b 609 769 615 771 612 769 l 605 777 b 597 775 601 777 601 773 b 590 777 594 776 591 776 b 586 777 588 779 587 777 l 583 780 b 565 782 577 780 570 780 l 551 782 b 537 783 547 783 543 783 b 536 783 537 783 536 783 l 526 783 b 488 783 515 784 501 784 b 474 782 486 783 479 782 l 472 782 b 469 780 470 780 470 780 b 458 777 466 779 461 779 b 456 776 456 777 456 776 b 455 775 455 776 455 775 b 451 773 452 775 452 773 b 448 772 451 772 449 772 b 445 769 448 771 447 771 b 443 768 445 769 444 768 b 434 761 440 766 437 762 b 433 754 436 759 434 757 b 431 750 433 753 433 751 b 362 571 412 689 383 632 b 356 552 361 565 358 559 l 344 519 b 337 500 342 512 340 505 b 319 468 331 489 326 477 b 317 458 317 466 319 462 b 304 491 313 469 308 480 b 298 508 302 497 299 502 b 294 526 297 515 295 521 l 290 544 b 270 636 283 575 277 607 b 266 658 269 643 267 651 l 262 678 b 256 698 259 684 258 691 b 251 716 254 704 252 709 b 245 734 249 722 247 729 l 241 752 b 236 772 238 759 237 765 b 229 790 233 777 231 784 b 223 809 227 797 224 804 b 215 829 220 816 217 822 l 205 843 b 192 855 201 848 197 853 b 160 858 181 857 172 857 b 119 858 149 858 134 859 b 108 857 115 858 112 857 l 105 857 b 95 855 104 855 98 855 b 90 855 94 854 91 855 b 58 854 81 854 69 854 b 49 855 55 854 52 854 l 33 855 b 4 855 27 855 9 855 l 15 819 b 23 794 17 809 20 801 l 26 783 b 34 736 29 768 31 751 l 40 714 b 47 690 42 705 44 697 b 54 666 49 682 51 673 b 67 612 58 648 62 630 b 74 586 69 604 72 596 b 92 511 80 561 87 536 b 99 486 95 502 97 494 b 160 207 123 393 142 300 l 165 189 b 174 148 167 175 172 161 b 180 126 176 140 179 133 b 187 105 183 119 184 112 b 192 89 188 100 190 94 b 199 72 194 83 197 77 b 201 68 199 69 199 69 l 201 64 b 204 62 201 64 202 64 b 204 61 204 62 202 61 b 206 55 205 58 205 57 b 234 54 216 52 224 55 b 238 52 236 54 237 52 l 255 52 b 266 51 259 52 263 51 b 283 50 272 51 279 50 b 288 50 286 50 287 50 b 297 50 292 48 294 50 b 311 47 301 48 306 48 b 329 46 316 47 323 46 b 334 46 330 46 333 47 l 369 46 "},"v":{"x_min":6.953125,"x_max":882.390625,"ha":917,"o":"m 419 257 b 417 265 418 258 418 262 b 408 288 414 272 411 280 l 400 312 b 393 333 397 319 396 326 b 387 354 392 340 389 347 b 376 390 383 365 379 377 b 310 584 357 456 333 520 l 293 629 b 278 674 287 644 282 659 b 269 695 275 681 272 688 l 224 820 b 212 849 219 830 215 840 l 212 858 b 208 859 211 859 210 859 b 207 863 207 861 207 862 b 201 874 204 867 203 870 b 196 886 200 879 199 883 l 190 886 b 185 884 189 884 186 884 l 183 883 b 182 883 183 883 182 883 l 180 883 b 175 886 178 883 176 884 l 171 886 b 167 884 169 884 168 884 b 161 883 165 883 164 883 b 151 886 158 883 154 884 b 147 886 150 886 149 884 l 143 886 b 137 886 142 884 139 886 b 117 883 130 884 124 883 b 114 886 117 886 114 884 l 112 886 b 111 884 112 886 112 884 b 107 883 111 881 108 883 b 96 881 104 883 100 881 b 68 879 90 880 74 881 b 62 876 67 877 64 877 l 61 876 b 33 867 53 873 39 874 b 11 859 25 869 18 863 b 12 829 1 851 10 837 b 55 713 26 790 42 751 b 78 655 62 694 71 674 b 89 627 82 647 86 637 b 100 601 93 619 96 609 b 110 570 103 590 105 580 b 119 541 112 561 117 551 b 129 511 122 530 125 520 b 137 479 132 500 135 490 l 158 413 b 165 391 161 405 164 398 b 172 368 168 383 171 376 b 179 344 175 361 178 352 l 194 293 b 207 263 197 283 204 273 l 211 248 b 217 234 214 244 215 238 b 224 213 219 227 221 220 b 247 134 232 187 240 161 b 254 111 250 127 253 119 l 268 64 b 275 43 271 57 274 50 l 283 19 b 314 -48 292 -4 301 -27 b 321 -51 317 -48 318 -49 b 342 -54 328 -52 335 -54 l 360 -54 b 376 -51 365 -52 371 -52 b 501 -48 418 -47 460 -44 b 529 -41 511 -49 519 -44 b 535 -20 530 -34 535 -29 l 546 -5 b 636 201 582 59 604 133 b 646 222 639 208 642 215 b 739 455 671 302 707 377 b 749 477 742 462 744 469 b 767 522 754 491 760 506 b 774 543 769 529 772 536 l 782 563 b 792 584 786 570 789 577 b 801 605 794 591 797 598 b 810 626 804 612 807 619 l 818 647 b 825 666 821 652 824 659 b 835 690 829 674 832 681 b 853 736 842 705 847 720 b 855 742 854 737 854 741 b 881 816 855 742 882 816 b 882 817 881 817 882 817 b 881 822 880 819 879 820 l 878 824 b 874 827 876 824 876 826 b 871 829 872 829 871 829 b 869 830 869 829 869 830 l 867 830 b 860 833 865 831 862 833 b 854 833 858 834 857 833 b 847 834 853 834 849 833 b 839 836 844 834 842 836 b 825 840 835 837 828 838 b 819 838 822 840 821 838 b 818 838 819 840 818 838 l 817 838 b 815 838 817 840 815 838 b 810 837 812 838 811 837 b 797 844 805 838 801 842 l 793 844 b 783 849 790 845 786 847 b 765 845 776 845 771 847 b 761 849 764 845 762 848 b 735 836 751 841 749 837 b 696 833 722 834 710 833 l 686 833 b 657 831 676 831 667 831 b 653 808 657 822 653 815 b 651 806 653 806 651 808 l 651 804 b 644 783 649 797 647 790 b 637 765 643 777 640 770 b 628 744 635 758 630 751 l 619 726 b 612 706 618 719 615 713 l 604 686 b 594 663 601 679 599 670 l 586 640 b 507 433 562 569 539 500 l 499 415 b 449 283 479 372 461 329 b 443 268 447 277 444 272 l 442 262 b 439 261 440 262 439 261 b 428 222 437 259 429 222 l 419 257 "},">":{"x_min":0,"x_max":565,"ha":565,"o":"m 255 369 b 224 382 245 373 233 376 l 198 398 b 172 416 188 405 180 411 l 148 432 b 22 521 105 461 63 491 l 23 536 b 23 541 23 537 23 540 l 25 547 b 30 578 26 557 27 568 b 51 646 36 601 43 623 b 58 664 54 651 56 657 l 61 671 b 63 676 62 671 63 675 l 77 707 b 83 717 80 710 81 714 l 108 697 b 133 679 116 691 124 685 l 165 655 b 452 461 272 583 341 523 l 452 454 b 473 439 463 454 470 446 l 496 421 b 521 405 503 414 510 405 b 530 398 523 404 527 401 b 541 386 537 394 537 390 b 565 368 544 383 565 372 l 560 365 b 559 361 558 364 560 362 b 553 358 559 359 555 359 l 551 351 b 541 347 548 350 544 348 b 537 336 540 344 538 340 b 527 329 535 332 528 333 b 452 268 523 316 462 276 b 423 241 442 258 433 250 l 392 218 b 362 195 383 211 372 202 l 330 170 b 81 0 269 127 141 43 l 79 9 b 44 87 70 37 58 62 b 0 183 27 116 18 152 b 237 345 56 223 181 302 l 244 351 l 244 358 l 248 361 l 255 369 "},"s":{"x_min":0,"x_max":680.703125,"ha":681,"o":"m 0 56 b 2 48 1 53 1 49 b 8 41 5 45 6 45 b 9 34 9 39 9 37 b 12 31 11 34 11 32 b 19 27 15 31 16 28 b 102 -35 44 3 72 -17 b 119 -39 108 -35 113 -36 b 120 -42 119 -40 120 -40 b 170 -61 137 -47 154 -54 b 198 -72 180 -65 190 -68 b 606 24 338 -144 506 -89 b 633 59 616 35 625 48 b 656 294 686 124 691 219 b 644 316 652 302 648 309 b 620 363 637 332 630 348 l 605 384 b 587 403 600 391 593 396 b 568 419 580 409 575 414 b 548 434 561 424 555 430 b 516 452 537 441 527 446 b 483 467 505 457 494 463 b 450 477 472 470 461 474 b 347 505 415 488 380 496 b 323 514 338 507 331 512 b 302 528 316 519 309 523 b 250 578 281 541 262 559 b 237 599 244 585 240 592 b 225 649 230 614 223 631 b 226 676 223 657 225 667 b 234 703 227 685 230 694 b 252 727 238 713 244 720 b 272 741 258 732 265 737 b 301 751 281 745 291 749 b 390 738 331 757 363 752 l 408 730 b 426 719 415 726 420 723 b 448 705 434 714 441 710 b 453 702 451 705 452 703 b 456 699 455 702 455 701 l 463 695 b 474 685 467 692 471 688 b 484 676 478 681 483 678 b 485 674 485 676 484 674 b 491 669 487 671 490 670 l 495 662 b 515 635 502 653 509 644 b 580 631 528 605 559 609 b 588 638 583 632 585 635 l 594 642 b 595 644 595 642 595 644 b 605 653 599 646 602 649 b 621 669 612 659 617 663 b 630 676 624 670 627 674 b 649 689 635 681 642 685 b 680 719 656 694 684 713 b 651 778 669 735 666 756 b 638 794 648 784 644 788 b 490 912 595 841 544 878 b 469 921 483 916 476 919 l 445 930 b 423 937 438 932 430 934 b 376 951 408 942 391 946 b 354 956 369 952 360 955 l 331 960 b 285 957 316 962 301 960 b 154 894 240 945 194 923 b 129 876 145 888 137 882 b 99 852 119 869 109 860 l 74 823 b 55 788 68 812 61 801 b 41 751 49 776 45 763 b 30 677 36 727 31 702 l 30 639 b 33 601 30 627 31 613 b 288 342 47 467 154 353 l 317 334 b 401 303 347 326 376 316 b 424 288 409 298 417 294 b 451 260 435 280 444 270 b 463 226 458 249 462 237 b 465 201 465 217 465 209 b 451 149 465 182 459 164 b 423 113 444 135 434 124 b 405 99 417 107 412 103 b 385 89 399 95 392 92 l 366 81 b 345 78 359 80 352 78 b 166 160 266 81 236 123 b 137 176 156 166 147 171 b 106 178 126 182 118 185 b 105 177 105 178 105 177 b 104 177 105 177 104 177 b 101 176 102 176 102 176 b 100 174 100 176 100 174 b 97 174 98 173 97 174 l 97 173 b 94 171 95 173 94 171 b 88 166 91 170 90 167 l 83 160 b 81 157 81 159 81 159 b 76 151 81 156 76 153 b 73 148 75 151 73 149 b 68 142 72 146 69 145 l 65 139 b 62 137 63 138 63 137 b 56 131 61 134 59 132 b 55 127 56 130 55 128 b 52 126 54 127 52 126 b 47 119 51 123 50 120 b 41 113 45 117 44 114 l 41 110 b 37 106 40 109 38 109 b 34 103 36 106 36 105 b 27 95 33 101 30 98 l 23 88 b 13 76 19 84 15 81 b 12 74 13 74 12 74 l 9 71 b 8 71 9 71 8 71 l 8 69 b 6 67 8 69 6 69 b 6 66 5 67 6 66 l 4 66 b 4 63 4 64 5 64 b 2 63 4 63 2 63 b 1 60 2 60 1 60 b 0 57 1 60 1 59 l 0 56 "},"B":{"x_min":45.4375,"x_max":789.109375,"ha":858,"o":"m 787 210 b 708 429 787 289 764 370 b 701 436 704 430 704 434 b 698 440 701 437 700 438 b 689 450 696 444 691 447 b 686 452 687 451 687 452 b 684 454 686 454 684 454 b 680 456 683 455 682 456 b 679 462 680 459 679 461 b 669 469 675 463 671 465 b 662 474 668 470 661 472 b 664 480 664 476 664 479 l 668 484 b 682 516 672 493 680 509 b 721 637 700 554 715 595 b 723 663 722 645 722 655 b 719 720 723 681 723 701 b 715 745 719 728 718 737 b 708 769 714 753 711 762 l 695 792 b 682 814 691 799 686 806 b 666 837 677 823 672 830 b 627 881 655 853 643 867 b 584 912 613 892 599 903 b 562 926 577 917 570 921 l 538 937 b 486 951 521 942 503 946 b 436 959 470 955 453 957 b 410 962 426 960 418 960 b 385 963 401 962 393 962 b 106 956 291 966 199 962 b 88 955 101 956 95 957 b 66 949 80 953 72 952 b 60 948 63 949 62 948 b 56 946 59 946 57 946 b 50 944 55 945 53 944 b 45 926 49 937 45 931 b 48 762 53 870 45 816 b 49 744 48 756 48 749 b 50 726 49 737 50 731 b 52 710 50 720 52 716 b 55 669 53 696 53 683 b 66 545 57 627 63 587 b 70 494 67 529 69 509 l 70 490 b 71 468 70 483 71 473 b 73 455 71 463 73 458 b 74 420 73 443 73 430 b 74 398 74 413 73 407 b 77 291 77 365 74 325 b 77 268 77 283 75 276 b 78 241 77 259 77 248 b 78 233 78 239 78 236 l 78 228 b 79 201 79 219 79 210 b 83 172 80 192 82 179 l 83 168 b 84 149 83 161 84 155 b 88 126 86 142 87 133 l 88 122 b 88 118 89 121 88 119 b 89 117 88 118 89 117 l 89 111 b 106 -40 94 90 102 -20 b 109 -54 106 -45 107 -49 b 112 -66 107 -59 110 -66 b 135 -66 120 -63 127 -63 b 169 -70 147 -69 158 -70 b 296 -77 211 -72 255 -65 b 337 -81 309 -80 323 -81 b 499 -69 392 -86 446 -79 b 518 -66 506 -68 511 -68 l 538 -62 b 576 -52 550 -59 563 -56 l 595 -48 b 621 -41 603 -45 612 -44 b 690 -12 644 -31 667 -23 l 706 -1 b 747 33 725 7 737 19 b 771 85 758 48 766 66 b 779 123 775 97 777 110 b 782 143 780 129 782 136 l 786 173 b 789 203 787 183 789 193 b 787 210 787 204 787 207 m 274 516 b 271 519 274 517 271 519 b 268 524 270 520 270 522 b 268 538 267 526 268 533 l 264 590 b 263 615 263 598 263 606 b 260 638 262 623 262 630 l 255 669 b 252 687 253 676 253 680 l 250 692 b 248 710 249 698 248 703 b 245 735 246 719 245 727 b 246 738 246 735 246 737 b 252 744 248 739 250 739 b 270 748 257 744 263 751 l 276 752 b 289 751 280 752 285 751 l 311 751 b 328 751 317 751 322 751 l 346 751 b 366 749 353 751 360 751 b 389 748 373 749 382 748 b 427 741 401 746 414 744 b 567 623 485 726 570 695 b 562 601 570 615 567 606 b 562 599 566 605 562 601 b 544 579 556 592 551 584 l 530 566 b 514 556 524 563 520 559 l 495 548 b 294 519 431 522 359 530 b 292 517 292 517 292 517 l 286 517 l 274 516 m 629 192 b 471 124 593 139 524 140 b 468 121 470 122 470 122 b 466 121 467 121 466 122 b 461 119 464 119 463 119 b 449 117 459 118 453 118 b 439 115 446 117 443 117 b 422 114 433 115 428 114 b 407 110 418 112 411 111 l 380 106 b 371 106 378 106 375 104 b 369 107 371 107 371 107 b 364 106 368 107 366 106 l 358 106 b 319 106 347 104 332 104 b 316 106 318 106 318 106 l 313 106 b 298 107 308 107 302 106 b 295 107 298 108 295 107 l 295 108 b 292 110 295 108 294 108 b 286 117 288 111 287 112 l 286 119 b 284 119 286 119 284 119 l 284 139 b 286 204 286 157 284 186 b 286 222 286 211 287 216 b 286 226 286 223 287 225 b 284 229 286 226 284 228 b 286 235 286 230 286 232 b 286 276 287 247 286 261 b 287 296 287 280 287 289 b 288 298 287 296 288 297 b 291 301 290 298 290 301 b 294 301 291 301 294 301 l 294 304 b 295 304 295 304 295 302 b 297 305 297 304 295 305 b 306 309 298 307 304 308 b 311 311 308 309 309 309 b 318 312 313 312 316 312 l 318 314 b 323 315 320 314 322 315 b 340 321 329 318 334 319 b 358 326 347 323 353 325 b 376 330 364 327 369 329 l 394 334 b 480 348 421 340 450 348 b 496 347 485 348 491 348 b 517 344 503 347 510 345 b 537 337 524 341 531 340 b 573 315 549 330 562 323 b 588 301 579 311 583 307 b 601 287 593 297 597 293 b 608 273 604 283 607 278 b 618 246 612 264 615 255 b 629 192 622 229 623 210 "},"?":{"x_min":-0.546875,"x_max":651.109375,"ha":651,"o":"m 374 609 b 353 590 370 608 356 592 b 333 574 347 586 340 580 l 315 559 b 297 540 308 552 302 547 b 281 519 291 533 285 526 b 256 472 270 504 263 488 l 245 449 b 233 369 237 433 234 401 l 231 356 b 235 304 231 338 233 320 b 281 308 251 306 265 306 l 294 309 b 330 311 306 311 317 311 b 342 311 334 311 338 311 l 392 312 b 408 312 398 312 402 312 l 424 312 b 445 312 431 312 438 312 l 447 327 b 447 337 447 329 447 333 l 447 352 b 456 409 444 373 448 392 l 462 422 b 540 494 481 451 515 467 l 579 529 b 647 688 616 573 641 629 b 650 727 648 701 650 713 b 650 765 651 740 651 752 b 638 838 648 790 645 815 b 625 876 634 851 630 863 b 606 911 619 888 613 899 b 580 938 598 920 590 930 b 551 963 572 948 562 956 l 527 981 b 394 1045 486 1011 440 1033 b 348 1047 378 1048 365 1049 b 326 1044 341 1047 334 1045 l 305 1038 b 258 1024 288 1034 273 1029 l 234 1016 b 212 1009 227 1015 219 1012 b 191 999 205 1006 198 1004 b 41 881 135 966 84 929 b 29 865 37 876 33 870 b 0 806 15 842 12 823 b 31 776 -4 799 23 780 b 49 763 37 772 44 769 b 58 755 52 761 55 758 l 74 740 b 85 730 79 737 81 733 b 91 724 87 730 90 726 l 99 717 b 165 722 120 695 151 691 b 184 748 172 730 177 740 l 190 755 b 195 761 191 756 194 758 l 195 762 b 205 772 198 765 202 769 l 217 781 b 223 787 219 783 222 784 l 227 788 b 231 792 229 790 230 791 l 254 805 b 272 816 259 809 266 813 l 291 824 b 379 837 317 840 349 844 b 408 827 390 836 399 831 b 429 813 416 823 423 819 b 445 790 436 806 441 799 b 455 762 450 780 454 772 b 457 736 457 754 457 744 b 444 686 457 717 450 701 b 431 665 440 679 436 672 b 398 629 422 651 411 640 l 374 609 m 461 144 b 463 76 463 122 462 98 l 465 65 b 465 31 465 54 465 42 l 463 22 b 457 17 461 22 457 22 b 442 17 451 15 447 17 b 434 8 441 13 433 16 b 413 1 430 5 421 3 l 406 0 b 313 1 374 -5 344 8 b 290 2 306 0 297 1 b 280 3 285 3 283 3 b 269 2 276 3 273 3 b 265 6 269 5 267 6 b 255 5 259 5 259 2 b 248 9 252 6 249 3 b 235 8 244 8 240 5 b 233 13 234 8 233 10 l 233 20 b 234 42 234 29 235 36 b 229 133 229 73 223 102 b 229 155 229 140 229 147 l 227 166 b 229 201 227 179 227 190 b 234 213 230 205 231 209 b 237 213 235 213 235 213 l 245 215 b 281 216 258 213 270 216 b 374 220 312 216 342 220 b 384 220 377 220 381 220 l 395 220 b 416 220 402 220 409 220 l 427 219 b 451 220 435 217 444 220 b 454 208 452 216 452 212 l 456 195 b 459 152 459 181 457 166 b 461 144 459 149 461 147 "},"H":{"x_min":69.8125,"x_max":693.03125,"ha":763,"o":"m 637 -81 b 641 -79 639 -79 640 -79 b 653 -78 646 -79 651 -78 l 655 -78 b 666 -75 658 -76 665 -75 l 669 -75 b 672 -75 669 -74 672 -75 l 679 -72 b 689 -69 682 -72 687 -71 b 690 -68 689 -69 692 -71 b 691 -65 691 -68 691 -67 l 691 -49 b 691 3 693 -31 693 -14 l 687 55 b 687 81 687 63 687 73 l 687 107 b 687 157 687 124 687 141 l 687 182 b 686 209 687 192 687 200 b 685 235 686 218 686 227 b 679 312 683 260 682 287 b 678 337 679 320 679 328 b 675 388 676 355 676 371 b 673 438 675 405 673 421 b 672 467 672 448 672 457 l 672 495 b 671 550 672 513 672 532 b 669 578 671 559 671 568 b 668 605 669 586 669 596 l 668 630 b 666 656 668 639 666 648 b 660 906 668 741 671 823 b 661 921 661 910 661 916 b 662 934 662 925 662 931 l 662 941 b 660 948 661 942 660 945 b 658 949 658 948 658 949 b 655 953 657 950 657 952 l 654 953 b 651 952 653 953 653 950 b 522 950 608 959 565 948 b 509 950 520 950 512 952 b 493 952 504 950 498 952 b 473 949 486 953 480 952 b 470 932 472 943 472 938 b 468 777 462 884 465 831 b 468 641 469 734 468 686 l 468 625 b 466 609 468 620 466 614 b 456 449 463 557 473 502 b 447 450 454 450 449 450 b 299 457 398 455 348 453 b 287 459 294 457 291 459 l 284 463 b 280 464 283 463 281 463 l 277 464 b 276 467 277 466 276 467 b 274 468 276 468 274 468 b 273 482 273 471 273 477 l 273 499 b 278 670 274 556 275 613 b 280 707 278 682 278 695 b 280 725 280 713 280 720 l 280 743 b 281 763 281 750 281 756 b 287 898 283 809 284 853 l 287 911 b 278 920 285 916 281 918 b 271 928 277 923 274 925 b 257 927 266 927 261 927 l 243 927 b 91 916 192 925 141 927 b 72 906 84 913 77 911 b 72 891 70 902 72 896 b 72 875 72 885 70 881 l 72 874 b 72 843 73 866 72 853 l 72 811 b 70 541 73 721 67 632 b 72 511 72 531 72 521 b 73 482 72 502 73 492 b 74 424 73 463 74 443 b 73 366 74 405 74 385 l 73 335 b 77 246 74 306 74 277 b 80 193 78 230 78 212 l 80 141 b 78 114 78 132 78 124 b 80 12 77 80 77 45 b 81 -14 80 3 80 -6 b 83 -39 81 -22 83 -31 b 83 -56 84 -44 84 -51 l 83 -62 b 83 -64 83 -62 83 -62 l 83 -65 b 81 -72 81 -67 80 -72 b 84 -72 81 -69 84 -72 b 88 -74 85 -72 87 -72 b 91 -74 88 -74 91 -75 b 94 -72 92 -74 91 -71 b 95 -75 94 -74 96 -72 b 264 -64 153 -72 207 -67 b 267 -60 266 -62 266 -60 b 268 -58 267 -58 268 -58 b 268 -56 268 -57 268 -57 l 270 -56 b 271 -25 273 -49 271 -36 b 270 -22 271 -24 270 -24 b 270 -7 268 -18 270 -12 b 268 5 270 -1 270 2 b 273 175 268 63 274 120 l 273 195 b 271 214 273 202 273 207 b 276 227 273 218 273 225 b 276 230 276 228 274 228 b 280 237 277 234 278 235 l 283 241 b 445 259 335 257 391 256 b 461 257 451 257 455 257 b 463 256 461 257 462 256 b 469 253 466 255 468 253 l 470 253 b 469 252 470 252 470 252 b 476 238 470 249 476 242 b 474 228 474 235 474 231 l 474 217 b 480 48 481 162 484 106 l 477 32 b 476 16 477 27 477 21 b 477 -53 474 -7 474 -29 b 479 -57 479 -56 477 -56 b 480 -60 479 -60 480 -60 b 483 -64 480 -61 481 -62 b 487 -69 484 -68 484 -68 b 507 -69 491 -71 500 -69 b 564 -71 526 -69 545 -69 b 583 -72 571 -71 579 -71 b 590 -72 586 -72 589 -71 b 591 -72 590 -74 591 -72 l 619 -76 b 623 -78 621 -76 622 -78 b 625 -78 623 -79 625 -78 b 626 -79 626 -78 626 -79 b 630 -81 628 -79 629 -78 l 637 -81 "},"c":{"x_min":9.59375,"x_max":740.859375,"ha":776,"o":"m 740 188 b 738 211 741 196 740 203 b 733 224 737 215 734 219 b 634 339 702 263 679 317 l 631 336 b 622 324 629 332 626 328 b 608 311 616 321 612 315 b 515 189 580 265 551 225 b 497 172 509 183 504 178 b 350 132 455 136 406 115 b 295 165 330 139 312 151 b 256 217 279 181 266 199 b 240 247 250 226 244 236 b 226 275 234 256 230 265 b 211 310 220 286 215 299 l 198 346 b 191 383 195 358 193 371 b 188 480 184 414 184 447 b 194 512 190 492 191 503 b 201 541 197 522 198 532 b 512 675 240 669 394 730 b 547 669 523 673 534 671 b 586 669 559 668 572 668 l 590 675 b 590 677 590 676 590 676 l 591 679 b 593 680 591 680 593 680 b 594 682 593 682 593 682 b 620 827 611 727 627 780 b 615 834 616 826 612 830 b 583 855 602 837 595 850 b 554 870 573 861 563 866 b 311 880 479 909 390 895 b 280 869 300 877 290 873 b 251 854 270 865 261 859 l 220 836 b 191 815 211 829 201 823 b 165 794 183 809 173 801 b 140 771 156 787 148 779 l 119 750 b 97 722 111 740 104 732 b 77 691 90 712 83 703 b 63 661 72 682 68 672 l 51 629 b 41 598 48 619 44 608 l 33 566 b 26 533 30 555 29 544 b 20 500 25 522 22 511 b 12 439 16 479 13 460 b 11 369 9 415 8 392 b 23 305 13 347 18 326 b 33 276 26 296 29 286 b 41 249 34 267 37 257 b 58 215 47 237 52 226 l 70 185 b 84 154 76 175 80 164 b 97 128 88 146 93 136 l 111 103 b 134 67 118 90 126 78 b 162 33 143 54 151 43 b 338 -71 213 -11 273 -49 b 397 -82 358 -78 377 -81 b 430 -81 408 -82 419 -82 b 463 -74 441 -79 452 -77 b 684 108 555 -39 626 32 b 720 163 697 126 709 145 b 726 168 722 164 726 167 b 729 171 726 170 729 171 l 729 172 b 730 174 729 174 730 174 b 731 175 730 174 731 175 l 731 176 b 737 183 734 179 736 182 b 740 186 738 185 740 185 b 740 188 740 186 740 188 "},"&":{"x_min":0.1875,"x_max":939.265625,"ha":939,"o":"m 563 524 b 619 449 583 499 601 474 b 672 379 637 426 652 401 b 763 442 702 401 732 423 b 807 465 777 449 791 458 b 829 465 813 467 820 469 b 840 459 830 463 837 459 b 852 449 841 459 851 449 b 857 442 854 447 855 444 b 862 437 858 441 862 440 b 872 424 862 433 869 427 b 887 409 877 420 882 415 b 918 370 897 395 908 383 b 929 355 922 365 926 361 b 939 344 930 352 934 344 b 933 332 940 340 936 333 b 929 325 930 329 929 328 b 922 315 927 319 926 318 b 879 283 908 304 893 293 b 788 226 848 262 818 246 b 825 171 797 205 812 189 b 845 141 832 161 839 151 b 862 112 852 133 861 125 b 840 86 854 105 850 93 b 833 77 837 83 836 80 b 827 72 832 74 829 74 b 826 68 825 70 827 69 b 822 68 825 66 823 69 b 818 62 820 66 819 63 b 807 54 815 58 809 58 b 801 50 805 51 804 51 b 798 44 798 50 800 47 b 795 43 798 43 795 44 b 793 37 793 41 794 38 b 780 37 788 38 784 36 b 773 31 782 33 776 33 b 772 30 772 31 770 31 b 770 27 773 27 772 29 b 768 29 770 27 769 29 b 768 26 768 29 768 27 b 732 5 758 16 743 12 b 687 15 718 -2 693 -2 b 670 36 684 24 677 29 b 651 58 663 43 658 49 b 616 109 638 73 627 91 b 583 90 604 105 593 97 b 543 65 569 81 557 73 b 505 41 530 56 519 47 b 463 24 491 36 477 31 b 297 4 412 1 352 -4 b 33 180 188 19 91 88 b 12 372 -1 237 -9 309 b 31 415 16 387 25 401 b 54 461 38 430 45 447 b 83 498 62 474 72 487 b 118 530 93 509 108 519 b 43 667 80 569 55 616 b 30 752 34 695 31 723 b 36 829 30 777 30 804 b 207 1033 54 920 125 992 b 280 1059 230 1044 255 1054 b 373 1065 312 1066 342 1066 b 458 1038 403 1063 432 1051 b 534 991 486 1026 511 1009 b 597 937 557 976 579 959 b 634 860 615 915 626 888 b 643 685 652 805 654 742 b 561 529 632 627 604 572 b 563 524 562 527 562 526 b 563 524 584 497 562 526 m 210 751 b 269 640 212 706 236 669 b 290 624 276 634 282 629 b 315 615 299 620 307 617 b 347 616 326 612 336 613 b 379 634 360 620 368 627 b 394 648 385 638 389 644 b 437 745 419 674 439 708 b 436 773 437 755 437 763 b 390 834 430 799 415 823 b 361 845 380 840 371 842 b 330 851 351 847 340 848 b 330 851 322 851 330 851 b 210 751 272 855 205 816 m 505 259 b 386 402 465 307 425 354 b 359 416 377 412 373 422 b 316 401 345 411 330 406 b 245 362 291 391 266 379 b 226 220 202 326 198 266 b 355 161 251 179 307 144 b 434 205 383 172 409 189 b 475 232 448 214 461 224 b 495 247 482 238 488 243 b 505 259 500 250 507 253 b 505 259 502 260 505 259 b 505 259 473 296 505 259 "},"−":{"x_min":0,"x_max":456,"ha":456,"o":"m 451 357 b 451 360 450 359 451 359 b 451 376 451 364 449 374 b 451 381 454 378 450 378 b 454 384 451 382 454 382 l 453 391 b 450 396 451 392 454 395 b 449 403 453 399 451 401 b 456 398 453 399 456 396 b 442 420 453 406 443 412 b 439 445 440 428 439 437 b 411 449 430 448 419 448 b 393 446 404 449 399 448 b 369 448 386 446 378 446 l 314 452 b 294 453 307 452 301 452 l 276 453 b 257 455 269 455 264 455 b 237 456 251 455 244 456 b 219 457 232 456 225 456 b 19 457 154 466 87 457 b 1 456 12 459 6 459 b 5 438 1 449 2 444 b 1 413 0 432 -1 421 b 2 412 1 413 2 410 b 1 405 2 407 1 406 b 2 398 1 402 2 402 b 1 387 2 394 1 391 b 2 376 1 384 2 380 b 1 373 2 374 1 374 b 2 371 1 371 2 370 b 1 362 2 367 1 367 b 2 357 1 360 2 360 b 2 350 4 356 2 353 b 5 339 4 345 5 342 b 5 335 5 337 2 338 b 6 325 6 330 5 331 b 8 307 9 320 4 312 b 29 296 13 302 22 298 b 55 294 37 294 47 294 b 266 299 126 300 197 302 l 286 299 b 308 298 293 299 300 299 l 329 298 b 348 296 336 298 343 298 b 368 294 355 296 362 295 b 440 294 375 294 436 289 l 454 307 b 456 332 454 316 454 325 l 453 335 b 451 357 453 344 456 350 "},"I":{"x_min":8,"x_max":247.71875,"ha":283,"o":"m 87 932 b 119 935 91 932 114 932 b 151 938 128 932 141 932 b 198 926 165 928 184 939 b 221 933 206 935 213 926 b 233 926 228 931 226 925 b 231 907 234 926 233 917 b 233 876 231 897 233 886 b 234 794 234 849 234 821 b 235 767 235 785 235 775 b 235 696 235 743 235 719 l 235 671 b 237 646 235 662 235 654 b 238 621 237 637 237 629 b 240 593 238 611 238 603 b 241 567 240 585 240 575 b 244 508 242 547 242 528 b 245 449 244 489 245 469 b 244 380 244 426 244 404 b 245 358 244 373 245 365 b 245 282 247 333 245 307 b 247 257 245 273 245 265 l 247 232 b 234 -21 251 147 235 62 b 233 -45 234 -30 234 -38 b 209 -56 226 -48 219 -55 b 173 -62 196 -58 184 -56 b 166 -59 170 -62 169 -59 b 145 -59 160 -66 152 -65 b 128 -65 140 -62 134 -63 b 117 -65 126 -60 121 -65 b 108 -62 114 -65 110 -62 b 98 -65 103 -62 101 -65 b 80 -59 91 -65 85 -62 b 73 -62 77 -59 77 -62 b 48 -53 69 -55 52 -60 b 12 -52 37 -59 24 -49 b 8 -42 9 -51 9 -46 b 10 1 9 -28 10 -13 b 12 28 10 10 12 18 l 12 54 b 14 110 13 72 13 90 b 16 165 14 128 16 146 l 16 193 b 17 221 17 203 17 212 b 19 269 19 237 19 254 l 19 318 b 20 369 19 335 19 351 b 23 394 20 378 21 386 b 23 421 23 404 23 412 l 23 449 b 23 507 23 468 23 487 l 23 529 b 21 560 21 539 21 550 b 23 587 21 568 21 578 b 23 614 23 596 23 605 l 23 639 b 8 889 21 722 19 806 b 13 914 12 894 12 906 b 20 915 16 914 19 915 b 21 921 21 917 20 921 b 58 924 37 925 44 926 b 87 932 62 931 78 928 "},"•":{"x_min":0,"x_max":412.90625,"ha":482,"o":"m 390 511 b 385 520 389 515 386 518 b 375 531 382 525 379 529 b 365 543 372 536 369 540 b 285 590 342 561 317 579 b 260 597 276 591 268 594 b 207 602 241 601 225 605 b 178 597 196 601 189 597 b 159 595 171 597 165 597 b 147 593 155 595 151 594 b 137 590 144 593 140 591 b 126 587 133 590 129 588 b 116 584 122 587 119 586 b 105 579 112 581 109 580 b 75 561 94 573 84 566 b 59 547 69 556 63 551 l 45 531 b 33 515 41 526 37 520 l 23 497 b 19 488 22 494 20 491 l 6 454 b 5 447 6 451 6 448 l 5 438 b 5 430 5 436 4 433 b 2 425 5 427 2 427 b 0 405 2 418 4 412 l 0 400 b 1 397 2 400 1 397 b 22 326 5 373 8 348 b 33 309 25 320 29 315 b 38 298 34 305 37 302 b 45 288 41 294 43 291 b 61 272 51 281 55 276 b 98 243 72 261 84 251 b 109 236 102 241 105 238 b 120 230 114 234 116 231 b 172 215 136 223 152 216 b 186 213 176 215 180 213 b 225 212 198 212 212 212 b 237 213 229 213 233 213 l 261 218 b 273 219 265 218 269 219 b 286 222 278 220 282 220 b 297 225 290 222 293 223 l 307 229 b 317 234 310 231 312 233 l 342 252 b 350 259 344 255 347 256 l 368 273 b 375 281 371 276 374 279 b 390 309 382 290 386 300 b 392 318 392 312 390 315 b 404 350 397 327 404 338 b 406 356 406 352 406 355 b 407 365 406 359 406 362 l 407 372 b 408 386 408 376 408 381 b 410 397 410 388 410 393 l 411 406 b 390 511 415 443 410 479 "},"G":{"x_min":-0.3125,"x_max":913.9375,"ha":914,"o":"m 449 965 b 784 784 584 966 700 883 b 787 779 786 783 786 780 l 788 777 b 788 776 788 777 788 776 b 791 772 791 775 791 773 l 793 770 b 794 768 794 769 794 768 b 794 759 795 766 797 762 b 793 757 794 758 793 758 b 788 752 793 755 790 754 b 787 750 788 751 787 750 l 783 745 b 781 743 783 745 781 744 b 776 736 779 741 777 738 b 773 733 775 736 773 734 b 772 730 772 733 773 732 b 769 727 770 729 770 729 b 768 727 769 727 769 727 l 768 725 b 766 723 768 725 766 725 b 763 719 765 722 763 720 b 762 718 763 719 762 719 b 758 713 761 718 758 715 b 755 711 758 713 756 712 l 755 708 b 752 707 754 708 754 708 l 750 702 b 748 701 748 701 748 702 b 745 698 748 700 745 700 l 743 694 b 737 688 741 693 738 691 b 731 682 736 687 733 684 b 729 679 730 682 730 680 b 723 673 727 677 725 676 b 720 669 723 672 722 670 b 719 668 720 669 719 669 b 715 663 719 666 716 665 b 713 661 715 663 715 661 b 708 654 712 658 711 655 b 697 657 704 658 700 655 b 695 658 695 657 695 658 l 691 661 b 687 665 690 662 690 663 b 686 665 687 666 686 665 l 686 668 b 676 675 681 670 679 672 b 673 677 674 676 674 677 b 669 682 672 679 670 680 l 655 691 b 654 693 655 693 655 693 b 652 695 652 693 652 694 b 649 695 651 695 651 694 b 648 697 649 695 649 697 b 619 711 638 702 629 707 b 588 720 609 715 599 718 b 556 733 579 726 568 729 b 523 740 545 736 534 738 b 493 745 513 743 502 744 b 461 745 481 747 472 747 b 365 720 429 743 395 734 l 341 708 b 211 501 259 673 227 584 b 205 476 209 493 206 484 l 197 418 b 195 398 197 411 195 405 b 198 348 195 381 195 365 l 202 324 b 283 195 208 264 240 221 b 311 181 292 189 301 185 b 615 262 412 145 543 185 b 626 282 619 268 623 275 b 630 306 627 291 630 298 b 622 312 630 307 626 312 b 574 307 605 312 590 310 b 554 309 567 307 561 307 b 530 325 540 306 531 313 b 527 337 530 327 527 334 b 524 356 526 344 526 349 l 524 359 b 524 397 523 367 524 384 b 523 420 524 405 523 412 b 520 455 522 433 520 443 b 524 486 520 466 520 478 l 524 487 b 534 494 524 490 531 493 b 538 496 536 496 537 496 b 544 497 540 496 541 497 b 567 498 549 498 559 498 b 730 498 620 498 676 498 l 822 498 b 887 498 844 500 866 503 l 890 498 b 904 493 895 498 900 496 l 911 436 b 912 422 911 430 912 427 b 913 418 912 420 912 419 l 913 383 b 912 378 912 381 912 380 b 911 356 912 372 912 363 b 909 345 911 352 909 349 b 904 314 909 335 905 324 b 834 309 881 313 858 310 b 820 307 829 309 825 309 l 819 307 b 815 306 818 307 818 306 l 812 306 b 800 298 808 305 804 302 l 800 277 b 802 88 805 214 806 152 l 802 67 b 802 -14 801 39 801 12 b 788 -12 798 -15 794 -12 b 736 -12 766 -12 759 -11 b 713 -12 730 -14 720 -12 b 681 -14 704 -14 693 -14 l 665 -14 b 649 -11 659 -12 651 -14 b 648 13 645 -6 647 5 b 651 35 649 20 651 28 b 638 62 651 45 652 68 b 461 3 584 30 523 9 b 438 2 452 3 445 2 b 416 0 431 2 423 2 b 222 17 352 -10 283 -7 b 166 53 202 27 183 38 b 38 237 101 96 63 166 b 37 243 38 239 38 242 l 37 245 b 36 248 36 246 36 246 b 33 256 36 249 34 253 b 31 260 33 256 31 259 l 31 263 b 30 267 30 264 30 266 l 26 281 b 23 293 24 285 24 289 l 22 299 b 8 516 -1 370 -7 444 b 17 566 11 533 13 549 l 26 590 b 33 613 29 596 30 605 l 54 669 b 79 723 61 687 69 705 b 108 772 88 740 98 756 b 174 847 127 798 149 823 b 370 954 230 897 297 937 b 406 961 383 956 394 959 b 445 965 419 963 433 963 b 449 965 447 965 448 963 "},"(":{"x_min":0.078125,"x_max":364,"ha":364,"o":"m 316 875 b 316 860 318 869 318 864 b 309 842 313 854 312 847 l 302 824 b 295 805 300 818 297 811 l 288 789 b 282 772 286 783 283 778 l 273 753 b 266 732 270 746 268 739 l 251 692 b 240 660 247 682 243 671 l 232 628 b 223 591 226 618 225 604 b 218 550 220 578 219 564 l 216 530 b 216 491 216 518 216 504 l 215 453 b 222 357 216 421 218 389 l 225 337 b 293 140 232 266 257 200 b 302 123 295 134 298 129 l 311 107 b 322 88 315 101 318 94 l 352 36 b 364 26 357 33 361 30 b 348 16 361 19 354 19 b 341 16 345 16 344 18 l 340 12 b 334 12 338 11 336 12 b 330 9 333 11 332 9 b 297 6 320 6 308 9 b 287 4 294 5 293 5 l 283 4 b 275 4 280 1 283 5 b 258 1 270 4 266 0 b 251 4 255 2 254 4 b 241 0 248 4 245 0 b 237 1 240 0 240 1 b 222 0 233 2 230 0 b 212 1 219 0 215 1 b 190 2 205 2 197 2 b 169 6 182 2 175 4 b 155 20 162 9 158 15 b 145 37 152 26 150 31 l 122 75 b 112 91 119 80 115 86 l 101 108 b 91 125 98 113 94 119 l 80 143 b 61 180 73 155 66 168 b 51 200 57 186 54 193 l 43 219 b 34 239 40 226 37 232 l 29 259 b 22 280 26 266 25 273 l 18 300 b 15 319 16 305 15 312 l 11 340 b 8 361 9 347 8 354 l 2 416 b 1 434 2 422 2 429 l 0 472 b 0 512 0 486 0 500 l 1 533 b 1 554 1 540 1 547 l 4 575 b 7 590 5 580 5 585 l 9 607 b 13 628 11 614 12 621 l 19 648 b 23 668 20 655 22 661 l 29 687 b 86 839 40 740 63 790 b 98 879 91 851 95 865 b 102 889 100 883 101 882 b 107 899 102 892 107 892 b 112 901 109 896 111 900 l 116 901 b 122 903 118 904 119 901 l 123 908 b 133 908 126 910 130 907 b 136 911 134 908 134 911 l 137 911 b 155 911 141 913 145 911 b 190 913 162 911 177 915 b 222 911 198 913 209 908 b 236 901 227 908 232 904 b 244 908 238 903 243 903 b 263 906 250 900 257 907 l 273 903 b 279 901 275 903 276 901 l 284 899 b 287 896 286 899 287 896 b 291 899 290 894 290 899 b 305 893 291 899 301 893 b 315 892 307 893 312 894 l 316 875 "},"U":{"x_min":23.984375,"x_max":629.390625,"ha":664,"o":"m 464 849 b 458 847 462 846 459 849 b 452 846 457 847 455 847 b 447 846 451 846 450 846 b 443 844 444 844 443 846 l 438 844 b 438 843 438 844 438 843 l 436 843 b 429 840 434 842 432 842 l 427 840 b 413 833 423 839 416 836 b 415 800 413 822 413 811 l 415 767 b 416 441 413 658 413 550 b 418 411 416 432 418 421 b 420 304 419 375 422 339 b 419 276 420 294 420 286 b 309 132 422 214 387 120 b 288 138 302 132 295 134 b 252 180 272 150 261 163 b 231 304 234 219 238 264 b 229 336 230 315 229 325 b 223 398 226 357 224 377 b 220 427 222 408 220 418 b 218 573 218 476 215 525 l 218 640 b 218 773 219 685 219 729 b 215 793 218 780 215 786 b 211 828 215 805 216 818 b 181 830 201 830 190 828 l 180 832 b 176 833 179 832 177 833 b 152 835 168 835 159 833 b 150 836 151 835 150 835 b 148 837 150 836 148 837 b 143 840 145 839 144 840 b 133 842 139 842 137 842 b 121 844 130 844 125 844 b 109 846 116 846 115 846 b 104 844 108 844 107 846 l 90 844 b 86 844 89 844 87 846 l 84 844 b 82 843 83 844 82 844 b 78 846 80 844 79 846 b 72 849 76 847 73 847 b 62 846 69 847 66 846 b 43 846 55 846 48 847 b 29 840 36 846 32 844 b 28 823 29 835 28 829 b 30 811 26 819 30 815 b 25 797 29 807 25 801 b 28 755 26 783 26 769 b 28 718 28 743 28 730 l 28 680 b 26 644 26 668 26 655 b 25 604 25 630 25 618 b 23 565 23 591 23 578 b 36 222 30 451 21 334 b 42 189 37 211 40 200 l 46 158 b 55 123 48 145 51 134 b 69 93 60 112 64 102 b 297 -37 112 7 207 -31 b 330 -38 308 -37 319 -38 b 489 -2 386 -37 440 -24 b 514 12 497 1 505 7 b 529 25 519 16 525 20 b 569 68 544 38 557 54 b 597 125 577 87 589 105 l 597 123 b 618 214 608 152 615 183 b 619 236 618 220 619 229 b 619 258 619 243 619 251 l 619 279 b 621 300 621 286 621 293 b 623 323 622 308 622 315 l 623 343 b 622 376 623 354 622 365 b 623 409 623 387 623 398 b 625 469 623 429 625 448 b 626 529 625 489 625 509 l 626 560 b 628 648 628 589 628 619 b 628 680 628 660 628 669 l 628 711 b 626 743 626 722 626 732 b 623 775 625 754 625 764 b 628 808 623 786 623 797 b 628 818 629 811 629 815 b 626 822 628 819 625 819 b 629 828 626 825 629 825 b 622 835 626 829 623 832 b 621 835 622 835 621 835 l 616 837 b 607 837 614 837 611 836 l 601 837 b 594 837 598 837 596 837 l 593 839 b 591 839 593 839 591 839 l 582 839 b 508 847 558 842 532 846 b 501 849 505 847 502 846 l 464 849 "},"F":{"x_min":0,"x_max":556.453125,"ha":625,"o":"m 76 990 b 81 990 77 988 80 990 b 81 988 81 990 81 988 l 86 988 b 106 988 90 987 100 987 b 111 990 108 988 109 990 b 113 990 111 990 113 988 b 130 990 119 990 125 990 l 134 987 b 137 985 136 987 136 985 b 144 987 138 985 141 987 b 161 988 150 988 155 988 l 177 988 b 212 987 190 988 201 988 b 265 984 230 985 248 984 b 283 983 272 983 277 983 b 300 983 288 983 294 983 l 318 983 b 498 970 379 988 438 973 b 512 969 502 970 506 969 b 526 969 516 969 522 970 b 551 965 534 969 543 965 b 552 945 551 958 551 952 b 551 781 561 891 552 835 b 550 769 551 777 550 773 b 550 755 550 763 550 759 l 533 755 b 515 755 527 755 520 755 l 497 755 b 479 758 491 756 484 756 b 459 759 472 758 466 759 b 283 765 401 763 341 765 l 270 765 b 238 766 261 766 251 766 b 219 765 231 766 223 767 b 215 762 218 765 216 763 l 213 760 b 211 756 212 759 212 758 l 211 752 b 209 752 211 752 209 752 l 209 746 b 206 740 208 744 206 742 b 206 735 206 740 205 737 l 208 735 b 209 733 208 735 208 733 b 205 637 205 701 205 669 l 205 617 b 206 598 205 610 206 603 b 211 594 206 595 212 598 l 215 591 b 247 590 219 588 237 590 b 273 590 255 590 263 591 b 298 587 280 588 291 588 b 302 587 300 587 301 588 l 305 587 b 336 587 316 587 326 585 b 351 590 341 587 345 588 b 368 590 356 590 362 588 b 375 584 369 587 373 585 b 375 583 375 584 375 583 l 377 578 b 377 571 377 577 377 574 l 377 549 b 384 416 376 505 384 460 b 384 401 384 410 384 406 l 384 390 b 386 388 386 390 386 388 b 376 369 386 380 381 373 b 323 370 359 369 340 370 b 315 370 320 370 318 369 l 313 370 b 302 370 309 371 305 370 b 261 373 290 371 275 371 b 252 373 258 373 255 371 b 230 373 248 373 237 374 b 222 373 226 373 225 373 b 216 369 220 371 216 370 b 215 367 216 367 215 367 b 215 356 213 365 215 360 b 201 16 212 242 208 130 l 201 -18 b 200 -54 200 -29 200 -41 b 194 -54 198 -54 195 -54 l 181 -54 b 176 -55 180 -54 177 -54 l 125 -55 b 118 -54 123 -54 120 -55 b 48 -46 94 -53 70 -48 b 40 -44 45 -44 43 -44 b 38 -43 40 -44 40 -43 l 36 -43 b 25 -41 33 -43 29 -43 b 20 -41 23 -41 22 -41 l 16 -41 b 1 -40 12 -40 6 -41 b 2 -7 1 -29 2 -18 b 4 27 4 3 4 15 b 2 60 2 38 2 49 b 2 95 2 71 2 83 l 2 128 b 2 163 2 140 2 151 l 2 227 b 0 323 1 259 1 291 l 0 355 b 1 467 0 392 0 430 l 1 505 b 9 845 6 619 6 731 b 9 880 9 856 9 867 l 9 915 b 11 921 9 917 11 920 b 11 966 11 937 9 952 b 11 967 11 966 11 966 l 11 969 b 13 980 12 973 12 977 l 30 984 b 38 987 33 985 38 985 b 41 987 40 987 40 987 l 44 987 b 47 988 45 988 47 988 b 51 987 50 988 50 988 l 59 987 b 61 988 61 987 61 988 b 66 990 62 988 66 988 l 76 990 "},"r":{"x_min":-0.125,"x_max":723.375,"ha":793,"o":"m 695 -101 b 723 -61 698 -85 717 -76 b 721 -58 721 -61 723 -58 b 719 -39 723 -50 720 -44 l 698 3 b 676 46 691 17 683 31 b 584 249 638 111 616 182 l 571 281 b 569 285 570 282 569 284 b 567 291 567 286 567 289 b 566 292 567 292 566 291 b 565 295 566 293 566 293 l 565 296 b 562 303 563 299 563 300 l 562 304 b 558 313 560 307 559 310 l 558 314 b 562 332 555 322 555 329 b 698 513 628 371 670 443 b 703 534 701 520 702 527 b 705 556 703 541 705 548 b 705 605 706 571 706 588 b 699 654 703 620 702 637 b 688 698 696 669 692 683 l 671 741 b 649 782 665 755 658 769 b 635 807 645 791 640 798 b 592 860 624 826 609 844 b 574 875 585 865 580 869 b 549 890 566 880 558 886 b 527 901 542 894 534 899 b 505 912 520 905 512 910 b 462 928 491 918 477 924 b 419 936 448 932 434 935 b 395 939 410 937 403 939 b 371 942 388 940 380 940 l 346 942 b 321 943 338 942 330 943 b 273 946 305 943 290 944 b 67 947 205 950 135 958 b 52 944 62 946 58 946 l 48 942 b 40 940 45 942 42 940 l 33 937 b 27 935 31 936 29 936 b 26 935 26 935 26 935 l 16 930 b 12 928 16 930 13 928 b 8 925 10 928 9 925 b 2 922 6 925 4 924 b 0 919 1 921 1 919 b 0 858 0 919 0 889 l 0 829 b 1 747 0 801 0 774 b 2 719 1 737 2 728 b 8 648 4 695 6 672 b 10 624 9 641 9 633 b 15 556 12 602 13 578 l 15 531 b 17 417 17 493 17 456 b 16 393 16 410 16 402 b 17 161 9 317 13 239 b 17 142 17 154 17 149 l 17 124 b 27 -103 17 48 26 -28 b 37 -104 30 -103 33 -104 b 45 -107 40 -106 42 -107 b 69 -110 52 -110 60 -110 b 73 -112 72 -110 70 -114 b 85 -110 77 -111 80 -110 b 88 -111 87 -110 87 -111 b 95 -112 91 -111 94 -112 b 98 -114 95 -114 97 -114 b 123 -117 106 -117 115 -118 b 133 -117 126 -117 130 -117 l 134 -117 b 142 -119 138 -118 141 -117 b 149 -115 146 -119 144 -114 b 156 -118 151 -117 153 -117 b 165 -119 160 -118 162 -119 b 173 -115 169 -118 170 -117 b 208 -121 177 -115 205 -122 b 213 -103 210 -114 209 -108 b 213 -101 213 -103 212 -103 b 215 -81 213 -94 215 -87 b 216 -57 216 -72 216 -64 b 215 -33 215 -49 215 -42 b 208 235 208 55 208 146 b 206 254 208 241 206 247 l 206 275 b 208 278 206 277 208 277 b 209 284 208 281 208 284 b 209 285 209 284 209 285 b 210 286 210 285 210 286 l 210 289 b 212 289 210 289 212 289 b 215 292 212 291 213 292 b 216 295 215 292 215 293 l 220 297 b 244 300 226 300 234 300 l 269 300 b 294 299 277 300 288 299 b 302 297 296 297 299 297 b 316 295 308 296 312 293 l 319 295 b 326 293 323 295 324 295 b 330 291 328 292 328 291 l 331 288 b 334 281 333 286 333 282 l 334 279 b 335 275 334 278 334 277 b 337 270 335 274 337 272 b 338 270 337 270 338 270 l 341 263 b 394 150 359 225 376 188 b 403 127 396 143 401 135 b 513 -99 440 50 471 -24 b 534 -101 516 -103 526 -99 l 538 -101 b 596 -104 559 -101 577 -103 b 608 -104 601 -104 603 -104 l 617 -104 b 617 -106 617 -104 619 -106 l 645 -106 b 684 -106 659 -107 671 -106 b 688 -103 687 -106 687 -104 b 691 -101 688 -101 690 -101 l 695 -101 m 526 574 b 483 514 515 552 501 531 b 462 498 476 507 469 502 b 235 489 395 457 308 485 b 228 493 234 489 230 491 b 213 496 221 492 217 493 b 209 521 210 503 209 511 l 209 534 b 203 634 210 569 202 602 b 203 737 205 669 202 702 b 205 762 203 746 205 753 b 209 767 205 765 209 762 b 217 774 213 768 215 772 b 231 774 221 774 226 774 l 253 774 b 277 772 262 774 270 772 b 451 747 335 771 398 782 b 465 736 455 744 459 740 b 477 725 469 733 473 729 b 491 708 483 719 487 714 b 502 691 495 702 499 697 b 526 583 517 656 521 619 l 526 574 "},":":{"x_min":-2.671875,"x_max":190,"ha":258,"o":"m 67 624 b 3 612 45 621 24 620 b 3 513 1 578 3 546 l 1 508 b 0 462 4 495 4 480 b -1 448 -1 456 -1 452 b 1 444 -1 446 0 445 b 11 445 4 442 7 444 b 15 442 11 441 14 444 b 21 439 18 441 19 439 b 24 442 21 439 22 442 b 28 439 25 442 26 439 b 29 442 28 439 28 442 b 30 441 30 442 30 441 b 46 438 37 441 42 444 b 47 438 47 439 47 438 b 57 435 49 433 54 437 b 58 434 58 435 60 434 b 66 435 64 434 62 438 b 76 433 69 433 73 433 b 102 434 84 433 96 434 b 121 433 110 434 115 434 b 125 431 124 433 124 433 b 126 434 125 430 126 434 b 137 437 132 434 133 434 b 160 444 146 439 156 441 b 167 452 159 451 166 448 b 178 452 171 452 174 449 b 184 455 178 455 181 455 b 185 463 184 456 184 459 b 179 571 196 498 181 533 b 183 588 181 576 183 583 b 183 602 183 592 183 598 l 183 612 b 183 615 183 613 183 615 l 174 615 b 156 615 169 615 162 612 b 146 615 152 615 149 615 l 137 615 b 128 615 134 615 131 615 l 109 615 b 83 617 101 615 92 617 b 66 620 73 620 76 621 l 67 624 m 190 247 b 178 309 188 267 185 288 b 80 310 145 310 111 310 l 74 310 b 26 313 62 308 46 308 b 14 315 22 313 18 313 l 10 312 b 11 302 8 309 10 305 b 8 297 7 301 8 298 b 5 291 7 294 5 292 b 8 288 5 291 8 290 l 5 284 b 8 283 5 285 7 284 b 5 281 8 281 5 281 b 4 266 5 276 8 272 l 4 265 b 1 255 -1 263 1 258 b 0 253 1 255 0 252 b 1 247 0 248 4 249 b -1 237 -1 244 -1 240 b -1 210 -2 228 -1 216 b -1 191 0 202 -1 196 b -2 188 -1 188 -1 188 b 0 185 -3 187 0 185 b 3 174 0 180 0 180 b 10 152 5 166 5 158 b 17 145 17 153 14 146 b 18 134 18 141 15 139 b 21 128 21 134 21 131 b 29 127 22 128 25 128 b 139 133 64 117 100 131 l 137 134 b 153 130 142 131 147 130 b 168 130 159 130 164 130 l 178 130 b 181 130 179 130 181 130 l 181 138 b 179 158 181 145 178 151 l 179 166 b 181 176 181 170 181 173 b 181 185 181 178 181 181 l 181 203 b 184 230 181 212 182 222 b 187 247 187 240 188 237 l 190 247 "},"x":{"x_min":0,"x_max":813,"ha":833,"o":"m 601 849 b 592 835 597 846 594 839 b 569 803 586 823 578 812 b 414 622 512 747 458 687 b 412 616 414 620 411 620 b 408 613 411 616 409 615 b 407 610 407 612 407 612 b 405 609 407 610 405 610 b 405 608 405 609 405 608 b 404 605 404 608 404 606 b 401 602 401 603 401 603 b 398 599 401 601 400 599 b 397 596 398 596 397 596 l 394 592 b 393 592 394 592 393 592 l 386 583 b 375 594 386 583 379 591 b 340 627 359 601 351 615 b 201 787 290 679 255 741 l 195 793 b 194 794 195 793 194 794 l 190 797 b 187 800 189 797 189 798 b 186 801 186 800 186 801 b 183 803 184 801 183 801 b 182 804 182 803 182 804 b 179 805 180 805 180 804 b 176 808 177 805 177 808 b 169 814 173 811 170 812 b 165 811 166 815 166 812 b 164 811 165 811 164 812 b 155 805 161 810 157 808 b 150 808 152 805 152 808 b 148 804 148 808 148 807 b 145 804 147 804 147 804 b 127 803 143 801 132 803 b 118 797 123 801 122 798 b 116 798 116 796 118 798 b 115 803 116 798 115 801 l 107 803 b 101 801 104 803 102 803 b 95 796 100 800 98 797 b 94 794 95 796 94 796 b 90 791 93 794 91 793 l 77 777 b 52 754 69 771 61 762 b 51 751 52 752 51 752 b 50 744 50 750 50 747 b 30 725 43 738 37 732 b 27 709 27 722 25 715 b 26 705 27 708 27 705 b 30 702 26 702 29 704 b 33 699 33 704 31 701 b 34 688 34 698 34 694 l 37 686 b 75 651 51 676 63 663 b 91 631 80 645 86 638 b 247 439 144 567 187 496 l 257 430 b 261 426 258 428 259 428 l 261 423 b 261 419 262 421 261 421 b 261 416 261 419 261 417 l 261 414 b 259 413 261 414 259 414 b 258 410 259 413 259 412 b 257 410 258 410 257 410 b 255 408 257 408 255 408 b 254 403 255 406 254 405 b 254 402 254 403 254 402 b 251 401 252 401 251 401 l 251 398 b 237 376 247 389 241 383 b 223 356 232 369 227 362 b 80 153 172 289 126 221 b 66 134 76 146 72 139 l 54 114 b 40 95 48 108 44 101 l 27 74 b 12 55 22 67 16 62 b 11 53 11 53 11 55 b 6 48 11 52 6 49 b 5 46 5 48 5 46 b 4 44 5 45 4 45 b 0 39 4 42 1 39 l 0 37 b 2 26 2 34 1 27 b 4 23 4 24 4 24 b 4 21 5 23 4 21 b 6 20 5 21 5 21 b 8 19 6 19 8 19 b 9 16 8 16 9 16 b 11 12 9 14 11 13 b 12 10 12 12 12 10 b 13 9 12 9 13 9 b 15 6 13 6 15 6 b 19 0 16 3 18 1 l 29 0 b 45 -22 30 -11 43 -12 b 61 -28 52 -22 54 -28 b 66 -35 62 -29 62 -35 b 73 -33 69 -35 70 -33 b 75 -39 75 -35 72 -40 b 77 -40 76 -39 77 -39 b 87 -39 82 -42 83 -39 b 95 -46 88 -42 91 -44 b 100 -50 98 -47 97 -50 l 105 -50 b 107 -53 107 -50 107 -51 l 109 -53 b 112 -54 109 -53 111 -53 b 118 -55 115 -54 116 -54 l 120 -55 b 122 -57 120 -55 120 -57 b 133 -61 126 -60 130 -61 b 137 -62 134 -61 136 -62 l 137 -64 b 144 -65 140 -65 141 -65 l 145 -67 b 152 -68 148 -68 151 -67 b 157 -69 154 -69 158 -67 b 297 128 212 -10 255 59 b 322 174 305 144 314 159 l 339 199 b 354 224 343 208 348 216 b 380 256 362 237 371 245 b 382 258 380 256 382 256 b 396 269 386 262 389 267 b 398 264 397 269 396 263 b 403 263 400 263 401 263 b 404 260 403 262 404 262 l 407 258 b 409 256 408 258 409 258 b 412 253 411 256 411 255 l 419 246 b 437 223 425 237 430 230 b 603 48 493 163 550 109 l 622 28 b 680 -30 642 8 661 -11 l 692 -43 b 699 -48 693 -46 696 -47 b 704 -54 700 -50 701 -54 b 712 -50 703 -50 708 -50 b 739 -23 721 -42 731 -32 l 750 -14 b 760 -4 753 -11 757 -7 b 768 2 764 -1 765 1 b 787 23 775 9 782 16 l 793 28 b 797 34 794 31 796 33 l 800 37 b 801 38 800 38 800 38 b 803 42 801 39 803 41 l 804 44 b 806 46 806 45 806 46 b 807 49 806 48 807 48 b 808 51 807 49 807 51 b 810 58 808 53 810 56 b 811 60 811 59 811 59 b 813 67 813 63 811 66 l 813 83 b 801 102 810 89 806 96 l 789 121 b 632 292 740 180 682 233 b 617 309 628 298 622 303 b 543 394 592 337 567 366 b 542 398 542 395 542 396 b 535 402 539 399 536 401 b 533 403 535 402 533 402 b 529 408 530 405 530 405 l 525 412 b 523 413 525 413 523 413 l 521 417 b 519 419 521 417 519 417 b 518 420 519 419 519 420 b 515 424 518 421 516 423 b 512 427 515 426 514 426 l 511 434 b 514 442 514 437 512 439 b 672 649 569 509 614 584 l 690 670 b 708 690 696 677 701 683 b 724 706 712 695 718 701 b 733 719 728 709 731 713 b 735 722 733 720 735 722 b 737 726 735 723 736 726 b 737 729 737 726 737 729 l 737 732 b 735 738 737 734 736 737 b 733 745 733 743 733 744 b 731 751 732 748 731 750 b 728 759 731 754 728 758 b 724 766 725 762 725 765 l 724 771 b 715 777 721 772 718 776 l 711 780 b 705 786 710 782 708 784 l 703 789 b 696 794 700 790 699 793 l 692 798 b 690 798 692 798 690 798 l 686 803 b 683 804 686 803 685 804 l 680 808 b 678 810 679 808 678 810 b 672 814 675 811 674 814 b 671 815 672 815 671 815 b 664 821 668 818 667 819 b 661 823 664 822 661 823 b 660 825 660 823 660 823 b 654 828 658 826 655 826 l 654 829 b 653 829 654 829 653 828 b 651 830 651 829 651 829 b 646 833 649 832 647 832 b 644 835 644 833 644 835 b 640 836 643 836 640 836 b 640 837 640 836 640 837 l 637 837 b 636 839 637 837 637 839 b 635 840 636 839 635 839 b 632 842 633 840 633 840 b 629 843 632 842 629 842 b 626 844 628 843 628 844 b 625 846 626 844 625 844 b 621 847 623 846 622 846 b 619 849 621 847 619 849 l 617 849 l 601 849 "},"*":{"x_min":-0.28125,"x_max":546.921875,"ha":547,"o":"m 417 690 b 528 744 455 710 491 728 b 519 768 526 751 521 760 b 501 817 513 783 506 800 l 496 836 b 494 846 495 839 494 842 b 492 850 494 847 492 849 l 491 853 b 484 869 489 858 487 864 b 483 871 484 869 484 871 l 483 872 b 480 875 481 872 481 874 l 478 876 b 477 876 477 876 477 876 l 451 864 b 333 808 410 846 371 826 b 333 921 331 846 331 883 b 333 946 333 929 333 938 l 333 965 b 283 968 316 965 301 967 b 267 968 278 968 273 968 l 264 968 b 262 968 267 969 266 969 l 259 968 b 243 967 254 967 248 967 b 203 964 229 965 217 965 b 197 963 200 963 198 963 b 190 961 194 963 193 961 b 190 929 190 949 191 939 l 190 899 b 190 810 190 869 190 840 l 185 810 b 133 837 166 818 149 826 b 110 849 126 842 117 844 b 66 871 95 856 81 864 b 48 879 59 874 53 876 l 40 854 b 21 807 34 837 28 822 b 12 786 19 800 15 793 l 8 776 b 5 771 6 775 6 774 l 5 769 b 0 751 2 764 1 758 l 10 747 l 9 746 b 30 736 16 743 23 740 b 103 699 53 724 80 711 l 105 699 l 109 697 l 106 696 b 103 694 106 694 105 694 b 9 649 90 686 23 657 b 3 646 6 649 5 647 b 41 580 17 625 30 603 b 62 535 48 565 56 550 l 66 526 b 74 532 69 528 71 529 l 74 530 b 146 562 81 533 140 558 l 195 587 l 198 587 b 198 585 198 587 195 586 b 194 493 198 562 195 514 b 198 450 194 485 198 460 l 198 436 b 222 435 206 435 213 435 b 264 435 236 433 250 435 b 333 439 287 436 309 439 b 330 579 333 479 331 529 l 331 578 b 467 510 380 554 437 528 b 480 503 471 507 476 504 b 496 522 485 510 491 516 b 505 532 499 526 502 529 b 509 537 506 533 508 535 b 510 539 509 537 509 539 b 520 558 514 544 517 551 b 546 628 530 580 538 604 b 541 630 545 629 544 629 b 456 671 533 635 464 665 b 417 690 444 678 430 685 "},"V":{"x_min":6.953125,"x_max":882.390625,"ha":917,"o":"m 419 312 b 417 320 418 313 418 317 b 408 343 414 327 411 335 l 400 367 b 393 388 397 374 396 381 b 387 409 392 395 389 402 b 376 445 383 420 379 432 b 310 639 357 511 333 575 l 293 684 b 278 729 287 699 282 714 b 269 750 275 736 272 743 l 224 875 b 212 904 219 885 215 895 l 212 913 b 208 914 211 914 210 914 b 207 918 207 916 207 917 b 201 929 204 922 203 925 b 196 941 200 934 199 938 l 190 941 b 185 939 189 939 186 939 l 183 938 b 182 938 183 938 182 938 l 180 938 b 175 941 178 938 176 939 l 171 941 b 167 939 169 939 168 939 b 161 938 165 938 164 938 b 151 941 158 938 154 939 b 147 941 150 941 149 939 l 143 941 b 137 941 142 939 139 941 b 117 938 130 939 124 938 b 114 941 117 941 114 939 l 112 941 b 111 939 112 941 112 939 b 107 938 111 936 108 938 b 96 936 104 938 100 936 b 68 934 90 935 74 936 b 62 931 67 932 64 932 l 61 931 b 33 922 53 928 39 929 b 11 914 25 924 18 918 b 12 884 1 906 10 892 b 55 768 26 845 42 806 b 78 710 62 749 71 729 b 89 682 82 702 86 692 b 100 656 93 674 96 664 b 110 625 103 645 105 635 b 119 596 112 616 117 606 b 129 566 122 585 125 575 b 137 534 132 555 135 545 l 158 468 b 165 446 161 460 164 453 b 172 423 168 438 171 431 b 179 399 175 416 178 407 l 194 348 b 207 318 197 338 204 328 l 211 303 b 217 289 214 299 215 293 b 224 268 219 282 221 275 b 247 189 232 242 240 216 b 254 166 250 182 253 174 l 268 119 b 275 98 271 112 274 105 l 283 74 b 314 6 292 51 301 27 b 321 3 317 6 318 5 b 342 1 328 2 335 1 l 360 1 b 376 3 365 2 371 2 b 501 6 418 7 460 10 b 529 13 511 5 519 10 b 535 34 530 20 535 26 l 546 49 b 636 256 582 114 604 188 b 646 277 639 263 642 270 b 739 510 671 357 707 432 b 749 532 742 517 744 524 b 767 577 754 546 760 561 b 774 598 769 584 772 591 l 782 618 b 792 639 786 625 789 632 b 801 660 794 646 797 653 b 810 681 804 667 807 674 l 818 702 b 825 721 821 707 824 714 b 835 745 829 729 832 736 b 853 791 842 760 847 775 b 855 797 854 792 854 796 b 881 871 855 797 882 871 b 882 872 881 872 882 872 b 881 877 880 874 879 875 l 878 879 b 874 882 876 879 876 881 b 871 884 872 884 871 884 b 869 885 869 884 869 885 l 867 885 b 860 888 865 886 862 888 b 854 888 858 889 857 888 b 847 889 853 889 849 888 b 839 891 844 889 842 891 b 825 895 835 892 828 893 b 819 893 822 895 821 893 b 818 893 819 895 818 893 l 817 893 b 815 893 817 895 815 893 b 810 892 812 893 811 892 b 797 899 805 893 801 897 l 793 899 b 783 904 790 900 786 902 b 765 900 776 900 771 902 b 761 904 764 900 762 903 b 735 891 751 896 749 892 b 696 888 722 889 710 888 l 686 888 b 657 886 676 886 667 886 b 653 863 657 877 653 870 b 651 861 653 861 651 863 l 651 859 b 644 838 649 852 647 845 b 637 820 643 832 640 825 b 628 799 635 813 630 806 l 619 781 b 612 761 618 774 615 768 l 604 741 b 594 718 601 734 599 725 l 586 695 b 507 488 562 624 539 555 l 499 470 b 449 338 479 427 461 384 b 443 323 447 332 444 327 l 442 317 b 439 316 440 317 439 316 b 428 277 437 314 429 277 l 419 312 "},"h":{"x_min":14.8125,"x_max":638.03125,"ha":707,"o":"m 582 -122 b 586 -120 584 -120 585 -120 b 598 -119 591 -120 596 -119 l 600 -119 b 611 -116 603 -117 610 -116 l 614 -116 b 617 -116 614 -115 617 -116 l 624 -113 b 634 -110 627 -113 632 -112 b 635 -109 634 -110 637 -112 b 636 -106 636 -109 636 -108 l 636 -90 b 636 -37 638 -72 638 -55 l 632 14 b 632 40 632 22 632 32 l 632 66 b 632 116 632 83 632 100 l 632 141 b 631 168 632 151 632 159 b 630 194 631 177 631 186 b 624 271 628 219 627 246 b 623 296 624 279 624 287 b 620 347 621 314 621 330 b 618 397 620 364 618 380 b 617 426 617 407 617 416 l 617 454 b 616 509 617 472 617 491 b 614 537 616 518 616 527 b 613 564 614 545 614 555 l 613 589 b 611 615 613 598 611 607 b 605 865 613 700 616 782 b 606 880 606 869 606 875 b 607 893 607 884 607 890 l 607 900 b 605 907 606 901 605 904 b 603 908 603 907 603 908 b 600 912 602 909 602 911 l 599 912 b 596 911 598 912 598 909 b 467 909 553 918 510 907 b 454 909 465 909 457 911 b 438 911 449 909 443 911 b 418 908 431 912 425 911 b 415 891 417 902 417 897 b 413 736 407 843 410 790 b 413 600 414 693 413 645 l 413 584 b 411 568 413 579 411 573 b 401 408 408 516 418 461 b 392 409 399 409 394 409 b 244 416 343 414 293 412 b 232 418 239 416 236 418 l 229 422 b 225 423 228 422 226 422 l 222 423 b 221 426 222 425 221 426 b 219 427 221 427 219 427 b 218 441 218 430 218 436 l 218 458 b 223 629 219 515 220 572 b 225 666 223 641 223 654 b 225 684 225 672 225 679 l 225 702 b 226 722 226 709 226 715 b 232 857 228 768 229 812 l 232 870 b 223 879 230 875 226 877 b 216 887 222 882 219 884 b 202 886 211 886 206 886 l 188 886 b 36 875 137 884 86 886 b 17 865 29 872 22 870 b 17 850 15 861 17 855 b 17 834 17 844 15 840 l 17 833 b 17 802 18 825 17 812 l 17 770 b 15 500 18 680 12 591 b 17 470 17 490 17 480 b 18 441 17 461 18 451 b 19 383 18 422 19 402 b 18 325 19 364 19 344 l 18 294 b 22 205 19 265 19 236 b 25 152 23 189 23 171 l 25 100 b 23 73 23 91 23 83 b 25 -28 22 39 22 4 b 26 -55 25 -37 25 -47 b 28 -80 26 -63 28 -72 b 28 -97 29 -85 29 -92 l 28 -103 b 28 -105 28 -103 28 -103 l 28 -106 b 26 -113 26 -108 25 -113 b 29 -113 26 -110 29 -113 b 33 -115 30 -113 32 -113 b 36 -115 33 -115 36 -116 b 39 -113 37 -115 36 -112 b 40 -116 39 -115 41 -113 b 209 -105 98 -113 152 -108 b 212 -101 211 -103 211 -101 b 213 -99 212 -99 213 -99 b 213 -97 213 -98 213 -98 l 215 -97 b 216 -66 218 -90 216 -77 b 215 -63 216 -65 215 -65 b 215 -48 213 -59 215 -53 b 213 -35 215 -42 215 -38 b 218 134 213 22 219 79 l 218 154 b 216 173 218 161 218 166 b 221 186 218 177 218 184 b 221 189 221 187 219 187 b 225 196 222 193 223 194 l 228 200 b 390 218 280 216 336 215 b 406 216 396 216 400 216 b 408 215 406 216 407 215 b 414 212 411 214 413 212 l 415 212 b 414 211 415 211 415 211 b 421 197 415 208 421 201 b 419 187 419 194 419 190 l 419 176 b 425 7 426 121 429 65 l 422 -8 b 421 -24 422 -13 422 -19 b 422 -94 419 -48 419 -70 b 424 -98 424 -97 422 -97 b 425 -101 424 -101 425 -101 b 428 -105 425 -102 426 -103 b 432 -110 429 -109 429 -109 b 452 -110 436 -112 445 -110 b 509 -112 471 -110 490 -110 b 528 -113 516 -112 524 -112 b 535 -113 531 -113 534 -112 b 536 -113 535 -115 536 -113 l 564 -117 b 568 -119 566 -117 567 -119 b 570 -119 568 -120 570 -119 b 571 -120 571 -119 571 -120 b 575 -122 573 -120 574 -119 l 582 -122 "},"0":{"x_min":0,"x_max":763.109375,"ha":832,"o":"m 722 758 b 711 783 718 768 715 775 b 694 812 705 793 700 802 b 675 838 689 822 682 830 b 526 958 632 884 586 930 b 479 976 509 963 494 970 b 382 991 448 987 416 998 b 327 976 364 988 348 977 b 294 972 316 975 305 975 l 273 966 b 252 959 266 965 259 962 l 233 952 b 215 943 227 950 220 947 l 195 930 b 140 883 175 915 157 900 b 109 847 129 872 119 859 b 83 808 100 834 91 822 b 62 766 76 795 69 781 b 44 722 55 752 50 737 l 37 700 b 13 611 27 670 19 640 l 11 593 b 9 572 9 586 9 579 l 9 551 b 5 540 9 547 5 544 b 1 490 6 522 8 507 b 0 487 1 488 0 488 l 0 473 b 2 466 5 473 2 468 b 40 287 11 405 16 343 b 61 244 45 273 52 258 b 72 216 65 236 69 226 b 86 190 76 208 80 198 b 112 148 93 176 102 161 b 182 76 133 120 156 97 b 202 58 188 70 195 65 l 223 43 b 318 5 252 23 283 9 l 343 1 b 415 -1 366 -1 391 -1 l 439 1 b 483 9 454 4 469 7 l 507 15 b 529 20 514 16 522 19 l 548 30 b 566 41 554 33 561 37 l 584 54 b 632 100 601 68 616 84 b 648 118 637 105 643 112 l 680 154 b 693 176 684 161 689 168 b 721 245 705 197 715 220 b 725 268 723 252 722 261 b 748 347 734 293 748 318 b 750 365 748 352 748 359 l 751 384 b 752 402 751 390 752 395 l 755 438 b 758 465 757 447 757 457 l 759 493 b 722 758 769 582 757 675 m 561 484 b 536 343 557 437 551 388 b 518 300 530 327 525 313 b 459 222 504 270 484 244 b 440 211 454 218 447 214 b 345 193 412 198 379 180 b 337 191 343 193 341 191 b 277 251 325 216 293 226 b 252 280 268 259 261 269 l 238 301 b 218 341 230 313 223 327 b 202 384 211 355 207 369 b 198 407 201 391 200 398 l 195 430 b 195 454 195 437 195 445 l 197 479 b 283 716 209 562 233 648 b 290 723 284 719 288 722 l 291 726 b 297 733 293 729 295 730 l 298 734 b 302 738 300 736 301 737 l 302 740 b 305 744 304 741 304 743 l 308 744 b 316 752 311 747 313 750 b 484 801 362 794 430 818 b 514 758 495 797 504 775 b 539 687 527 737 534 712 l 544 659 b 561 507 558 609 562 558 l 561 484 "},".":{"x_min":-0.359375,"x_max":206.875,"ha":276,"o":"m 197 139 b 200 156 198 144 200 149 b 200 170 200 160 200 166 l 201 180 b 201 183 200 181 200 183 l 191 183 b 173 183 186 183 179 180 b 163 183 169 183 166 183 l 154 183 b 145 183 151 183 148 183 l 126 183 b 99 185 117 183 109 185 b 83 188 90 188 92 189 l 84 192 b 9 174 58 189 33 187 b 9 171 9 174 10 171 b 3 176 6 173 5 173 b 0 163 2 171 1 167 b 17 28 -2 103 33 87 l 16 16 b 19 12 16 14 17 13 b 28 13 22 10 24 12 b 34 10 28 9 31 12 b 38 7 35 9 37 7 b 41 10 38 7 40 10 b 45 7 42 10 44 7 l 47 10 b 48 9 48 10 48 9 b 63 6 55 9 59 12 b 74 3 67 1 73 3 l 77 2 b 83 3 81 2 80 6 b 92 1 85 1 90 1 b 119 2 101 1 113 2 b 138 1 127 2 133 1 b 143 0 141 1 141 1 b 144 2 143 -1 144 2 b 155 5 149 2 151 2 b 179 12 163 7 173 9 b 184 20 176 19 183 16 b 195 20 188 20 191 17 b 201 23 197 23 198 23 l 202 31 b 198 141 213 66 198 102 l 197 139 "}}}
